<?xml version="1.0" standalone="no"?><!DOCTYPE svg PUBLIC "-//W3C//DTD SVG 1.1//EN" "http://www.w3.org/Graphics/SVG/1.1/DTD/svg11.dtd"><svg t="1685110126422" class="icon" viewBox="0 0 1024 1024" version="1.1" xmlns="http://www.w3.org/2000/svg" p-id="3395" xmlns:xlink="http://www.w3.org/1999/xlink" width="200" height="200"><path d="M821.248 707.776c65.92-75.136 106.624-173.824 106.624-282.816 0-71.872-17.92-139.264-48.832-198.656-1.216-3.2-2.816-5.888-4.608-8.704-1.216-2.176-2.24-4.416-3.52-6.592l-0.64 0.704c-7.936-8.448-18.88-13.76-31.168-13.312-22.976 0.768-40.96 20.416-40.256 43.968l0.576 3.904c0.32 11.456 5.248 21.632 12.672 28.992l-0.448 0.512c22.4 45.76 35.264 97.28 35.264 152 0 84.992-30.784 162.432-81.216 222.016-2.944 1.792-6.016 3.264-8.576 5.824l-35.072 37.568c-1.024 0.832-1.792 1.664-2.816 2.496l-138.944 148.096c0.448-0.064 0.896-0.256 1.344-0.384l-69.824 74.752-69.76-74.688c0.128 0.064 0.256 0.128 0.384 0.128l-138.944-151.104c-6.592-5.504-12.672-11.52-18.88-17.408l-18.112-19.456c-0.192-0.256-0.512-0.32-0.768-0.512-53.056-60.352-85.76-139.84-85.76-227.328 0-188.224 149.312-340.864 333.504-340.864 63.68 0 122.944 18.56 173.568 50.24l0.384-0.448c7.616 6.784 17.6 11.008 28.48 10.624 22.912-0.832 41.024-20.48 40.256-43.968l-0.576-3.968c-0.32-9.984-4.48-18.688-10.432-25.856l0.256-0.256c-0.256-0.192-0.576-0.384-0.768-0.576-5.184-5.824-11.648-9.984-19.136-12.224C663.104 22.208 590.208 0 512.064 0 282.432 0 96.32 190.272 96.32 424.96c0 108.16 40 206.464 105.216 281.344 1.792 3.328 3.392 6.656 6.144 9.408l272.768 292.032c0.64 0.768 0.896 1.728 1.6 2.496 0.576 0.576 1.344 0.768 1.92 1.344l0.064 0.064c3.072 3.136 6.72 5.056 10.432 6.976 0.512 0.256 0.896 0.768 1.344 0.96 15.488 7.424 34.304 5.056 47.104-7.936 3.264-3.392 5.44-7.36 7.36-11.392l265.728-284.544C818.368 713.344 819.584 710.464 821.248 707.776z" p-id="3396"></path><path d="M511.872 599.232c92.8 0 168-76.992 168-171.84 0-94.912-75.2-171.776-168-171.776-92.8 0-168 76.864-168 171.776C343.872 522.304 419.072 599.232 511.872 599.232zM511.296 342.144c45.76 0 82.816 37.888 82.816 84.672 0 46.784-37.056 84.8-82.816 84.8S428.416 473.6 428.416 426.752C428.416 380.032 465.472 342.144 511.296 342.144z" p-id="3397"></path></svg>