<?xml version="1.0" encoding="utf-8"?>
<!-- Generator: Adobe Illustrator 15.0.0, SVG Export Plug-In . SVG Version: 6.00 Build 0)  -->
<!DOCTYPE svg PUBLIC "-//W3C//DTD SVG 1.1//EN" "http://www.w3.org/Graphics/SVG/1.1/DTD/svg11.dtd">
<svg version="1.1" id="图层_1" xmlns="http://www.w3.org/2000/svg" xmlns:xlink="http://www.w3.org/1999/xlink" x="0px" y="0px"
	 width="15.039px" height="13.737px" viewBox="0 50.429 15.039 13.737" enable-background="new 0 50.429 15.039 13.737"
	 xml:space="preserve">
<g>
	<path fill="#006934" d="M15.039,64.167H0.128L0,63.779v-0.563c0.087-0.226,0.163-0.338,0.225-0.338h1.069L1.91,62.89l0.004-1.7
		l-0.113-0.112H0.338l-0.282-0.281v-0.348c0-0.2,0.113-0.347,0.338-0.44l4.343,0.048c0.3,0,0.45,0.189,0.45,0.571
		c0,0-0.012,0.497-0.45,0.507L3.41,61.14l-0.022,1.738l0.216,0.058l5.3,0.056c0.156,0,0.325-1.275,0.507-3.827l-0.17-0.114
		c-0.688,0.413-1.213,0.619-1.576,0.619c-1.598-0.107-2.204-1.598-2.204-2.092c0-0.976,0.431-1.686,1.294-2.13v-0.112
		c-0.3-0.369-0.45-0.744-0.45-1.126c0-0.912,0.469-1.516,1.407-1.81h0.234c-0.098-1.275,1.383-1.971,1.913-1.971
		c0.613,0,1.427,0.805,1.646,1.633c1.234,0.422,1.999,1.614,2.016,1.922c0.027,0.512-0.031,0.984-0.508,1.397
		c0,0.075,0.205,0.244,0.619,0.508c1.107,0.907,0.861,3.111-1.43,3.552c-0.489,0.094-1.035-0.018-1.723-0.393
		c-0.15,0.031-0.225,0.106-0.225,0.226c0.068,0.207,0.037,0.981,0.156,2.726c0,0,0.209,0.989,0.453,0.989l4.174,0.087"/>
</g>
</svg>
