<?xml version="1.0" encoding="utf-8"?>
<!-- Generator: Adobe Illustrator 15.0.0, SVG Export Plug-In . SVG Version: 6.00 Build 0)  -->
<!DOCTYPE svg PUBLIC "-//W3C//DTD SVG 1.1//EN" "http://www.w3.org/Graphics/SVG/1.1/DTD/svg11.dtd">
<svg version="1.1" id="图层_1" xmlns="http://www.w3.org/2000/svg" xmlns:xlink="http://www.w3.org/1999/xlink" x="0px" y="0px"
	 width="17.869px" height="13.366px" viewBox="0 76.897 17.869 13.366" enable-background="new 0 76.897 17.869 13.366"
	 xml:space="preserve">
<text transform="matrix(1 0 0 1 -87.5146 416.4065)" font-family="'ywl'" font-size="60">2</text>
<g>
	<path fill="#52474C" d="M0.078,88.454h17.713l0.078,0.091v1.627l-0.078,0.091H0.078L0,90.172v-1.627L0.078,88.454z M7.327,85.499
		h10.386l0.078,0.065v2.603h-4.685l-0.078-0.077c0.147-0.2,0.577-0.941,1.289-2.226H8.707l-1.64,2.303H1.185
		c-0.382-0.052-0.573-0.26-0.573-0.624v-0.092c0-0.398,0.243-0.62,0.729-0.663h4.958L7.327,85.499z M5.427,84.055h0.078
		c0.468,0,0.811,0.325,1.028,0.977l0.039,0.286v0.208c-0.191,0.729-0.59,1.094-1.197,1.094c-0.729-0.174-1.093-0.577-1.093-1.211
		l-0.052-0.052v-0.039c0-0.547,0.295-0.95,0.885-1.211L5.427,84.055z M13.028,78.497h0.078c0.417,0,0.833,0.573,1.25,1.719
		l2.525,5.063l-0.052,0.039h-2.811c-0.087-0.018-0.534-0.867-1.341-2.551l-0.534-0.977l-2.03,3.41
		c-0.13,0.104-0.265,0.156-0.403,0.156c-0.355,0-0.59-0.222-0.703-0.664c0-0.208,0.599-1.254,1.796-3.137
		c0.954-1.691,1.544-2.659,1.77-2.902C12.763,78.55,12.915,78.497,13.028,78.497z M10.88,76.897c0.807,0.122,1.224,0.568,1.25,1.341
		l-0.026,0.26c-0.191,0.66-0.599,0.989-1.224,0.989h-0.182c-0.694-0.199-1.063-0.572-1.106-1.119l0.026-0.299
		c0.026-0.512,0.321-0.894,0.885-1.146L10.88,76.897z"/>
</g>
</svg>
