<?xml version="1.0" encoding="utf-8"?>
<!-- Generator: Adobe Illustrator 15.0.0, SVG Export Plug-In . SVG Version: 6.00 Build 0)  -->
<!DOCTYPE svg PUBLIC "-//W3C//DTD SVG 1.1//EN" "http://www.w3.org/Graphics/SVG/1.1/DTD/svg11.dtd">
<svg version="1.1" id="图层_1" xmlns="http://www.w3.org/2000/svg" xmlns:xlink="http://www.w3.org/1999/xlink" x="0px" y="0px"
	 width="17.912px" height="38.005px" viewBox="0 30.026 17.912 38.005" enable-background="new 0 30.026 17.912 38.005"
	 xml:space="preserve">
<path fill="#763E34" d="M17.911,30.026c0,12.668,0,25.336,0,38.005c-5.968,0-11.937,0-17.904,0c0-12.5,0-24.999,0-37.498
	c-0.014-0.239-0.028-0.479,0.168-0.507C6.088,30.026,12,30.026,17.911,30.026z M17.068,67.524c0-0.957,0-1.914,0-2.871
	c-0.958,0-1.915,0-2.872,0c0,0.957,0,1.914,0,2.871C15.153,67.524,16.11,67.524,17.068,67.524z M17.068,63.809
	c0-0.957,0-1.915,0-2.872c-0.958,0-1.915,0-2.872,0c0,0.957,0,1.915,0,2.872C15.153,63.809,16.11,63.809,17.068,63.809z
	 M17.068,60.093c0-1.014,0-2.027,0-3.041c-0.958,0-1.915,0-2.872,0c0,1.014,0,2.027,0,3.041
	C15.153,60.093,16.11,60.093,17.068,60.093z M17.068,56.208c0-0.958,0-1.915,0-2.871c-0.958,0-1.915,0-2.872,0
	c0,0.956,0,1.913,0,2.871C15.153,56.208,16.11,56.208,17.068,56.208z M17.068,52.491c0-1.013,0-2.026,0-3.04
	c-0.958,0-1.915,0-2.872,0c0,1.014,0,2.027,0,3.04C15.153,52.491,16.11,52.491,17.068,52.491z M17.068,48.606
	c0-0.957,0-1.914,0-2.872c-0.958,0-1.915,0-2.872,0c0,0.958,0,1.915,0,2.872C15.153,48.606,16.11,48.606,17.068,48.606z
	 M17.068,44.891c0-0.957,0-1.914,0-2.871c-0.958,0-1.915,0-2.872,0c0,0.957,0,1.914,0,2.871
	C15.153,44.891,16.11,44.891,17.068,44.891z M17.068,41.006c0-0.957,0-1.914,0-2.871c-0.958,0-1.915,0-2.872,0
	c0,0.957,0,1.914,0,2.871C15.153,41.006,16.11,41.006,17.068,41.006z M17.068,37.459c0-1.014,0-2.027,0-3.041
	c-0.958,0-1.915,0-2.872,0c0,1.013,0,2.027,0,3.041C15.153,37.459,16.11,37.459,17.068,37.459z M17.068,33.574
	c0-0.957,0-1.915,0-2.872c-0.958,0-1.915,0-2.872,0c0,0.957,0,1.915,0,2.872C15.153,33.574,16.11,33.574,17.068,33.574z
	 M12.507,67.524c0-0.957,0-1.914,0-2.871c-0.394,0-0.788,0-1.182,0c0,0.957,0,1.914,0,2.871
	C11.719,67.524,12.113,67.524,12.507,67.524z M12.507,63.809c0-0.957,0-1.915,0-2.872c-0.957,0-1.914,0-2.871,0
	c0,0.957,0,1.915,0,2.872C10.593,63.809,11.549,63.809,12.507,63.809z M12.507,60.093c0-1.014,0-2.027,0-3.041
	c-0.957,0-1.914,0-2.871,0c0,1.014,0,2.027,0,3.041C10.593,60.093,11.549,60.093,12.507,60.093z M12.507,56.208
	c0-0.958,0-1.915,0-2.871c-0.957,0-1.914,0-2.871,0c0,0.956,0,1.913,0,2.871C10.593,56.208,11.549,56.208,12.507,56.208z
	 M12.507,52.491c0-1.013,0-2.026,0-3.04c-0.957,0-1.914,0-2.871,0c0,1.014,0,2.027,0,3.04
	C10.593,52.491,11.549,52.491,12.507,52.491z M12.507,48.606c0-0.957,0-1.914,0-2.872c-0.957,0-1.914,0-2.871,0
	c0,0.958,0,1.915,0,2.872C10.593,48.606,11.549,48.606,12.507,48.606z M12.507,44.891c0-0.957,0-1.914,0-2.871
	c-0.957,0-1.914,0-2.871,0c0,0.957,0,1.914,0,2.871C10.593,44.891,11.549,44.891,12.507,44.891z M12.507,41.006
	c0-0.957,0-1.914,0-2.871c-0.957,0-1.914,0-2.871,0c0,0.957,0,1.914,0,2.871C10.593,41.006,11.549,41.006,12.507,41.006z
	 M12.507,37.459c0-1.014,0-2.027,0-3.041c-0.957,0-1.914,0-2.871,0c0,1.013,0,2.027,0,3.041
	C10.593,37.459,11.549,37.459,12.507,37.459z M12.507,33.574c0-0.957,0-1.915,0-2.872c-0.957,0-1.914,0-2.871,0
	c0,0.957,0,1.915,0,2.872C10.593,33.574,11.549,33.574,12.507,33.574z M8.115,63.809c0-0.957,0-1.915,0-2.872
	c-0.957,0-1.915,0-2.871,0c0,0.957,0,1.915,0,2.872C6.2,63.809,7.157,63.809,8.115,63.809z M8.115,60.093c0-1.014,0-2.027,0-3.041
	c-0.957,0-1.915,0-2.871,0c0,1.014,0,2.027,0,3.041C6.2,60.093,7.157,60.093,8.115,60.093z M8.115,56.208c0-0.958,0-1.915,0-2.871
	c-0.957,0-1.915,0-2.871,0c0,0.956,0,1.913,0,2.871C6.2,56.208,7.157,56.208,8.115,56.208z M8.115,52.491c0-1.013,0-2.026,0-3.04
	c-0.957,0-1.915,0-2.871,0c0,1.014,0,2.027,0,3.04C6.2,52.491,7.157,52.491,8.115,52.491z M8.115,48.606c0-0.957,0-1.914,0-2.872
	c-0.957,0-1.915,0-2.871,0c0,0.958,0,1.915,0,2.872C6.2,48.606,7.157,48.606,8.115,48.606z M8.115,44.891c0-0.957,0-1.914,0-2.871
	c-0.957,0-1.915,0-2.871,0c0,0.957,0,1.914,0,2.871C6.2,44.891,7.157,44.891,8.115,44.891z M8.115,41.006c0-0.957,0-1.914,0-2.871
	c-0.957,0-1.915,0-2.871,0c0,0.957,0,1.914,0,2.871C6.2,41.006,7.157,41.006,8.115,41.006z M8.115,37.459c0-1.014,0-2.027,0-3.041
	c-0.957,0-1.915,0-2.871,0c0,1.013,0,2.027,0,3.041C6.2,37.459,7.157,37.459,8.115,37.459z M8.115,33.574c0-0.957,0-1.915,0-2.872
	c-0.957,0-1.915,0-2.871,0c0,0.957,0,1.915,0,2.872C6.2,33.574,7.157,33.574,8.115,33.574z M6.933,67.524c0-0.957,0-1.914,0-2.871
	c-0.563,0-1.126,0-1.689,0c0,0.957,0,1.914,0,2.871C5.807,67.524,6.369,67.524,6.933,67.524z M3.723,67.524c0-0.957,0-1.914,0-2.871
	c-0.901,0-1.801,0-2.702,0c0,0.957,0,1.914,0,2.871C1.922,67.524,2.822,67.524,3.723,67.524z M3.723,63.809c0-0.957,0-1.915,0-2.872
	c-0.901,0-1.801,0-2.702,0c0,0.957,0,1.915,0,2.872C1.922,63.809,2.822,63.809,3.723,63.809z M3.723,60.093c0-1.014,0-2.027,0-3.041
	c-0.901,0-1.801,0-2.702,0c0,1.014,0,2.027,0,3.041C1.922,60.093,2.822,60.093,3.723,60.093z M3.723,56.208c0-0.958,0-1.915,0-2.871
	c-0.901,0-1.801,0-2.702,0c0,0.956,0,1.913,0,2.871C1.922,56.208,2.822,56.208,3.723,56.208z M3.723,52.491c0-1.013,0-2.026,0-3.04
	c-0.901,0-1.801,0-2.702,0c0,1.014,0,2.027,0,3.04C1.922,52.491,2.822,52.491,3.723,52.491z M3.723,48.606c0-0.957,0-1.914,0-2.872
	c-0.901,0-1.801,0-2.702,0c0,0.958,0,1.915,0,2.872C1.922,48.606,2.822,48.606,3.723,48.606z M3.723,44.891c0-0.957,0-1.914,0-2.871
	c-0.901,0-1.801,0-2.702,0c0,0.957,0,1.914,0,2.871C1.922,44.891,2.822,44.891,3.723,44.891z M3.723,41.006c0-0.957,0-1.914,0-2.871
	c-0.901,0-1.801,0-2.702,0c0,0.957,0,1.914,0,2.871C1.922,41.006,2.822,41.006,3.723,41.006z M3.723,37.459c0-1.014,0-2.027,0-3.041
	c-0.901,0-1.801,0-2.702,0c0,1.013,0,2.027,0,3.041C1.922,37.459,2.822,37.459,3.723,37.459z M3.723,33.574c0-0.957,0-1.915,0-2.872
	c-0.901,0-1.801,0-2.702,0c0,0.957,0,1.915,0,2.872C1.922,33.574,2.822,33.574,3.723,33.574z"/>
<path fill="#FFFFFF" d="M17.068,64.653c0,0.957,0,1.914,0,2.871c-0.958,0-1.915,0-2.872,0c0-0.957,0-1.914,0-2.871
	C15.153,64.653,16.11,64.653,17.068,64.653z"/>
<path fill="#FFFFFF" d="M17.068,60.937c0,0.957,0,1.915,0,2.872c-0.958,0-1.915,0-2.872,0c0-0.957,0-1.915,0-2.872
	C15.153,60.937,16.11,60.937,17.068,60.937z"/>
<path fill="#FFFFFF" d="M17.068,57.052c0,1.014,0,2.026,0,3.041c-0.958,0-1.915,0-2.872,0c0-1.015,0-2.027,0-3.041
	C15.153,57.052,16.11,57.052,17.068,57.052z"/>
<path fill="#FFFFFF" d="M17.068,53.337c0,0.956,0,1.913,0,2.871c-0.958,0-1.915,0-2.872,0c0-0.958,0-1.915,0-2.871
	C15.153,53.337,16.11,53.337,17.068,53.337z"/>
<path fill="#FFFFFF" d="M17.068,49.451c0,1.013,0,2.026,0,3.04c-0.958,0-1.915,0-2.872,0c0-1.014,0-2.027,0-3.04
	C15.153,49.451,16.11,49.451,17.068,49.451z"/>
<path fill="#FFFFFF" d="M17.068,45.734c0,0.958,0,1.915,0,2.872c-0.958,0-1.915,0-2.872,0c0-0.957,0-1.914,0-2.872
	C15.153,45.734,16.11,45.734,17.068,45.734z"/>
<path fill="#FFFFFF" d="M17.068,42.02c0,0.957,0,1.914,0,2.871c-0.958,0-1.915,0-2.872,0c0-0.957,0-1.914,0-2.871
	C15.153,42.02,16.11,42.02,17.068,42.02z"/>
<path fill="#FFFFFF" d="M17.068,38.135c0,0.957,0,1.914,0,2.871c-0.958,0-1.915,0-2.872,0c0-0.957,0-1.914,0-2.871
	C15.153,38.135,16.11,38.135,17.068,38.135z"/>
<path fill="#FFFFFF" d="M17.068,34.418c0,1.013,0,2.027,0,3.041c-0.958,0-1.915,0-2.872,0c0-1.014,0-2.027,0-3.041
	C15.153,34.418,16.11,34.418,17.068,34.418z"/>
<path fill="#FFFFFF" d="M17.068,30.702c0,0.957,0,1.915,0,2.872c-0.958,0-1.915,0-2.872,0c0-0.957,0-1.915,0-2.872
	C15.153,30.702,16.11,30.702,17.068,30.702z"/>
<path fill="#FFFFFF" d="M12.507,64.653c0,0.957,0,1.914,0,2.871c-0.394,0-0.788,0-1.182,0c0-0.957,0-1.914,0-2.871
	C11.719,64.653,12.113,64.653,12.507,64.653z"/>
<path fill="#FFFFFF" d="M12.507,60.937c0,0.957,0,1.915,0,2.872c-0.957,0-1.914,0-2.871,0c0-0.957,0-1.915,0-2.872
	C10.593,60.937,11.549,60.937,12.507,60.937z"/>
<path fill="#FFFFFF" d="M12.507,57.052c0,1.014,0,2.026,0,3.041c-0.957,0-1.914,0-2.871,0c0-1.015,0-2.027,0-3.041
	C10.593,57.052,11.549,57.052,12.507,57.052z"/>
<path fill="#FFFFFF" d="M12.507,53.337c0,0.956,0,1.913,0,2.871c-0.957,0-1.914,0-2.871,0c0-0.958,0-1.915,0-2.871
	C10.593,53.337,11.549,53.337,12.507,53.337z"/>
<path fill="#FFFFFF" d="M12.507,49.451c0,1.013,0,2.026,0,3.04c-0.957,0-1.914,0-2.871,0c0-1.014,0-2.027,0-3.04
	C10.593,49.451,11.549,49.451,12.507,49.451z"/>
<path fill="#FFFFFF" d="M12.507,45.734c0,0.958,0,1.915,0,2.872c-0.957,0-1.914,0-2.871,0c0-0.957,0-1.914,0-2.872
	C10.593,45.734,11.549,45.734,12.507,45.734z"/>
<path fill="#FFFFFF" d="M12.507,42.02c0,0.957,0,1.914,0,2.871c-0.957,0-1.914,0-2.871,0c0-0.957,0-1.914,0-2.871
	C10.593,42.02,11.549,42.02,12.507,42.02z"/>
<path fill="#FFFFFF" d="M12.507,38.135c0,0.957,0,1.914,0,2.871c-0.957,0-1.914,0-2.871,0c0-0.957,0-1.914,0-2.871
	C10.593,38.135,11.549,38.135,12.507,38.135z"/>
<path fill="#FFFFFF" d="M12.507,34.418c0,1.013,0,2.027,0,3.041c-0.957,0-1.914,0-2.871,0c0-1.014,0-2.027,0-3.041
	C10.593,34.418,11.549,34.418,12.507,34.418z"/>
<path fill="#FFFFFF" d="M12.507,30.702c0,0.957,0,1.915,0,2.872c-0.957,0-1.914,0-2.871,0c0-0.957,0-1.915,0-2.872
	C10.593,30.702,11.549,30.702,12.507,30.702z"/>
<path fill="#FFFFFF" d="M8.115,60.937c0,0.957,0,1.915,0,2.872c-0.957,0-1.915,0-2.871,0c0-0.957,0-1.915,0-2.872
	C6.2,60.937,7.157,60.937,8.115,60.937z"/>
<path fill="#FFFFFF" d="M8.115,57.052c0,1.014,0,2.026,0,3.041c-0.957,0-1.915,0-2.871,0c0-1.015,0-2.027,0-3.041
	C6.2,57.052,7.157,57.052,8.115,57.052z"/>
<path fill="#FFFFFF" d="M8.115,53.337c0,0.956,0,1.913,0,2.871c-0.957,0-1.915,0-2.871,0c0-0.958,0-1.915,0-2.871
	C6.2,53.337,7.157,53.337,8.115,53.337z"/>
<path fill="#FFFFFF" d="M8.115,49.451c0,1.013,0,2.026,0,3.04c-0.957,0-1.915,0-2.871,0c0-1.014,0-2.027,0-3.04
	C6.2,49.451,7.157,49.451,8.115,49.451z"/>
<path fill="#FFFFFF" d="M8.115,45.734c0,0.958,0,1.915,0,2.872c-0.957,0-1.915,0-2.871,0c0-0.957,0-1.914,0-2.872
	C6.2,45.734,7.157,45.734,8.115,45.734z"/>
<path fill="#FFFFFF" d="M8.115,42.02c0,0.957,0,1.914,0,2.871c-0.957,0-1.915,0-2.871,0c0-0.957,0-1.914,0-2.871
	C6.2,42.02,7.157,42.02,8.115,42.02z"/>
<path fill="#FFFFFF" d="M8.115,38.135c0,0.957,0,1.914,0,2.871c-0.957,0-1.915,0-2.871,0c0-0.957,0-1.914,0-2.871
	C6.2,38.135,7.157,38.135,8.115,38.135z"/>
<path fill="#FFFFFF" d="M8.115,34.418c0,1.013,0,2.027,0,3.041c-0.957,0-1.915,0-2.871,0c0-1.014,0-2.027,0-3.041
	C6.2,34.418,7.157,34.418,8.115,34.418z"/>
<path fill="#FFFFFF" d="M8.115,30.702c0,0.957,0,1.915,0,2.872c-0.957,0-1.915,0-2.871,0c0-0.957,0-1.915,0-2.872
	C6.2,30.702,7.157,30.702,8.115,30.702z"/>
<path fill="#FFFFFF" d="M6.933,64.653c0,0.957,0,1.914,0,2.871c-0.563,0-1.126,0-1.689,0c0-0.957,0-1.914,0-2.871
	C5.807,64.653,6.369,64.653,6.933,64.653z"/>
<path fill="#FFFFFF" d="M3.723,64.653c0,0.957,0,1.914,0,2.871c-0.901,0-1.801,0-2.702,0c0-0.957,0-1.914,0-2.871
	C1.922,64.653,2.822,64.653,3.723,64.653z"/>
<path fill="#FFFFFF" d="M3.723,60.937c0,0.957,0,1.915,0,2.872c-0.901,0-1.801,0-2.702,0c0-0.957,0-1.915,0-2.872
	C1.922,60.937,2.822,60.937,3.723,60.937z"/>
<path fill="#FFFFFF" d="M3.723,57.052c0,1.014,0,2.026,0,3.041c-0.901,0-1.801,0-2.702,0c0-1.015,0-2.027,0-3.041
	C1.922,57.052,2.822,57.052,3.723,57.052z"/>
<path fill="#FFFFFF" d="M3.723,53.337c0,0.956,0,1.913,0,2.871c-0.901,0-1.801,0-2.702,0c0-0.958,0-1.915,0-2.871
	C1.922,53.337,2.822,53.337,3.723,53.337z"/>
<path fill="#FFFFFF" d="M3.723,49.451c0,1.013,0,2.026,0,3.04c-0.901,0-1.801,0-2.702,0c0-1.014,0-2.027,0-3.04
	C1.922,49.451,2.822,49.451,3.723,49.451z"/>
<path fill="#FFFFFF" d="M3.723,45.734c0,0.958,0,1.915,0,2.872c-0.901,0-1.801,0-2.702,0c0-0.957,0-1.914,0-2.872
	C1.922,45.734,2.822,45.734,3.723,45.734z"/>
<path fill="#FFFFFF" d="M3.723,42.02c0,0.957,0,1.914,0,2.871c-0.901,0-1.801,0-2.702,0c0-0.957,0-1.914,0-2.871
	C1.922,42.02,2.822,42.02,3.723,42.02z"/>
<path fill="#FFFFFF" d="M3.723,38.135c0,0.957,0,1.914,0,2.871c-0.901,0-1.801,0-2.702,0c0-0.957,0-1.914,0-2.871
	C1.922,38.135,2.822,38.135,3.723,38.135z"/>
<path fill="#FFFFFF" d="M3.723,34.418c0,1.013,0,2.027,0,3.041c-0.901,0-1.801,0-2.702,0c0-1.014,0-2.027,0-3.041
	C1.922,34.418,2.822,34.418,3.723,34.418z"/>
<path fill="#FFFFFF" d="M3.723,30.702c0,0.957,0,1.915,0,2.872c-0.901,0-1.801,0-2.702,0c0-0.957,0-1.915,0-2.872
	C1.922,30.702,2.822,30.702,3.723,30.702z"/>
</svg>
