<?xml version="1.0" encoding="utf-8"?>
<!-- Generator: Adobe Illustrator 15.0.0, SVG Export Plug-In . SVG Version: 6.00 Build 0)  -->
<!DOCTYPE svg PUBLIC "-//W3C//DTD SVG 1.1//EN" "http://www.w3.org/Graphics/SVG/1.1/DTD/svg11.dtd">
<svg version="1.1" id="图层_1" xmlns="http://www.w3.org/2000/svg" xmlns:xlink="http://www.w3.org/1999/xlink" x="0px" y="0px"
	 width="26.5px" height="26.5px" viewBox="0 0 26.5 26.5" enable-background="new 0 0 26.5 26.5" xml:space="preserve">
<g>
	<g>
		<path fill="#136EAB" d="M26.5,13.2c0-3.6-1.3-6.8-3.9-9.4C20.1,1.3,16.9,0,13.3,0C9.6,0,6.5,1.3,3.9,3.8C1.3,6.4,0,9.6,0,13.2
			c0,3.7,1.3,6.8,3.9,9.4c2.6,2.6,5.7,3.9,9.4,3.9c3.6,0,6.8-1.3,9.3-3.9C25.2,20,26.5,16.9,26.5,13.2z M2.4,10.8
			c0.6-0.7,1.5-1,2.4-1c1,0,1.8,0.3,2.5,1c0.6,0.6,1,1.5,1,2.4c0,1-0.4,1.8-1,2.5c-0.7,0.6-1.5,1-2.5,1c-0.9,0-1.8-0.4-2.4-1
			c-0.7-0.7-1-1.5-1-2.5C1.4,12.3,1.7,11.4,2.4,10.8z"/>
		<path fill="#FFFFFF" d="M4.8,9.8c-0.9,0-1.8,0.3-2.4,1c-0.7,0.6-1,1.5-1,2.4c0,1,0.3,1.8,1,2.5c0.6,0.6,1.5,1,2.4,1
			c1,0,1.8-0.4,2.5-1c0.6-0.7,1-1.5,1-2.5c0-0.9-0.4-1.8-1-2.4C6.6,10.1,5.8,9.8,4.8,9.8z M3.3,11.5c0.5,0,0.9,0.1,1.2,0.5
			c0.4,0.3,0.6,0.8,0.6,1.3s-0.2,0.9-0.6,1.2c-0.3,0.4-0.7,0.6-1.2,0.6s-1-0.2-1.3-0.6c-0.4-0.3-0.5-0.7-0.5-1.2s0.1-1,0.5-1.3
			C2.3,11.6,2.8,11.5,3.3,11.5z"/>
		<path d="M4.5,12c-0.3-0.4-0.7-0.5-1.2-0.5S2.3,11.6,2,12c-0.4,0.3-0.5,0.8-0.5,1.3s0.1,0.9,0.5,1.2c0.3,0.4,0.8,0.6,1.3,0.6
			s0.9-0.2,1.2-0.6c0.4-0.3,0.6-0.7,0.6-1.2S4.9,12.3,4.5,12z"/>
	</g>
</g>
</svg>
