<?xml version="1.0" encoding="utf-8"?>
<!-- Generator: Adobe Illustrator 15.0.0, SVG Export Plug-In . SVG Version: 6.00 Build 0)  -->
<!DOCTYPE svg PUBLIC "-//W3C//DTD SVG 1.1//EN" "http://www.w3.org/Graphics/SVG/1.1/DTD/svg11.dtd">
<svg version="1.1" id="图层_1" xmlns="http://www.w3.org/2000/svg" xmlns:xlink="http://www.w3.org/1999/xlink" x="0px" y="0px"
	 width="14.459px" height="14.438px" viewBox="0 240.586 14.459 14.438" enable-background="new 0 240.586 14.459 14.438"
	 xml:space="preserve">
<g>
	<path fill="#FFFFFF" d="M0.34,240.586c-0.13,0.097-0.243,0.21-0.34,0.34c0-0.113,0-0.227,0-0.34
		C0.113,240.586,0.227,240.586,0.34,240.586z"/>
	<path fill="#FFFFFF" d="M5.436,245.115c0.755,0,1.51,0,2.265,0c0,0.321,0,0.642,0,0.963c-0.661,0-1.321,0-1.982,0
		C5.611,245.769,5.504,245.462,5.436,245.115z"/>
	<path fill="#FFFFFF" d="M8.493,245.115c0.472,0,0.944,0,1.416,0c0,0.321,0,0.642,0,0.963c-0.472,0-0.944,0-1.416,0
		C8.493,245.757,8.493,245.436,8.493,245.115z"/>
	<path fill="#FFFFFF" d="M10.701,245.115c0.831,0,1.661,0,2.491,0c-0.103,0.351-0.288,0.618-0.396,0.963c-0.699,0-1.397,0-2.095,0
		C10.701,245.757,10.701,245.436,10.701,245.115z"/>
	<path fill="#FFFFFF" d="M5.945,246.813c0.585,0,1.17,0,1.755,0c0,0.303,0,0.604,0,0.906c-0.491,0-0.981,0-1.472,0
		C6.152,247.399,6.021,247.134,5.945,246.813z"/>
	<path fill="#FFFFFF" d="M8.493,246.813c0.472,0,0.944,0,1.416,0c0,0.303,0,0.604,0,0.906c-0.472,0-0.944,0-1.416,0
		C8.493,247.418,8.493,247.116,8.493,246.813z"/>
	<path fill="#FFFFFF" d="M10.701,246.813c0.566,0,1.132,0,1.699,0c-0.111,0.324-0.25,0.619-0.396,0.906c-0.434,0-0.868,0-1.302,0
		C10.701,247.418,10.701,247.116,10.701,246.813z"/>
	<path fill="#FFFFFF" d="M6.511,248.512c0.396,0,0.792,0,1.189,0c0,0.32,0,0.642,0,0.962c-0.302,0-0.604,0-0.906,0
		C6.695,249.159,6.54,248.899,6.511,248.512z"/>
	<path fill="#FFFFFF" d="M8.493,248.512c0.472,0,0.944,0,1.416,0c0,0.32,0,0.642,0,0.962c-0.472,0-0.944,0-1.416,0
		C8.493,249.154,8.493,248.833,8.493,248.512z"/>
	<path fill="#FFFFFF" d="M10.701,248.512c0.302,0,0.604,0,0.906,0c-0.087,0.365-0.292,0.613-0.396,0.962c-0.17,0-0.34,0-0.51,0
		C10.701,249.154,10.701,248.833,10.701,248.512z"/>
	<g>
		<path fill="#604343" d="M0.34,240.586c0.887,0,1.774,0,2.661,0c1.445,0.31,1.437,2.073,1.925,3.341c2.307,0,4.426,0,6.794,0
			c1.108,0,2.529-0.226,2.717,0.792c0.179,0.971-0.811,2.424-1.132,3.114c-0.239,0.515-0.899,2.43-1.472,2.718
			c-1.128,0.568-3.529-0.192-4.926,0.113c0.227,1.364,1.922,1.019,3.793,1.019c0.76,0,2.393-0.245,2.321,0.68
			c-0.05,0.657-1.28,0.51-2.378,0.51c-2.239,0-3.945,0.139-4.699-1.302c-0.353-0.674-0.49-1.658-0.736-2.491
			c-0.252-0.855-0.512-1.727-0.736-2.491c-0.5-1.704-0.85-3.329-1.585-4.813c-0.843-0.252-2.474,0.284-2.888-0.396
			c0-0.151,0-0.302,0-0.453C0.097,240.796,0.21,240.682,0.34,240.586z M5.718,246.078c0.661,0,1.321,0,1.982,0
			c0-0.321,0-0.642,0-0.963c-0.755,0-1.51,0-2.265,0C5.504,245.462,5.611,245.769,5.718,246.078z M8.493,246.078
			c0.472,0,0.944,0,1.416,0c0-0.321,0-0.642,0-0.963c-0.472,0-0.944,0-1.416,0C8.493,245.436,8.493,245.757,8.493,246.078z
			 M10.701,246.078c0.698,0,1.396,0,2.095,0c0.108-0.345,0.293-0.612,0.396-0.963c-0.83,0-1.661,0-2.491,0
			C10.701,245.436,10.701,245.757,10.701,246.078z M6.228,247.719c0.491,0,0.981,0,1.472,0c0-0.302,0-0.604,0-0.906
			c-0.585,0-1.17,0-1.755,0C6.021,247.134,6.152,247.399,6.228,247.719z M8.493,247.719c0.472,0,0.944,0,1.416,0
			c0-0.302,0-0.604,0-0.906c-0.472,0-0.944,0-1.416,0C8.493,247.116,8.493,247.418,8.493,247.719z M10.701,247.719
			c0.434,0,0.868,0,1.302,0c0.146-0.287,0.286-0.582,0.396-0.906c-0.566,0-1.132,0-1.699,0
			C10.701,247.116,10.701,247.418,10.701,247.719z M6.794,249.474c0.302,0,0.604,0,0.906,0c0-0.32,0-0.642,0-0.962
			c-0.396,0-0.793,0-1.189,0C6.54,248.899,6.695,249.159,6.794,249.474z M8.493,249.474c0.472,0,0.944,0,1.416,0
			c0-0.32,0-0.642,0-0.962c-0.472,0-0.944,0-1.416,0C8.493,248.833,8.493,249.154,8.493,249.474z M10.701,249.474
			c0.17,0,0.34,0,0.51,0c0.104-0.349,0.309-0.597,0.396-0.962c-0.302,0-0.604,0-0.906,0
			C10.701,248.833,10.701,249.154,10.701,249.474z"/>
		<path fill="#604343" d="M7.53,252.985c1.706-0.412,1.563,1.979,0.34,2.038c-0.562,0.027-1.358-0.328-1.076-1.415
			C6.84,253.432,7.117,253.085,7.53,252.985z"/>
		<path fill="#604343" d="M10.871,252.985c0.815-0.197,1.514,0.362,1.302,1.302c-0.307,1.369-2.525,0.602-1.981-0.792
			C10.271,253.289,10.501,253.074,10.871,252.985z"/>
	</g>
</g>
</svg>
