<?xml version="1.0" encoding="utf-8"?>
<!-- Generator: Adobe Illustrator 15.0.0, SVG Export Plug-In . SVG Version: 6.00 Build 0)  -->
<!DOCTYPE svg PUBLIC "-//W3C//DTD SVG 1.1//EN" "http://www.w3.org/Graphics/SVG/1.1/DTD/svg11.dtd">
<svg version="1.1" id="图层_1" xmlns="http://www.w3.org/2000/svg" xmlns:xlink="http://www.w3.org/1999/xlink" x="0px" y="0px"
	 width="16.997px" height="15px" viewBox="0 0 16.997 15" enable-background="new 0 0 16.997 15" xml:space="preserve">
<g id="XMLID_2_">
	<path fill="#00A352" d="M16.093,5.875c0.573,0.573,1.301,1.503,0.642,2.568c-0.155,0.25-0.475,0.518-0.728,0.771
		c-0.692,0.692-1.532,1.47-2.183,2.183c-0.339-0.231-0.624-0.517-0.856-0.855c0.35-0.287,0.729-0.73,1.156-1.156
		c0.596-0.596,1.756-1.317,1.198-2.482c-0.373-0.777-1.523-1.458-2.055-2.14c-0.946,0.991-1.93,2.323-2.782,3.596
		c-0.297,0.443-0.671,0.848-0.813,1.283c-0.383,1.176,0.178,2.513,0.214,3.767c0.608-0.202,0.958-0.744,1.37-1.155
		c0.42-0.421,0.855-0.828,1.284-1.241c0.194,0.057,0.253,0.21,0.428,0.385c0.04,0.04,0.424,0.287,0.428,0.386
		c0.005,0.122-0.622,0.621-0.728,0.728c-0.707,0.707-1.569,1.597-2.14,2.183c-0.364,0.215-1.045,0.441-1.669,0.214
		c-0.654-0.238-1.26-1.089-1.797-1.626c-1.126-1.126-2.255-2.256-3.424-3.425C2.885,9.102,1.956,8.593,2.012,7.33
		C1.315,7.142,0.55,7.022,0,6.688c0.799-0.355,1.784-0.166,2.482-0.471c0.411-0.18,1.027-0.941,1.37-1.284
		C4.321,4.464,4.737,4.02,5.136,3.606C5.475,3.838,5.76,4.123,5.992,4.462C5.496,4.951,4.962,5.4,4.537,5.96
		c2.179-0.295,3.531,0.606,4.237,1.926C8.63,6.553,8.526,5.179,8.603,3.734c0.19,0.102,0.14,0.35,0.171,0.514
		c0.102,0.522,0.188,1.083,0.299,1.626c0.146,0.708,0.418,1.428,0.3,2.183c0.757-1.64,1.399-3.395,2.525-4.666
		C11.051,2.814,10.386,0.97,8.86,1.68C8.423,1.883,8.016,2.438,7.619,2.836C7.455,2.999,7.259,3.195,7.02,3.435
		C6.928,3.526,6.461,4.032,6.42,4.034C6.253,4.042,5.745,3.286,5.607,3.221c0.346-0.485,0.912-0.954,1.456-1.498
		c0.495-0.495,0.961-1.147,1.455-1.455c0.479-0.299,1.203-0.356,1.712-0.128c0.49,0.219,0.845,0.759,1.241,1.156
		c0.409,0.409,0.839,0.777,1.198,1.198c1.007-0.85,2.328-1.56,4.195-1.412c-0.46,0.47-0.991,0.862-1.456,1.327
		c-0.463,0.463-0.904,0.951-1.37,1.413C14.636,4.48,15.411,5.193,16.093,5.875z M9.374,13.45c-0.078-0.689-0.193-1.368-0.3-2.012
		C8.959,10.749,8.929,10.03,8.689,9.47C8.536,9.113,8.207,8.722,7.961,8.485C7.027,7.587,5.454,7.341,3.553,7.372
		C3.502,7.38,3.506,7.44,3.51,7.501c0.091,0.97,0.859,1.416,1.455,2.012c1.015,1.015,1.832,1.832,2.782,2.782
		C8.211,12.759,8.635,13.427,9.374,13.45z M5.864,6.73C5.789,6.755,5.612,6.679,5.607,6.773C5.683,6.749,5.859,6.825,5.864,6.73z
		 M5.136,6.73C5.061,6.755,4.885,6.679,4.879,6.773C4.955,6.749,5.131,6.825,5.136,6.73z M4.452,6.816
		c0.062-0.023,0.221,0.05,0.214-0.042C4.604,6.797,4.444,6.723,4.452,6.816z M1.926,6.773C1.606,6.722,1.789,6.904,1.926,6.773
		L1.926,6.773z M1.456,6.73C1.135,6.679,1.317,6.861,1.456,6.73L1.456,6.73z"/>
	<path fill="#FFFFFF" d="M9.074,11.438c0.107,0.644,0.222,1.322,0.3,2.012c-0.738-0.023-1.162-0.691-1.626-1.155
		c-0.95-0.95-1.767-1.768-2.782-2.782C4.369,8.917,3.601,8.471,3.51,7.501C3.506,7.44,3.502,7.38,3.553,7.372
		c1.901-0.031,3.474,0.215,4.408,1.113C8.207,8.722,8.536,9.113,8.689,9.47C8.929,10.03,8.959,10.749,9.074,11.438z"/>
	<path fill="#FFFFFF" d="M5.607,6.773C5.612,6.679,5.789,6.755,5.864,6.73C5.859,6.825,5.683,6.749,5.607,6.773z"/>
	<path fill="#FFFFFF" d="M4.879,6.773C4.885,6.679,5.061,6.755,5.136,6.73C5.131,6.825,4.955,6.749,4.879,6.773z"/>
	<path fill="#FFFFFF" d="M4.666,6.773c0.007,0.093-0.152,0.019-0.214,0.042C4.444,6.723,4.604,6.797,4.666,6.773z"/>
	<path fill="#FFFFFF" d="M1.926,6.773C1.789,6.904,1.606,6.722,1.926,6.773L1.926,6.773z"/>
	<path fill="#FFFFFF" d="M1.456,6.73C1.317,6.861,1.135,6.679,1.456,6.73L1.456,6.73z"/>
</g>
</svg>
