<?xml version="1.0" encoding="utf-8"?>
<!-- Generator: Adobe Illustrator 15.0.0, SVG Export Plug-In . SVG Version: 6.00 Build 0)  -->
<!DOCTYPE svg PUBLIC "-//W3C//DTD SVG 1.1//EN" "http://www.w3.org/Graphics/SVG/1.1/DTD/svg11.dtd">
<svg version="1.1" id="图层_1" xmlns="http://www.w3.org/2000/svg" xmlns:xlink="http://www.w3.org/1999/xlink" x="0px" y="0px"
	 width="15.191px" height="15.191px" viewBox="0 109.966 15.191 15.191" enable-background="new 0 109.966 15.191 15.191"
	 xml:space="preserve">
<g>
	<path fill="#635452" d="M1.995,125.157c-0.562,0-1.035-0.192-1.419-0.576C0.192,124.197,0,123.724,0,123.162v-11.201
		c0-0.277,0.051-0.535,0.155-0.773c0.103-0.238,0.245-0.446,0.427-0.624c0.181-0.178,0.391-0.322,0.629-0.433
		c0.238-0.109,0.5-0.165,0.784-0.165h11.201c0.519,0,0.989,0.195,1.408,0.587c0.391,0.42,0.587,0.889,0.587,1.408v11.201
		c0,0.533-0.196,1.003-0.587,1.408c-0.419,0.392-0.889,0.587-1.408,0.587H1.995L1.995,125.157z M13.196,124.666
		c0.413,0,0.766-0.147,1.062-0.442c0.295-0.295,0.442-0.648,0.442-1.062v-11.201c0-0.412-0.147-0.767-0.442-1.062
		c-0.295-0.295-0.649-0.442-1.062-0.442H1.995c-0.413,0-0.767,0.147-1.062,0.442c-0.295,0.295-0.443,0.649-0.443,1.062v11.201
		c0,0.413,0.147,0.767,0.443,1.062c0.295,0.295,0.649,0.442,1.062,0.442H13.196L13.196,124.666z M7.692,112.398
		c0.249,0,0.51,0.016,0.784,0.048c0.273,0.032,0.539,0.071,0.794,0.117c0.256,0.047,0.493,0.104,0.709,0.171s0.407,0.13,0.571,0.187
		c0.285,0.114,0.514,0.242,0.688,0.384c0.174,0.143,0.286,0.363,0.336,0.662l0.426,3.211v4.427h-0.725v0.683
		c0,0.214-0.064,0.374-0.192,0.48s-0.274,0.16-0.438,0.16c-0.156,0-0.297-0.054-0.421-0.16s-0.187-0.267-0.187-0.48v-0.683H5.355
		v0.683c0,0.214-0.064,0.374-0.192,0.48c-0.128,0.106-0.273,0.16-0.437,0.16c-0.157,0-0.297-0.054-0.421-0.16
		c-0.125-0.106-0.187-0.267-0.187-0.48v-0.683H3.403v-4.427l0.416-3.211c0.064-0.299,0.185-0.523,0.363-0.673
		s0.413-0.28,0.704-0.395c0.128-0.063,0.304-0.124,0.528-0.182c0.224-0.057,0.462-0.108,0.715-0.154
		c0.252-0.046,0.516-0.085,0.79-0.117C7.192,112.414,7.449,112.398,7.692,112.398z M4.843,114.265c-0.199,0-0.31,0.093-0.331,0.277
		l-0.342,2.636c0,0.092,0.032,0.172,0.096,0.24c0.064,0.067,0.139,0.101,0.224,0.101h6.433c0.228,0,0.342-0.113,0.342-0.341
		l-0.342-2.636c-0.063-0.185-0.178-0.277-0.341-0.277H4.843z M5.344,119.62c0-0.156-0.059-0.297-0.176-0.421
		c-0.117-0.125-0.254-0.187-0.411-0.187c-0.164,0-0.302,0.062-0.416,0.187c-0.114,0.124-0.17,0.265-0.17,0.421
		c0,0.164,0.057,0.303,0.17,0.416c0.114,0.114,0.252,0.171,0.416,0.171c0.156,0,0.293-0.057,0.411-0.171
		C5.286,119.923,5.344,119.784,5.344,119.62z M9.484,113.742c0.178,0,0.267-0.085,0.267-0.256s-0.089-0.256-0.267-0.256H5.952
		c-0.178,0-0.267,0.085-0.267,0.256s0.089,0.256,0.267,0.256H9.484z M10.646,120.207c0.185,0,0.334-0.057,0.448-0.171
		c0.114-0.113,0.17-0.252,0.17-0.416c0-0.156-0.057-0.297-0.17-0.421c-0.114-0.125-0.263-0.187-0.448-0.187
		c-0.156,0-0.292,0.062-0.405,0.187c-0.114,0.124-0.171,0.265-0.171,0.421c0,0.164,0.057,0.303,0.171,0.416
		C10.355,120.15,10.49,120.207,10.646,120.207z"/>
</g>
</svg>
