<?xml version="1.0" encoding="utf-8"?>
<!-- Generator: Adobe Illustrator 15.0.0, SVG Export Plug-In . SVG Version: 6.00 Build 0)  -->
<!DOCTYPE svg PUBLIC "-//W3C//DTD SVG 1.1//EN" "http://www.w3.org/Graphics/SVG/1.1/DTD/svg11.dtd">
<svg version="1.1" id="图层_1" xmlns="http://www.w3.org/2000/svg" xmlns:xlink="http://www.w3.org/1999/xlink" x="0px" y="0px"
	 width="16.093px" height="15.418px" viewBox="0 29.378 16.093 15.418" enable-background="new 0 29.378 16.093 15.418"
	 xml:space="preserve">
<text transform="matrix(1 0 0 1 -69.3428 413.2813)" font-family="'ywl'" font-size="60">2</text>
<g>
	<path fill="#1C4B9E" d="M11.445,29.378c1.358,0,2.561,0.329,3.61,0.988c0.491,0.343,0.817,0.816,0.978,1.422l0.061,0.403
		c0,0.82-0.541,1.734-1.624,2.743c-0.686,0.544-1.573,1.078-2.662,1.603c-1.028,0.505-2.238,0.892-3.63,1.16l-0.423,0.04v0.03
		c0,2.299,0.437,3.798,1.311,4.497l0.141,0.021c0.457,0,0.868-0.804,1.23-2.41c0.074-0.438,0.121-0.655,0.141-0.655l1.169-0.252
		l0.021,0.021c-0.175,1.189-0.353,2.04-0.535,2.551c-0.127,0.504-0.417,1.112-0.867,1.825c-0.45,0.625-0.864,1.012-1.24,1.159
		c-0.35,0.182-0.619,0.272-0.807,0.272c-0.524-0.04-1.092-0.316-1.704-0.827c-0.531-0.518-1.025-1.502-1.482-2.954
		c-0.296-1.028-0.444-2.051-0.444-3.065H4.668c-1.513,0-2.787-0.38-3.822-1.14C0.282,36.245,0,35.684,0,35.126
		c0-1.197,1.015-2.457,3.045-3.782c1.237-0.618,1.959-0.927,2.168-0.927l0.192,0.604c-2.01,1.022-3.015,1.96-3.015,2.813
		c0,0.431,0.343,0.811,1.028,1.14c0.484,0.182,0.941,0.272,1.371,0.272c0.054-1.196,0.38-2.45,0.978-3.762
		c0.639-1.351,1.54-2.026,2.703-2.026c0.396,0,0.881,0.282,1.452,0.847c0.39,0.417,0.686,0.904,0.888,1.462
		c-0.323,0.108-0.555,0.162-0.696,0.162c-0.195-0.195-0.383-0.293-0.565-0.293c-0.383,0-0.756,0.366-1.119,1.099
		c-0.188,0.417-0.366,1.029-0.535,1.836l-0.061,0.483c0.928-0.201,1.694-0.434,2.299-0.695c0.579-0.235,1.17-0.558,1.775-0.968
		c0.914-0.76,1.371-1.345,1.371-1.755v-0.081c0-0.235-0.215-0.551-0.645-0.947c-0.242-0.162-0.602-0.31-1.079-0.444l-0.151-0.767
		l0.021-0.02H11.445z"/>
</g>
</svg>
