<?xml version="1.0" encoding="utf-8"?>
<!-- Generator: Adobe Illustrator 15.0.0, SVG Export Plug-In . SVG Version: 6.00 Build 0)  -->
<!DOCTYPE svg PUBLIC "-//W3C//DTD SVG 1.1//EN" "http://www.w3.org/Graphics/SVG/1.1/DTD/svg11.dtd">
<svg version="1.1" id="图层_1" xmlns="http://www.w3.org/2000/svg" xmlns:xlink="http://www.w3.org/1999/xlink" x="0px" y="0px"
	 width="134.637px" height="151.301px" viewBox="0 0 134.637 151.301" enable-background="new 0 0 134.637 151.301"
	 xml:space="preserve">
<path fill="#0A669E" d="M66.888,16.175c18.64-18.03,76.09-30.61,66,20c-3.8,0.53-7.16,1.5-10,3c-1.21-7.37,5.3-14.54,3-24
	c-5.04-20.72-39.47-0.06-48,8c6.97,7.69,14.05,15.28,21,23c-3.99,2.68-10.1,3.23-15,5c-4.75-6.25-10.67-11.33-16-17
	c-14.54,10.46-24.61,25.39-35,40c9.03,15.64,21.02,28.31,34,40c13.59-9.75,23.54-23.13,33-37c4.43,2.57,6.76,7.24,9,12
	c-8.99,12.34-18.55,24.12-31,33c8.9,8.99,23.84,25.14,40,21c19.99-5.11,0.47-43.39-6-53c2.01-4.99,3.85-10.15,8-13
	c8.26,15.43,25.7,56.18,5,70c-17.96,12-43.25-5.12-57-14c-14.17,6.84-42.74,27.93-60,12c-18.09-16.69-0.57-54.29,8-70
	c-5.98-16.4-15.57-30.65-15-51C1.917-13.015,49.288-0.334,66.888,16.175z M24.888,61.175c9.02-13.98,20.91-25.09,32-37
	c-9.69-4.22-24.79-22.87-41-18C-2.862,11.805,17.858,52.405,24.888,61.175 M56.888,125.175c-10.85-12.82-22.22-25.12-34-37
	c-3.99,13.26-22.79,36.11-13,51C20.548,155.385,47.888,130.895,56.888,125.175z"/>
<path fill="#C02823" d="M119.888,42.175c2.93-2.07,8.45-1.55,11-4c-1.57,17.1-12.59,33.41-20,48c-6.64-7.36-11.27-16.73-18-24
	c-6.91,1.76-13.28,4.06-20,6c-0.19,10.62,0.26,25.61,0,33c-5.33-0.33-8.76,1.24-13,2c0.75-11.08-1.59-19.08-1-30
	c-7.74,0.59-12.54,4.13-20,5c0-3.67,0-7.33,0-11c20.45-6.22,40.52-12.82,61-19c3.62,3.71,5.85,8.82,10,12
	C114.438,55.396,116.938,48.555,119.888,42.175z"/>
</svg>
