<?xml version="1.0" encoding="utf-8"?>
<!-- Generator: Adobe Illustrator 15.0.0, SVG Export Plug-In . SVG Version: 6.00 Build 0)  -->
<!DOCTYPE svg PUBLIC "-//W3C//DTD SVG 1.1//EN" "http://www.w3.org/Graphics/SVG/1.1/DTD/svg11.dtd">
<svg version="1.1" id="图层_1" xmlns="http://www.w3.org/2000/svg" xmlns:xlink="http://www.w3.org/1999/xlink" x="0px" y="0px"
	 width="15.825px" height="14.994px" viewBox="0 118.251 15.825 14.994" enable-background="new 0 118.251 15.825 14.994"
	 xml:space="preserve">
<g>
	<path fill="#9C6A5C" d="M0.079,131.405h15.667l0.079,0.069v0.722l-0.04,0.03v0.039l-0.445-0.039L0.297,131.89
		C0.099,131.87,0,131.834,0,131.781v-0.307L0.079,131.405z M15.785,132.454l0.04,0.039v0.673l-0.079,0.079H0.109l-0.069-0.079
		v-0.336l0.04-0.04v-0.03L15.785,132.454z M13.985,123.889l0.04,0.029h0.03c0,1.279-0.488,2.621-1.464,4.025
		c-0.89,0.963-1.728,1.54-2.512,1.731v0.939l-0.079,0.079H5.826l-0.079-0.079v-0.939c-1.392-0.481-2.493-1.435-3.303-2.858
		c-0.501-0.923-0.752-1.89-0.752-2.898l0.04-0.029H13.985z M4.055,118.251H4.55v0.03c-0.205,0.355-0.307,0.722-0.307,1.098v0.188
		c0,0.409,0.188,0.959,0.563,1.652l0.079,0.603c-0.099,0.851-0.211,1.276-0.336,1.276H4.095l-0.069-0.079
		c0.145-0.316,0.244-0.716,0.297-1.197c0-0.376-0.162-0.841-0.485-1.395l-0.119-0.86v-0.376
		C3.719,118.814,3.831,118.502,4.055,118.251z M7.705,118.251H8.16l0.069,0.069c-0.224,0.277-0.336,0.652-0.336,1.127
		c0,0.502,0.188,1.078,0.564,1.731l0.079,0.523v0.119c0,0.495-0.102,0.92-0.307,1.276H7.744l-0.04-0.04h-0.04
		c0.205-0.448,0.307-0.899,0.307-1.355c0-0.25-0.165-0.702-0.495-1.354c-0.072-0.343-0.109-0.656-0.109-0.939
		C7.368,118.881,7.48,118.495,7.705,118.251z M11.206,118.251h0.485l0.079,0.069c-0.231,0.297-0.346,0.673-0.346,1.127
		c0,0.488,0.188,1.052,0.564,1.691l0.079,0.524v0.307c-0.073,0.673-0.171,1.049-0.297,1.128h-0.495l-0.04-0.04h-0.03
		c0.198-0.429,0.297-0.854,0.297-1.276v-0.039c0-0.35-0.138-0.752-0.416-1.207c-0.125-0.382-0.188-0.781-0.188-1.196
		C10.899,119.003,11.001,118.641,11.206,118.251z"/>
</g>
</svg>
