<?xml version="1.0" encoding="utf-8"?>
<!-- Generator: Adobe Illustrator 15.0.0, SVG Export Plug-In . SVG Version: 6.00 Build 0)  -->
<!DOCTYPE svg PUBLIC "-//W3C//DTD SVG 1.1//EN" "http://www.w3.org/Graphics/SVG/1.1/DTD/svg11.dtd">
<svg version="1.1" id="图层_1" xmlns="http://www.w3.org/2000/svg" xmlns:xlink="http://www.w3.org/1999/xlink" x="0px" y="0px"
	 width="128.028px" height="194.976px" viewBox="0 0 128.028 194.976" enable-background="new 0 0 128.028 194.976"
	 xml:space="preserve">
<g>
	<path fill-rule="evenodd" clip-rule="evenodd" fill="#FFFFFF" d="M1.044,0C43.372,0,85.7,0,128.028,0c0,64.992,0,129.983,0,194.976
		c-42.662,0-85.323,0-127.984,0c0-63.992,0-127.984,0-191.976C-0.042,1.581-0.121,0.168,1.044,0z M83.034,153.98
		c0.714,6.454,2.495,16.02,1,22.997c-1.135,5.298-7.689,8.86-3.999,10.999c0.738-1.595,4.894,0.229,3.999-3
		c3.766-1.234,6.146-3.853,8.999-5.999c13.249-7.415,19.36-21.968,22.997-38.995c3.6-1.733,2.49-8.175,3-12.998
		c-4.314,0.019-3.685,4.98-7.999,4.999c-0.451-5.45,1.782-8.216,1-13.998c2.292-13.674,1.383-31.768-4-40.995
		c-1.715-7.284-4.943-13.054-9.999-16.998c0.785,10.562,4.115,30.223-4.999,33.996c-5.389-21.274-7.376-45.95-16.998-62.992
		c-6.675-8.656-11.22-19.443-21.998-23.997c-0.507,10.491-2.795,19.203-3,29.996c-6.799,30.863-33.435,41.889-41.995,70.991
		c-8.086,17.639-3.161,45.65,7.999,55.993c2.883,3.115,3.953,8.046,7.999,9.999c0.903,1.763,2.236,3.096,4,3.999
		c0.319,1.158,3.094,4.71,4,2c-3.117-3.549-4.542-8.789-6-13.998c0.421-7.578,0.709-15.289,5-18.998
		c10.345-2.68,9.966,5.365,16.998,5.999c3.421,0.088,0.579-6.086,4-5.999c8.666,0,17.332,0,25.997,0
		c2.106,2.561,2.126,7.206,4,9.999C83.034,155.98,83.034,154.98,83.034,153.98z"/>
	<path fill-rule="evenodd" clip-rule="evenodd" fill="#C23921" d="M51.038,36.995c0.205-10.793,2.492-19.505,3-29.996
		c10.777,4.554,15.322,15.341,21.998,23.997C67.897,25.135,64.58,14.454,56.037,8.999c-1.587,9.078-2.424,18.906-4,27.996
		C51.704,36.995,51.371,36.995,51.038,36.995z"/>
	<path fill-rule="evenodd" clip-rule="evenodd" fill="#AF0102" d="M76.035,30.996c9.621,17.042,11.608,41.718,16.998,62.992
		c9.114-3.773,5.784-23.434,4.999-33.996c5.056,3.943,8.284,9.713,9.999,16.998c0.536,7.218,3.513,11.843,4,20.998
		c0.852,16.011-9.348,37.253,1,35.996c1.72,0.395,2.563-1.484,2.999,0c-1.653,11.012-5.237,20.093-8.999,28.996
		c-2.59-1.696,1.938-4.649,1-7.999c-13.056-10.187,0.09-37.582-4.999-50.993c-4.2,1.466-2.922,8.41-6.999,9.998
		c-21.485-12.844-10.638-58.02-33.996-68.991C52.208,87.16,8.718,95.664,11.042,149.981c-6.169-11.209-5.149-28.495-2-41.995
		c8.56-29.103,35.196-40.128,41.995-70.991c0.333,0,0.667,0,1,0c1.575-9.09,2.413-18.918,4-27.996
		C64.58,14.454,67.897,25.135,76.035,30.996z"/>
	<path fill-rule="evenodd" clip-rule="evenodd" fill="#C23921" d="M108.03,76.99c5.383,9.228,6.292,27.321,4,40.995
		c-1.047,4.313-6.572,14.939,1,15.998c-10.348,1.258-0.148-19.984-1-35.996C111.543,88.833,108.566,84.208,108.03,76.99z"/>
	<path fill-rule="evenodd" clip-rule="evenodd" fill="#B9170F" d="M9.043,107.986c-3.149,13.5-4.169,30.786,2,41.995
		C8.718,95.664,52.208,87.16,62.036,44.994c23.358,10.972,12.511,56.147,33.996,68.991c4.077-1.588,2.799-8.532,6.999-9.998
		c5.089,13.411-8.057,40.807,4.999,50.993c0.938,3.35-3.59,6.303-1,7.999c3.762-8.903,7.346-17.984,8.999-28.996
		c-0.437-1.484-1.279,0.395-2.999,0c3.929-6.576,4.939,1.349,2.999,5.999c-3.637,17.027-9.748,31.58-22.997,38.995
		c3.701-4.964,8.303-9.028,9.999-15.998c1.97-1.696,2.683-4.649,2.999-7.999c-5.067-4.931-6.952-13.045-5.999-23.997
		c2.332-5.334,0.921-14.41,3-19.997c-3.756-2.778-2.371,6.497-7.999,4.999c-9.434-2.564-10.871-13.126-13.999-21.997
		c-2.634-19.363-5.84-38.155-18.998-46.994C56.676,66.631,45.78,80.732,34.04,93.988c-8.703,10.628-17.439,21.223-19.998,37.995
		c-2.628,10.412-0.636,24.547,3,31.996C5.882,153.637,0.957,125.625,9.043,107.986z"/>
	<path fill-rule="evenodd" clip-rule="evenodd" fill="#FA6806" d="M34.04,93.988c3.419-2.581,6.418-5.58,8.999-8.999
		c12.02,6.859,17.248-6.359,22.997-11.999c2.05,3.95,3.421,8.578,5,12.999c3.988,0.549,3.011,0.549,6.999,0
		c1.7,1.966,1.149,6.183,3,7.999c3.127,8.871,4.564,19.433,13.999,21.997c5.628,1.498,4.243-7.777,7.999-4.999
		c-2.079,5.587-0.668,14.663-3,19.997c0-4.666,0-9.332,0-13.998c-4.889,1.309-12.155-1.087-21.997,0
		c-5.925-11.739-8.162-27.167-11.999-40.995c-11.152,15.178-21.728,30.932-36.995,41.995c-2.611-0.389-5.486-0.514-7-2
		c-5.227,2.771-5.167,10.831-7.999,15.998C16.6,115.211,25.336,104.616,34.04,93.988z"/>
	<path fill-rule="evenodd" clip-rule="evenodd" fill="#FA3105" d="M34.04,93.988c11.74-13.256,22.637-27.357,27.997-46.994
		c13.158,8.839,16.363,27.631,18.998,46.994c-1.851-1.816-1.299-6.033-3-7.999c-3.988,0.549-3.011,0.549-6.999,0
		c-1.579-4.421-2.95-9.049-5-12.999c-5.75,5.64-10.978,18.858-22.997,11.999C40.458,88.408,37.458,91.408,34.04,93.988z"/>
	<path fill-rule="evenodd" clip-rule="evenodd" fill="#FDC816" d="M103.031,162.979c-1.696,6.97-6.298,11.034-9.999,15.998
		c-2.853,2.146-5.233,4.765-8.999,5.999c-2.816-0.627,1.529-7.467,2-10.998c3.49-26.156-12.541-54.184-25.997-67.992
		c-12.281,7.32-13.923,25.008-11.999,43.995c-3.34,0.007-2.65-4.017-5-5c-0.552-3.113-0.816-6.516-2-8.998
		c-0.476-4.427,1.375-4.973,0-7.999c-12.308,8.488-21.115,32.152-11.999,49.993c-1.763-0.903-3.096-2.236-4-3.999
		c-5.476-7.855-10.811-15.853-9.999-29.996c1.667,0,3.333,0,5,0c5.759-11.331,11.298-30.955,26.997-25.997
		c4.928-3.738,6.372-10.959,11.999-13.998c16.25,8.448,15.482,24.116,33.996,31.996c0,2.333,0,4.666,0,6.999
		c5.835-0.14,6.864,8.632,11.999,11.998C104.878,158.161,102.764,159.38,103.031,162.979z"/>
	<path fill-rule="evenodd" clip-rule="evenodd" fill="#FDE65F" d="M43.039,144.981c2.35,0.983,1.66,5.007,5,5
		c-1.924-18.987-0.282-36.675,11.999-43.995c13.456,13.809,29.486,41.836,25.997,67.992c-0.471,3.531-4.816,10.371-2,10.998
		c0.895,3.229-3.261,1.405-3.999,3c-3.69-2.139,2.864-5.701,3.999-10.999c1.496-6.978-0.286-16.543-1-22.997
		c0.319-2.318-0.161-3.839-1-4.999c-2.782-12.216-7.277-22.719-13.998-30.996c-5,0-9.999,0-14.999,0
		c-6.758,7.571-3.99,20.165-4,32.996C44.663,151.356,44.231,147.789,43.039,144.981z"/>
	<path fill-rule="evenodd" clip-rule="evenodd" fill="#FDE65F" d="M41.039,135.983c-2.208-0.125-0.425-4.242-1-6
		c-4.866,4.466-8.734,9.931-10.999,16.998c-1.915,4.437-4.779,13.194-2,18.998c1.457,5.209,2.882,10.449,6,13.998
		c-0.905,2.71-3.681-0.842-4-2c-9.116-17.841-0.31-41.505,11.999-49.993C42.415,131.011,40.563,131.557,41.039,135.983z"/>
	<path fill-rule="evenodd" clip-rule="evenodd" fill="#FD9B09" d="M25.041,173.979c-4.046-1.953-5.116-6.884-7.999-9.999
		c-3.636-7.449-5.628-21.584-3-31.996c2.832-5.167,2.772-13.227,7.999-15.998c1.513,1.486,4.389,1.611,7,2
		c15.268-11.063,25.843-26.817,36.995-41.995c3.837,13.828,6.074,29.255,11.999,40.995c9.842-1.087,17.108,1.309,21.997,0
		c0,4.666,0,9.332,0,13.998c-0.953,10.952,0.932,19.066,5.999,23.997c-0.316,3.35-1.029,6.303-2.999,7.999
		c-0.268-3.6,1.847-4.818,2-7.999c-5.135-3.366-6.164-12.138-11.999-11.998c0-2.333,0-4.666,0-6.999
		c-18.513-7.88-17.746-23.548-33.996-31.996c-5.626,3.039-7.071,10.26-11.999,13.998c-15.698-4.958-21.237,14.666-26.997,25.997
		c-1.667,0-3.333,0-5,0C14.23,158.126,19.565,166.123,25.041,173.979z"/>
	<path fill-rule="evenodd" clip-rule="evenodd" fill="#FEF5A5" d="M41.039,135.983c1.183,2.482,1.447,5.885,2,8.998
		c1.192,2.808,1.625,6.375,5.999,6c0.01-12.831-2.531-24.805,4-32.996c4.325-5.217,9.826-4.824,14.999,0
		c6.721,8.277,11.216,18.78,13.998,30.996c-2.849-4.816-3.588-11.743-6.999-15.998c-8.333,0-16.665,0-24.997,0
		c-1.004,5.995,2.205,16.203-2,18.998c-7.142-2.19-6.863-11.802-9.999-17.998c-3.632,3.7-6.051,8.613-8.999,12.998
		c2.264-7.067,6.132-12.532,10.999-16.998C40.614,131.741,38.831,135.858,41.039,135.983z"/>
	<path fill-rule="evenodd" clip-rule="evenodd" fill="#E8BDBB" d="M112.03,117.985c0.782,5.782-1.451,8.548-1,13.998
		c4.314-0.019,3.685-4.98,7.999-4.999c-0.51,4.823,0.6,11.265-3,12.998c1.94-4.65,0.93-12.575-2.999-5.999
		C105.458,132.925,110.983,122.298,112.03,117.985z"/>
	<path fill-rule="evenodd" clip-rule="evenodd" fill="#FCF5DE" d="M27.041,165.979c-2.779-5.804,0.085-14.562,2-18.998
		c2.948-4.385,5.366-9.298,8.999-12.998c3.136,6.196,2.857,15.808,9.999,17.998c4.204-2.795,0.996-13.003,2-18.998
		c3.161-13.793,15.559-14.998,24.997,0c3.411,4.255,4.15,11.182,6.999,15.998c0.839,1.16,1.319,2.681,1,4.999c0,1,0,2,0,3
		c-1.873-2.793-1.752-7.562-4-9.999c-7.532-8.169-22.476-8.579-25.997,0c-1.455,3.545-0.579,6.087-4,5.999
		c-7.032-0.634-6.652-8.679-16.998-5.999C27.75,150.69,27.461,158.401,27.041,165.979z"/>
</g>
</svg>
