<?xml version="1.0" encoding="utf-8"?>
<!-- Generator: Adobe Illustrator 15.0.0, SVG Export Plug-In . SVG Version: 6.00 Build 0)  -->
<!DOCTYPE svg PUBLIC "-//W3C//DTD SVG 1.1//EN" "http://www.w3.org/Graphics/SVG/1.1/DTD/svg11.dtd">
<svg version="1.1" id="图层_1" xmlns="http://www.w3.org/2000/svg" xmlns:xlink="http://www.w3.org/1999/xlink" x="0px" y="0px"
	 width="119.866px" height="181.784px" viewBox="0 0 119.866 181.784" enable-background="new 0 0 119.866 181.784"
	 xml:space="preserve">
<g>
	<path fill="#6DC5C5" d="M84.124,46.743c14.751,18.145,21.156,75.792-3.513,19.794C59.538,18.702,68.749,0,68.749,0
		C46.777,14.321,49.703,47.732,54.62,58.29c4.918,10.557-13.699-17.815-39.689-16.166c29.503,34.64,21.945,71.59,9.834,71.59
		c-5.971,0-13.698-2.311-19.582-16.342c-2.063,4.364-6.08,11.495-5.004,29.537c1.454,24.377,15.636,43.703,37.476,51.296
		c5.908,2.053,12.378,3.25,19.309,3.453c11.938-1.58,19.374-3.01,35.182-5.432c6.962-2.361,11.729-7.096,13.207-8.485
		C139.069,136.063,106.444,60.719,84.124,46.743z"/>
	
		<linearGradient id="SVGID_1_" gradientUnits="userSpaceOnUse" x1="62.8701" y1="155.3892" x2="62.8701" y2="284.4922" gradientTransform="matrix(1 0 0 -1 0 337.1729)">
		<stop  offset="0" style="stop-color:#113893"/>
		<stop  offset="1" style="stop-color:#53BFCA"/>
	</linearGradient>
	<path fill="url(#SVGID_1_)" d="M107.081,101.236c-12.651,29.789-39.979-41.372-41.339-48.555c-0.468,8.138-0.002,12.853,0,18.035
		c0.011,21.065-24.616-4.423-29.372-7.083c8.865,16.275,14.937,92.849-25.084,61.407c-1.817,24.893,15.002,53.39,46.085,56.744
		c10.245-1.1,23.592-3.299,35.064-5.719C119.5,163.599,118.342,132.165,107.081,101.236z"/>
	
		<linearGradient id="SVGID_2_" gradientUnits="userSpaceOnUse" x1="64.6987" y1="250.062" x2="64.6987" y2="155.5186" gradientTransform="matrix(1 0 0 -1 0 337.1729)">
		<stop  offset="0" style="stop-color:#2871B9"/>
		<stop  offset="1" style="stop-color:#193E97"/>
	</linearGradient>
	<path fill="url(#SVGID_2_)" d="M100.097,125.09c-20.092,0.028-36.67-16.554-49.16-37.979c5.781,23.27,2.457,70.935-29.937,60.864
		c7.863,28.035,32.583,33.576,35.964,33.679c10.182-1.246,25.812-3.721,35.471-5.59C114.504,160.229,110.285,125.076,100.097,125.09
		z"/>
	
		<linearGradient id="SVGID_3_" gradientUnits="userSpaceOnUse" x1="69.3838" y1="155.4912" x2="69.3838" y2="215.0596" gradientTransform="matrix(1 0 0 -1 0 337.1729)">
		<stop  offset="0.2788" style="stop-color:#000000"/>
		<stop  offset="1" style="stop-color:#193E97"/>
	</linearGradient>
	<path fill="url(#SVGID_3_)" d="M102.739,156.051c0.934-8.784-6.648-16.839-13.858-20.379c2.149,5.423,4.283,16.871-3,16.199
		c-11.942-1.099-19.435-20.453-21.265-29.758c-1.417,20.957,4.405,24.92,2.532,31.078c-0.787,2.586-10.302-1.76-12.41-12.757
		c-3.278,21.554,11.012,24.317,5.854,30.13c-3.512,3.959-18.732-0.439-24.639-6.235c4.285,8.502,11.836,14.881,21.148,17.315
		c1.418,0.041,2.848,0.053,4.302,0.008c10.69-0.328,21.334-1.459,30.745-5.426C98.072,171.983,101.738,165.461,102.739,156.051z"/>
</g>
</svg>
