<?xml version="1.0" encoding="utf-8"?>
<!-- Generator: Adobe Illustrator 15.0.0, SVG Export Plug-In . SVG Version: 6.00 Build 0)  -->
<!DOCTYPE svg PUBLIC "-//W3C//DTD SVG 1.1//EN" "http://www.w3.org/Graphics/SVG/1.1/DTD/svg11.dtd">
<svg version="1.1" id="图层_1" xmlns="http://www.w3.org/2000/svg" xmlns:xlink="http://www.w3.org/1999/xlink" x="0px" y="0px"
	 width="109.254px" height="140.922px" viewBox="0 0 109.254 140.922" enable-background="new 0 0 109.254 140.922"
	 xml:space="preserve">
<g>
	<path fill="#A31F24" d="M91.539,47.685c3.019,6.5,8.654,33.455,0.807,28.102c-10.297-7.023-18.063-49.225-6.799-75.785
		C35.349,1.614,8.64,36.786,14.676,77.124c0.388,2.596-8.149,0.572-14.589-7.646c-0.905,25.521,4.989,50.494,30.484,65.955
		c1.623,0.984,3.46,1.828,5.463,2.531c12.345,0.193,24.821,0.24,40.937-0.283c5.949-2.043,11.917-5.273,17.185-10.277
		C112.049,110.403,117.355,58.722,91.539,47.685z"/>
	
		<linearGradient id="SVGID_1_" gradientUnits="userSpaceOnUse" x1="54.7563" y1="-354.3208" x2="54.7563" y2="-236.3818" gradientTransform="matrix(1 0 0 -1 0 -216.2285)">
		<stop  offset="0" style="stop-color:#EFEA3C"/>
		<stop  offset="1" style="stop-color:#E7211A"/>
	</linearGradient>
	<path fill="url(#SVGID_1_)" d="M101.822,88.19c-7.427,12.309-19.114-2.596-21.917-8.77c-8.562-18.869-13.717-33.457-7.078-59.268
		c-10.061,2.678-18.216,10.594-25.353,22.178c-4.828,7.838-6.438-3.25-2.214-11.279c-12.212,6.424-18.202,17.393-20.524,33.072
		c-1.391,9.398,3.358,36.729-17.067,28.986c7.006,33.814,26.369,44.148,28.332,44.842c10.064,0.35,26.563-0.033,41.041-0.299
		C78.039,137.312,102.658,121.956,101.822,88.19z"/>
	
		<linearGradient id="SVGID_2_" gradientUnits="userSpaceOnUse" x1="54.3677" y1="-262.8486" x2="54.3677" y2="-354.7798" gradientTransform="matrix(1 0 0 -1 0 -216.2285)">
		<stop  offset="0" style="stop-color:#F08419"/>
		<stop  offset="1" style="stop-color:#F5E42F"/>
	</linearGradient>
	<path fill="url(#SVGID_2_)" d="M77.042,137.655c9.437-12.02,17.956-27.996,14.699-39.215c-1.509,5.162-7.999,25.092-15.695,9.463
		c-2.971-6.033-6.338-21.793-3.018-38.713c-4.527,3.441-6.94,10.264-7.708,5.184c-1.427-9.424-1.5-18.748-0.206-27.754
		c-18.174,5.494-31.327,18.338-36.152,34.91c-1.904,6.535-3.132,14.254-3.469,22.217c-0.146,3.463-4.53,2.58-9.208-0.861
		c5.433,24.615,19.055,34.826,19.798,35.088C49.587,139.065,60.05,138.407,77.042,137.655z"/>
	
		<linearGradient id="SVGID_3_" gradientUnits="userSpaceOnUse" x1="54.6167" y1="-357.1519" x2="54.6167" y2="-285.8428" gradientTransform="matrix(1 0 0 -1 0 -216.2285)">
		<stop  offset="0.2788" style="stop-color:#FFFFFF"/>
		<stop  offset="1" style="stop-color:#F5E42F"/>
	</linearGradient>
	<path fill="url(#SVGID_3_)" d="M76.908,137.7c6.584-15.84-6.293-33.428-9.714-39.355c-1.006,3.824-4.824,6.482-6.841,4.779
		c-5.886-4.971-5.836-19.309-0.235-33.51C45.833,75.382,37.923,86.567,33.49,97.579c-4.704,11.68-3.938,27.955,2.592,40.395
		c2.286,0.799,4.781,1.422,7.423,1.854C45.324,140.124,61.034,143.13,76.908,137.7z"/>
</g>
</svg>
