<?xml version="1.0" encoding="utf-8"?>
<!-- Generator: Adobe Illustrator 15.0.0, SVG Export Plug-In . SVG Version: 6.00 Build 0)  -->
<!DOCTYPE svg PUBLIC "-//W3C//DTD SVG 1.1//EN" "http://www.w3.org/Graphics/SVG/1.1/DTD/svg11.dtd">
<svg version="1.1" id="图层_1" xmlns="http://www.w3.org/2000/svg" xmlns:xlink="http://www.w3.org/1999/xlink" x="0px" y="0px"
	 width="17.225px" height="15.609px" viewBox="0 108.405 17.225 15.609" enable-background="new 0 108.405 17.225 15.609"
	 xml:space="preserve">
<g>
	<path fill="#E60012" d="M5.155,111.945c0.523,0,0.977,0.044,1.361,0.133l-1.173,3.021H5.321c-0.111-0.066-0.225-0.1-0.343-0.1h-0.1
		c-0.42,0-0.874,0.306-1.36,0.918c-0.192,0.31-0.288,0.604-0.288,0.885c0,0.457,0.339,0.752,1.018,0.885l-0.675,2.18
		c-0.059,0.191-0.103,0.287-0.133,0.287c-1.445,0-2.496-0.692-3.153-2.079C0.095,117.542,0,117.019,0,116.502
		c0-1.512,0.653-2.743,1.958-3.694C2.88,112.233,3.946,111.945,5.155,111.945z M9.049,108.405l2.987,0.022l0.022,0.011
		c-0.324,0.878-0.512,1.354-0.564,1.427H9.049l-3.96,10.289l-1.128-0.122l4.326-11.627H9.049z M12.899,110.197l0.033,0.033
		l-0.553,1.35H9.934l-3.861,10.122l-0.111,0.022l-1.04,0.045L4.9,121.746v-0.022l4.403-11.527H12.899L12.899,110.197z
		 M10.211,111.955L14.226,112c0.715,0.251,1.368,0.648,1.958,1.194l0.387,0.454c0.435,0.656,0.653,1.235,0.653,1.736v0.753
		c0,0.59-0.28,1.319-0.841,2.189c-0.767,0.944-1.571,1.564-2.412,1.859l-3.242-0.033l-1.427,3.86H9.281l-3.629-0.1l-0.022-0.011
		l4.558-11.948H10.211z M11.748,117.598l0.166,0.011h0.199c0.605,0,1.136-0.299,1.593-0.896c0.177-0.295,0.265-0.56,0.265-0.796
		v-0.056c0-0.339-0.184-0.567-0.553-0.686l-0.266-0.044h-0.276c-0.155,0-0.232,0.044-0.232,0.133l-0.918,2.334H11.748
		L11.748,117.598z"/>
</g>
</svg>
