<?xml version="1.0" encoding="utf-8"?>
<!-- Generator: Adobe Illustrator 15.0.0, SVG Export Plug-In . SVG Version: 6.00 Build 0)  -->
<!DOCTYPE svg PUBLIC "-//W3C//DTD SVG 1.1//EN" "http://www.w3.org/Graphics/SVG/1.1/DTD/svg11.dtd">
<svg version="1.1" id="图层_1" xmlns="http://www.w3.org/2000/svg" xmlns:xlink="http://www.w3.org/1999/xlink" x="0px" y="0px"
	 width="25.438px" height="18px" viewBox="0 0 25.438 18" enable-background="new 0 0 25.438 18" xml:space="preserve">
<g id="XMLID_2_">
	<path fill="#203969" d="M24.895,13.965c-0.303-0.356-0.865-0.621-1.339-0.907c-3.352-2.028-6.844-3.879-10.021-5.918
		c0.004-0.77,0.021-1.217-0.13-1.599c-0.435-1.098-2.092-0.918-2.073-2.419c0.02-1.637,2.245-1.821,2.765-0.604
		c0.156,0.366,0.06,0.69,0.173,0.95c0.163,0.374,0.729,0.642,1.209,0.389c1.015-0.532,0.014-2.34-0.475-2.851
		c-0.346-0.362-0.75-0.704-1.296-0.864c-2.281-0.668-4.076,1.145-4.061,3.024c0.009,1.127,0.537,1.878,1.124,2.375
		c0.653,0.555,1.398,0.445,1.123,1.642c-3.32,2.051-6.62,3.825-9.936,5.832c-0.47,0.285-1.053,0.543-1.382,0.907
		c-1.136,1.255-0.481,3.454,1.037,3.931c0.677,0.213,1.69,0.13,2.678,0.13h16.847c1.025,0,2.064,0.089,2.722-0.13
		C25.37,17.351,25.963,15.22,24.895,13.965z M21.439,16.211H4.074c-1.061,0-2.283,0.24-2.333-0.647
		c-0.031-0.55,0.674-0.794,1.166-1.08c3.35-1.95,6.484-3.819,9.806-5.745c0.008-0.05,0.043-0.024,0.043,0
		c3.371,1.913,6.407,3.801,9.806,5.788c0.446,0.261,1.175,0.506,1.166,1.037C23.715,16.422,22.349,16.211,21.439,16.211z"/>
	<path fill="#FFFFFF" d="M23.729,15.563c-0.014,0.858-1.38,0.647-2.289,0.647H4.074c-1.061,0-2.283,0.24-2.333-0.647
		c-0.031-0.55,0.674-0.794,1.166-1.08c3.35-1.95,6.484-3.819,9.806-5.745c0.008-0.05,0.043-0.024,0.043,0
		c3.371,1.913,6.407,3.801,9.806,5.788C23.009,14.787,23.737,15.032,23.729,15.563z"/>
</g>
</svg>
