<?xml version="1.0" encoding="utf-8"?>
<!-- Generator: Adobe Illustrator 15.0.0, SVG Export Plug-In . SVG Version: 6.00 Build 0)  -->
<!DOCTYPE svg PUBLIC "-//W3C//DTD SVG 1.1//EN" "http://www.w3.org/Graphics/SVG/1.1/DTD/svg11.dtd">
<svg version="1.1" id="图层_1" xmlns="http://www.w3.org/2000/svg" xmlns:xlink="http://www.w3.org/1999/xlink" x="0px" y="0px"
	 width="14.211px" height="16.13px" viewBox="0 0 14.211 16.13" enable-background="new 0 0 14.211 16.13" xml:space="preserve">
<g>
	<g id="XMLID_2_">
		<g>
			<path fill="#6A6060" d="M14.035,11.861c-1.137,1.494-2.486,2.779-3.63,4.27c-0.132-0.083-0.256-0.173-0.373-0.27l0.093-0.097
				c0.077,0.066,0.153,0.105,0.227,0.098c0.017-0.001,0.347-0.386,0.43-0.481c1.031-1.2,2.251-2.655,3.161-3.592L14.035,11.861z"/>
			<path fill="#271F1F" d="M12.815,5.895c-0.944-1.144-1.925-2.254-3.32-2.947c1.264-1.642,4.118-0.715,3.857,1.607
				C13.294,5.086,13.042,5.43,12.815,5.895z"/>
			<path fill="#6A6060" d="M12.281,11.039c0.192,0,0.303-0.563,0.534-0.589c0.356-0.04,1.015,1.154,1.396,1.18
				c-0.059,0.078-0.117,0.154-0.176,0.231l-0.093-0.072c-0.28-0.452-0.72-0.743-1.127-1.07c-0.954,1.211-1.985,2.346-2.981,3.518
				l-0.098-0.083c0.049-0.059,0.081-0.114,0.078-0.167c0-0.104-0.137-0.23-0.314-0.362l0.144-0.067
				c0.103,0.08,0.213,0.153,0.332,0.217c0.728-0.883,1.53-1.688,2.198-2.627c-0.046-0.062-0.1-0.117-0.161-0.166l0.132-0.054
				C12.208,10.99,12.262,11.039,12.281,11.039z"/>
			<path fill="#6A6060" d="M9.834,14.236c0.996-1.172,2.027-2.307,2.981-3.518c0.407,0.327,0.847,0.618,1.127,1.07
				c-0.91,0.937-2.13,2.392-3.161,3.592c-0.083,0.096-0.413,0.48-0.43,0.481c-0.073,0.008-0.149-0.031-0.227-0.098
				c-0.288-0.235-0.605-0.82-0.845-0.867C9.464,14.675,9.648,14.455,9.834,14.236z"/>
			<path fill="#6A6060" d="M9.834,14.236c-0.186,0.219-0.37,0.439-0.554,0.661c0.239,0.047,0.557,0.632,0.845,0.867l-0.093,0.097
				c-0.354-0.289-0.659-0.628-0.967-0.964c-0.034-0.222,0.469-0.507,0.671-0.744L9.834,14.236z"/>
			<path fill="#6A6060" d="M8.744,12.807c-1.022,0.387-2.135-0.116-2.572-0.804c0.944-1.074,1.815-2.221,2.732-3.322
				C9.054,8.8,9.065,9.055,9.334,9.057c0.115-0.198-0.119-0.434-0.161-0.644c0.203-0.423,0.559-0.692,0.803-1.072
				c0.63,0.312,1.052,1.506,1.181,2.305c0.034,0.215-0.034,0.442,0.054,0.643c0.151,0.356,0.534,0.479,0.803,0.691
				c0.062,0.049,0.115,0.104,0.161,0.166c-0.668,0.939-1.471,1.744-2.198,2.627c-0.119-0.063-0.229-0.137-0.332-0.217
				C9.329,13.32,9.07,13.031,8.744,12.807z"/>
			<path fill="#6A6060" d="M7.082,7.717C7.004,7.388,5.895,6.626,5.958,6.164C5.984,5.96,6.119,5.847,6.333,5.841
				c0.534-0.016,0.85,1.071,1.232,1.233C7.458,7.341,7.224,7.483,7.082,7.717z"/>
			<path fill="#6A6060" d="M5.958,9.057c-0.127,0.194-0.264,0.38-0.43,0.535C5.023,9.08,4.226,8.859,4.082,7.985
				C4.884,7.579,5.355,8.746,5.958,9.057z"/>
			<path fill="#6A6060" d="M6.226,8.681C6.012,8.051,3.884,7.17,4.94,6.484c0.722,0.404,1.132,1.117,1.769,1.607
				C6.595,8.335,6.448,8.545,6.226,8.681z"/>
			<path fill="#6A6060" d="M5.209,9.968c-0.237,0.157-0.244,0.63-0.483,0.643C4.599,10.617,3.498,9.472,3.76,9.164
				C4.489,8.984,4.672,9.78,5.209,9.968z"/>
			<path fill="#271F1F" d="M6.333,5.841C6.119,5.847,5.984,5.96,5.958,6.164C5.895,6.626,7.004,7.388,7.082,7.717
				c0.142-0.234,0.376-0.376,0.483-0.643C7.183,6.913,6.867,5.826,6.333,5.841z M5.958,9.057C5.355,8.746,4.884,7.579,4.082,7.985
				C4.226,8.859,5.023,9.08,5.528,9.592C5.694,9.437,5.831,9.251,5.958,9.057z M4.94,6.484C3.884,7.17,6.012,8.051,6.226,8.681
				c0.223-0.136,0.369-0.346,0.483-0.59C6.072,7.601,5.662,6.888,4.94,6.484z M5.209,9.968C4.672,9.78,4.489,8.984,3.76,9.164
				c-0.262,0.309,0.839,1.453,0.966,1.447C4.965,10.598,4.972,10.125,5.209,9.968z M9.28,3.163c0.879,1.176,1.938,2.171,3.323,2.84
				c-0.425,0.382-1.171,0.72-1.93,0.589c-0.223,0.137-0.352,0.365-0.537,0.537c0.562,0.457,1.005,1.398,1.179,2.303
				c0.139,0.715-0.008,0.71,0.536,1.18c0.015,0.012,0.171,0.192,0.293,0.315l-0.132,0.054c-0.269-0.213-0.651-0.335-0.803-0.691
				c-0.088-0.2-0.02-0.428-0.054-0.643c-0.129-0.799-0.551-1.993-1.181-2.305c-0.244,0.38-0.6,0.649-0.803,1.072
				c0.042,0.21,0.276,0.445,0.161,0.644C9.065,9.055,9.054,8.8,8.904,8.681c-0.917,1.102-1.788,2.248-2.732,3.322
				c0.438,0.688,1.55,1.19,2.572,0.804c0.326,0.224,0.585,0.513,0.899,0.749L9.5,13.624c-0.298-0.217-0.71-0.445-0.81-0.602
				c-0.915,0.253-1.599,0.029-2.196-0.375c-0.119-0.081-0.414-0.43-0.429-0.429c-0.486,0.009-0.9,1.999-2.09,1.501
				c-0.312,0.506-1.087,1.236-1.875,0.75c0.64-0.181,1.266-0.377,1.608-0.857c-0.971-1.087,0.318-2.132,0.856-2.84
				c-0.288-0.578-1.214-0.778-0.964-1.715c0.798-0.494,1.19,0.565,1.767,0.804C5.05,9.128,3.412,8.742,4.135,7.664
				C5.23,7.64,5.372,8.571,6.119,8.896c-0.374-0.938-1.848-1.04-1.608-2.412c1.161-0.468,1.557,1.087,2.356,1.501
				C6.821,7.217,5.611,6.898,5.851,5.841c0.842-0.597,1.358,0.567,1.769,1.072c0.549-0.361,0.856-0.965,1.285-1.447
				C8.741,4.597,8.904,3.664,9.28,3.163z"/>
			<path fill="#6A6060" d="M3.243,7.389c-0.362,0.189-1,0.139-1.072-0.215c-0.122-0.604,0.966-0.751,1.5-0.428l0.066,0.135
				C3.544,6.978,3.509,7.25,3.243,7.389z"/>
			<path fill="#FFFFFF" d="M1.857,4.983c0.007-0.66,0.005-1.037,0-1.702C3.211,2.855,3.107,5.215,1.857,4.983z"/>
			<path fill="#6A6060" d="M1.857,4.983c1.25,0.232,1.354-2.128,0-1.702C1.862,3.946,1.865,4.323,1.857,4.983z M1.617,5.466
				C0.84,5.314,0.089,4.601,0.331,3.644C0.498,2.986,1.244,2.583,1.563,2.09C1.604,1.407,1.48,0.888,1.51,0.215
				c0.224-0.218,0.803-0.299,1.125-0.107c0.556,0.877-0.465,1.602-0.91,2.144c-0.042,0.31,0.078,0.458,0.054,0.75
				c1.786-0.438,1.673,2.582,0,2.358c0.062,0.313,0.062,0.688,0.054,1.07C1.719,6.415,1.64,6.428,1.576,6.459L1.51,6.325
				C1.727,6.219,1.568,5.739,1.617,5.466z"/>
			<path fill="#6A6060" d="M1.576,6.459C1.381,6.556,1.347,6.828,1.082,6.967C0.719,7.156,0.081,7.106,0.009,6.752
				c-0.122-0.605,0.967-0.751,1.5-0.428L1.576,6.459z"/>
		</g>
		<g>
		</g>
	</g>
</g>
</svg>
