<?xml version="1.0" encoding="utf-8"?>
<!-- Generator: Adobe Illustrator 15.0.0, SVG Export Plug-In . SVG Version: 6.00 Build 0)  -->
<!DOCTYPE svg PUBLIC "-//W3C//DTD SVG 1.1//EN" "http://www.w3.org/Graphics/SVG/1.1/DTD/svg11.dtd">
<svg version="1.1" id="图层_1" xmlns="http://www.w3.org/2000/svg" xmlns:xlink="http://www.w3.org/1999/xlink" x="0px" y="0px"
	 width="15px" height="15px" viewBox="0 0 15 15" enable-background="new 0 0 15 15" xml:space="preserve">
<g>
	<path fill-rule="evenodd" clip-rule="evenodd" fill="#C90000" d="M7.155-0.001c0.229,0,0.46,0,0.689,0
		c2.179,0.156,3.787,1.012,4.966,2.19C13.988,3.368,14.844,4.977,15,7.155c0,0.229,0,0.459,0,0.689
		c-0.07,1.117-0.342,2.1-0.75,2.926c-0.397,0.805-0.897,1.555-1.53,2.129c-1.257,1.143-2.881,2.1-5.22,2.1
		c-2.349,0-3.965-0.961-5.22-2.115C1.019,11.726,0.187,10.069,0,7.845c0-0.23,0-0.461,0-0.689c0.139-2.153,1.005-3.74,2.175-4.951
		C3.291,1.05,5.056,0.126,7.155-0.001z M4.665,1.604c-0.741,0.373-1.376,0.828-1.89,1.38c-1.005,1.082-1.898,2.63-1.8,4.71
		c0.096,2.023,0.863,3.465,2.01,4.516c1.103,1.01,2.604,1.914,4.695,1.814c1.96-0.092,3.472-0.844,4.53-1.994
		c0.506-0.551,0.978-1.182,1.305-1.967c0.317-0.758,0.575-1.689,0.525-2.744c-0.096-2.001-0.901-3.508-2.01-4.515
		c-1.084-0.983-2.605-1.931-4.71-1.83C6.304,1.022,5.39,1.24,4.665,1.604z"/>
	<path fill-rule="evenodd" clip-rule="evenodd" fill="#FFFFFF" d="M7.32,0.975c2.105-0.101,3.626,0.847,4.71,1.83
		c1.108,1.007,1.914,2.514,2.01,4.515c0.05,1.055-0.208,1.986-0.525,2.744c-0.327,0.785-0.799,1.416-1.305,1.967
		c-1.059,1.15-2.57,1.902-4.53,1.994c-2.091,0.1-3.592-0.805-4.695-1.814c-1.146-1.051-1.914-2.492-2.01-4.516
		c-0.098-2.08,0.795-3.628,1.8-4.71c0.514-0.552,1.149-1.007,1.89-1.38C5.39,1.24,6.304,1.022,7.32,0.975z M3.165,3.749
		c0,1.115,0,2.23,0,3.346c0.98,0.01,2-0.02,2.955,0.015c0,0.325,0,0.649,0,0.976c-0.985,0-1.97,0-2.955,0
		c0.01,1.215-0.02,2.469,0.015,3.66c1.355,0,2.71,0,4.065,0c0-0.355,0-0.711,0-1.066c-0.965,0-1.93,0-2.895,0
		c0-0.465,0-0.93,0-1.395c0.965,0,1.93,0,2.895,0c0-1.085,0-2.17,0-3.254C6.285,6.02,5.285,6.05,4.35,6.015c0-0.37,0-0.74,0-1.109
		c0.965,0,1.93,0,2.895,0c0-0.4,0-0.801,0-1.201c-1.355,0-2.71,0-4.065,0C3.163,3.707,3.164,3.728,3.165,3.749z M7.755,3.749
		c0,0.385,0,0.771,0,1.156c0.965,0,1.93,0,2.896,0c0,0.375,0,0.75,0,1.125c-0.966,0-1.931,0-2.896,0c0,1.084,0,2.169,0,3.254
		c0.96,0.01,1.96-0.02,2.896,0.016c-0.011,0.455,0.02,0.949-0.016,1.379c-0.96,0-1.92,0-2.88,0c0,0.355,0,0.711,0,1.066
		c1.355-0.01,2.75,0.02,4.08-0.016c0-1.215,0-2.43,0-3.645c-0.979-0.01-2,0.02-2.955-0.016c0-0.324,0-0.65,0-0.975
		c0.985,0,1.97,0,2.955,0c0-1.131,0-2.26,0-3.391c-1.354,0-2.71,0-4.064,0C7.753,3.707,7.754,3.728,7.755,3.749z"/>
	<path fill-rule="evenodd" clip-rule="evenodd" fill="#C90000" d="M3.18,3.704c1.355,0,2.71,0,4.065,0c0,0.4,0,0.801,0,1.201
		c-0.965,0-1.93,0-2.895,0c0,0.369,0,0.739,0,1.109C5.285,6.05,6.285,6.02,7.245,6.03c0,1.084,0,2.169,0,3.254
		c-0.965,0-1.93,0-2.895,0c0,0.465,0,0.93,0,1.395c0.965,0,1.93,0,2.895,0c0,0.355,0,0.711,0,1.066c-1.355,0-2.71,0-4.065,0
		C3.145,10.554,3.175,9.3,3.165,8.085c0.985,0,1.97,0,2.955,0c0-0.326,0-0.65,0-0.976C5.165,7.075,4.145,7.104,3.165,7.095
		c0-1.115,0-2.23,0-3.346C3.164,3.728,3.163,3.707,3.18,3.704z"/>
	<path fill-rule="evenodd" clip-rule="evenodd" fill="#C90000" d="M7.771,3.704c1.354,0,2.71,0,4.064,0c0,1.131,0,2.26,0,3.391
		c-0.985,0-1.97,0-2.955,0c0,0.324,0,0.65,0,0.975c0.955,0.035,1.976,0.006,2.955,0.016c0,1.215,0,2.43,0,3.645
		c-1.33,0.035-2.725,0.006-4.08,0.016c0-0.355,0-0.711,0-1.066c0.96,0,1.92,0,2.88,0c0.035-0.43,0.005-0.924,0.016-1.379
		C9.715,9.265,8.715,9.294,7.755,9.284c0-1.085,0-2.17,0-3.254c0.965,0,1.93,0,2.896,0c0-0.375,0-0.75,0-1.125
		c-0.966,0-1.931,0-2.896,0c0-0.386,0-0.771,0-1.156C7.754,3.728,7.753,3.707,7.771,3.704z"/>
</g>
</svg>
