<?xml version="1.0" encoding="utf-8"?>
<!-- Generator: Adobe Illustrator 15.0.0, SVG Export Plug-In . SVG Version: 6.00 Build 0)  -->
<!DOCTYPE svg PUBLIC "-//W3C//DTD SVG 1.1//EN" "http://www.w3.org/Graphics/SVG/1.1/DTD/svg11.dtd">
<svg version="1.1" id="图层_1" xmlns="http://www.w3.org/2000/svg" xmlns:xlink="http://www.w3.org/1999/xlink" x="0px" y="0px"
	 width="16.021px" height="15.927px" viewBox="-0.001 222.937 16.021 15.927" enable-background="new -0.001 222.937 16.021 15.927"
	 xml:space="preserve">
<g id="XMLID_2_">
	<path fill="#BF4343" d="M15.376,229.058c0.101,0.301,1.261,2.797,0.2,2.867c-0.978,0.065-1.022-2.614-1.533-3.134
		c0.15,1.54,0.854,3.102,1.2,4.668c-0.489,0-0.979,0-1.467,0c-0.489,1.408,0.882,6.233-1.267,5.2
		c-0.379-1.442,0.113-3.759-0.267-5.2c-0.451,1.313,0.673,5.438-0.8,5.4c-1.363-0.034-0.353-4.213-0.667-5.4
		c-0.512,0-1.022,0-1.534,0c0.487-1.536,1.005-3.04,1.467-4.601c-0.916,0.751-0.454,2.88-1.934,3.066
		c-0.545-0.731,0.17-1.703,0.467-2.601c0.343-1.036,0.525-2.897,1.6-3.134c0.737-0.161,2.738-0.197,3.334,0.067
		C14.852,226.557,15.048,228.081,15.376,229.058z"/>
	<path fill="#BF4343" d="M12.042,222.991c2.198-0.501,2.419,2.65,0.667,2.934C10.851,226.226,10.154,223.508,12.042,222.991z"/>
	<path d="M5.842,226.792c0.245,0.558,0.066,1.85,0.066,2.867c0,1.03,0.123,2.334-0.533,2.334c-0.972,0-0.296-2.343-0.6-3.201
		c-0.078,2.15-0.133,4.828-0.133,7.268c0,1.201,0.269,2.718-0.667,2.801c-1.605,0.143-0.574-3.964-0.867-5.268
		c-0.358,0.191-0.2,0.748-0.2,1.134c0,1.192,0.1,2.842-0.133,3.867c-1.477,0.829-1.467-0.636-1.467-2.134
		c0-2.464,0.052-5.684-0.067-7.668c-0.513,0.734,0.421,3.211-0.6,3.268c-0.875,0.049-0.6-1.937-0.6-2.801
		c0-1.29-0.187-2.479,0.534-2.867c1.155-0.146,1.767-0.066,3.134-0.066C4.397,226.325,5.574,226.183,5.842,226.792z"/>
	<path d="M2.774,223.125c0.883-0.115,1.667,0.505,1.667,1.467c0,2.112-3.414,1.789-3-0.267
		C1.536,223.848,1.889,223.241,2.774,223.125z"/>
	<rect x="7.288" y="223.458" fill="#202020" width="0.361" height="15.402"/>
</g>
</svg>
