<?xml version="1.0" encoding="utf-8"?>
<!-- Generator: Adobe Illustrator 15.0.0, SVG Export Plug-In . SVG Version: 6.00 Build 0)  -->
<!DOCTYPE svg PUBLIC "-//W3C//DTD SVG 1.1//EN" "http://www.w3.org/Graphics/SVG/1.1/DTD/svg11.dtd">
<svg version="1.1" id="图层_1" xmlns="http://www.w3.org/2000/svg" xmlns:xlink="http://www.w3.org/1999/xlink" x="0px" y="0px"
	 width="15.991px" height="16.163px" viewBox="0 125.794 15.991 16.163" enable-background="new 0 125.794 15.991 16.163"
	 xml:space="preserve">
<g>
	<path fill="#52474C" d="M15.991,141.958H0.02v-5.814l6.435,1.802v-0.591L0,135.563v-1.631l13.049,3.672v-0.59l-6.595-1.831v-1.602
		l6.595,1.831v-4.453h2.942V141.958z M14.86,130.549H13.9c-0.047-0.307-0.164-0.57-0.35-0.79c-0.467-0.334-0.844-0.551-1.131-0.651
		c-0.474,0.327-0.978,0.491-1.511,0.491s-0.991-0.137-1.371-0.411c-0.454-0.293-0.78-0.439-0.98-0.439
		c-0.46,0-0.797,0.113-1.011,0.34c-0.213,0.18-0.43,0.317-0.65,0.41c-0.22,0.094-0.467,0.127-0.741,0.101
		c-0.146-0.014-0.272-0.026-0.375-0.04c-0.104-0.014-0.209-0.037-0.315-0.07c-0.034-0.026-0.077-0.055-0.13-0.085
		c-0.053-0.03-0.124-0.078-0.21-0.146c-0.32-0.206-0.581-0.31-0.78-0.31c-0.074,0-0.179,0.026-0.315,0.08
		c-0.137,0.053-0.309,0.123-0.516,0.21c-0.36,0.173-0.617,0.243-0.771,0.21c-1.054-0.174-1.588-0.664-1.601-1.471
		c-0.033-0.867,0.474-1.321,1.521-1.361c0.42,0.026,0.721,0.083,0.901,0.17c0.287,0.174,0.554,0.244,0.8,0.21
		c0.2-0.026,0.46-0.14,0.781-0.34c0.354-0.227,0.69-0.34,1.01-0.34c0.26,0,0.492,0.026,0.696,0.08
		c0.203,0.053,0.372,0.133,0.505,0.24c0.08,0.066,0.2,0.111,0.36,0.135c0.16,0.023,0.347,0.035,0.561,0.035
		c0.414,0,0.934-0.271,1.561-0.811c0.287-0.167,0.637-0.23,1.051-0.19c1.107,0.014,1.778,0.374,2.012,1.081
		c0.153,0.44,0.204,0.784,0.15,1.03c0.307,0.188,0.563,0.369,0.771,0.546s0.364,0.365,0.471,0.565c0.133,0.327,0.25,0.617,0.35,0.87
		C14.74,130.153,14.814,130.37,14.86,130.549z"/>
</g>
</svg>
