<?xml version="1.0" encoding="utf-8"?>
<!-- Generator: Adobe Illustrator 15.0.0, SVG Export Plug-In . SVG Version: 6.00 Build 0)  -->
<!DOCTYPE svg PUBLIC "-//W3C//DTD SVG 1.1//EN" "http://www.w3.org/Graphics/SVG/1.1/DTD/svg11.dtd">
<svg version="1.1" id="图层_1" xmlns="http://www.w3.org/2000/svg" xmlns:xlink="http://www.w3.org/1999/xlink" x="0px" y="0px"
	 width="16.91px" height="16.952px" viewBox="0 0 16.91 16.952" enable-background="new 0 0 16.91 16.952" xml:space="preserve">
<g>
	<g id="XMLID_1_">
		<g>
			<path fill="#F90623" d="M14.952,12.399c-0.61-0.04-0.979,0.099-1.42,0.251c-0.298,0.103-0.601,0.242-0.835,0.334
				c-0.068-0.089-0.183-0.151-0.292-0.209c-0.081-0.042-0.229-0.042-0.292-0.084c-0.035-0.022,0.018-0.115-0.042-0.041
				c-0.024,0.029-0.046-0.044-0.042-0.042c-0.222-0.084-0.466-0.208-0.626-0.251c-0.476-0.127-1.04-0.119-1.252,0.209
				c-0.299,0.462,0.008,1.271,0.167,1.629c0.228,0.514,0.523,0.925,0.877,1.253c0.199,0.185,0.374,0.264,0.626,0.376
				c0.128,0.057,0.241,0.145,0.334,0.167c0.188,0.046,0.332,0.042,0.459,0.042c0.562-0.003,1.01-0.268,1.336-0.502
				c0.167-0.119,0.367-0.256,0.459-0.375c0.115-0.15,0.283-0.271,0.375-0.376c0.014-0.016-0.014-0.069,0-0.084
				c0.013-0.013,0.073,0.014,0.083,0c0.026-0.033,0.021-0.095,0.042-0.125c0.038-0.055,0.086-0.104,0.125-0.167
				c0.041-0.065,0.044-0.143,0.083-0.209c0.01-0.018,0.07-0.023,0.083-0.042c0.022-0.03,0.026-0.099,0.042-0.125
				c0.102-0.183,0.154-0.327,0.209-0.543c0.088-0.347,0.148-0.793-0.125-1.002c-0.061-0.048-0.13-0.02-0.208-0.042
				c-0.022-0.007-0.084-0.092-0.125-0.084C14.976,12.361,15,12.403,14.952,12.399z M11.193,6.804
				c-0.371,0.262-0.923,0.064-1.587,0.125c-0.023,0.319,0.093,0.638,0.25,0.919C9.97,8.05,10.185,8.25,10.316,8.391
				c0.025,0.026,0.015,0.1,0.042,0.125c0.037,0.034,0.132,0.006,0.167,0.042c0.013,0.013-0.014,0.072,0,0.083
				c0.031,0.024,0.097,0.024,0.125,0.042c0.116,0.072,0.209,0.144,0.334,0.209c0.463,0.241,1.16,0.426,1.754,0.417
				c0.554-0.008,1.239-0.231,1.629-0.417c0.15-0.071,0.247-0.123,0.376-0.209c0.276-0.185,0.518-0.429,0.668-0.668
				c0.199-0.319,0.373-0.637,0.376-1.086c-0.643-0.093-1.152,0.128-1.629,0c-0.088-0.024-0.201-0.171-0.25-0.209
				c-0.035-0.026-0.089-0.014-0.125-0.042c-0.098-0.075-0.185-0.2-0.25-0.25c-0.035-0.026-0.09-0.014-0.125-0.042
				c-0.057-0.045-0.079-0.128-0.125-0.167c-0.031-0.026-0.096-0.02-0.125-0.042c-0.166-0.126-0.297-0.282-0.459-0.376
				c-0.044-0.052-0.103,0.027-0.125,0.042C12.213,6.069,11.55,6.551,11.193,6.804z M8.938,6.469C8.957,6.354,8.71,6.502,8.729,6.386
				c0-0.334,0-0.668,0-1.002c2.631,0,5.262,0,7.893,0c0.091,0.229,0.018,0.621,0.042,0.918c0.04,0.208-0.264,0.07-0.334,0.167
				c0.111,0.234,0.001,0.463-0.042,0.669c-0.046,0.226-0.075,0.441-0.167,0.626c-0.06,0.119-0.17,0.225-0.25,0.334
				c-0.028,0.039-0.011,0.092-0.042,0.126c-0.047,0.051-0.128,0.078-0.209,0.167c-0.013,0.015,0.014,0.069,0,0.083
				c-0.013,0.014-0.071-0.014-0.083,0c-0.026,0.03-0.015,0.057-0.042,0.084c-0.075,0.074-0.179,0.158-0.292,0.25
				c-0.312,0.255-0.776,0.456-1.253,0.627c-0.096,0.034-0.355,0.009-0.334,0.209c0.028,0.154,0.229,0.079,0.334,0.083
				c0.369,0.015,0.81,0,1.253,0c0.58,0,1.219-0.089,1.503,0.167c0.225,0.203,0.237,0.498,0.167,0.71
				c-0.02,0.061-0.057,0.173-0.083,0.209c-0.425,0.573-2.302,0.087-3.132,0.251c-0.096,0.112-0.015,0.402-0.042,0.584
				c0.722-0.18,1.493-0.269,2.088,0.042c0.529,0.276,0.824,0.806,0.71,1.629c-0.063,0.452-0.204,0.841-0.417,1.253
				c-0.04,0.076-0.084,0.185-0.125,0.25c-0.051,0.082-0.149,0.122-0.208,0.209c-0.052,0.077-0.072,0.182-0.125,0.251
				c-0.117,0.15-0.257,0.296-0.376,0.418c-0.204,0.207-0.419,0.411-0.668,0.584c-0.087,0.061-0.168,0.074-0.25,0.126
				c-0.017,0.01-0.028,0.077-0.042,0.083c-0.246,0.11-0.593,0.279-0.919,0.376c-0.133,0.04-0.467,0.087-0.71,0.084
				c-0.951-0.013-1.787-0.579-2.38-1.253c-0.308-0.351-0.523-0.714-0.71-1.128c-0.029-0.064-0.063-0.104-0.083-0.167
				c-0.105-0.318-0.29-0.789-0.292-1.253c-0.008-1.238,0.873-2.128,2.589-1.629c0-0.139,0-0.278,0-0.418
				c-0.419-0.076-0.898-0.041-1.378-0.041c-0.458,0-0.998,0.095-1.336-0.042c-0.205-0.083-0.359-0.37-0.376-0.46
				c-0.035-0.185,0.025-0.374,0.083-0.501c0.008-0.018,0.024-0.105,0.042-0.125c0.021-0.025,0.1-0.019,0.125-0.042
				c0.014-0.013,0.028-0.075,0.042-0.083c0.537-0.303,2.144,0.088,2.798-0.126c0.015-0.222-0.217-0.205-0.334-0.25
				c-0.135-0.052-0.333-0.071-0.459-0.126c-0.086-0.036-0.19-0.116-0.292-0.167c-0.17-0.084-0.265-0.141-0.417-0.25
				C9.528,8.417,8.804,7.638,8.938,6.469z"/>
			<path fill="#F90623" d="M14.492,7.555c0.016,0.325-0.329,0.53-0.585,0.46c-0.328-0.091-0.505-0.693,0-0.836
				c0.012-0.003,0.002-0.039,0.042-0.041c0.208-0.011,0.418,0.111,0.459,0.167C14.438,7.345,14.49,7.514,14.492,7.555z"/>
			<path fill="#F90623" d="M8.854,1.917C8.849,1.825,8.916,1.542,8.979,1.458c0.01-0.014,0.071,0.012,0.083,0
				c0.013-0.014-0.014-0.072,0-0.084c0.032-0.026,0.056-0.016,0.083-0.042c0.16-0.152,0.855-0.083,1.253-0.083
				c0.524,0,1.082,0,1.461,0c0.018-0.597,0.182-1.031,0.668-1.211c0.188-0.069,0.432-0.047,0.668,0.083
				c0.071,0.039,0.095,0.098,0.167,0.167c0.014,0.014,0.069-0.014,0.083,0c0.015,0.015-0.013,0.068,0,0.084
				c0.127,0.143,0.219,0.421,0.167,0.835c0.354,0.074,0.863,0.042,1.378,0.042c0.504,0,1.098-0.08,1.378,0.042
				c0.02,0.008,0.026,0.076,0.042,0.083c0.231,0.104,0.368,0.405,0.209,0.752c-0.034,0.073-0.05,0.075-0.083,0.125
				c-0.011,0.016-0.027,0.114-0.042,0.125c-0.059,0.048-0.188,0.06-0.292,0.084c-0.608,0.142-1.865-0.021-2.547,0.042
				c-0.097,0.265-0.014,0.709-0.042,1.044c0.592,0,1.053,0,1.67,0c0.269,0,0.589-0.044,0.835,0c0.366,0.065,0.712,0.397,0.501,0.877
				c-0.092,0.209-0.167,0.33-0.501,0.376c-0.367,0.051-0.928,0-1.378,0c-1.494,0-3.128,0-4.636,0c-0.532,0-0.897,0.054-1.127-0.251
				c-0.185-0.243-0.15-0.393-0.042-0.626c0.034-0.073,0.05-0.076,0.083-0.126c0.011-0.015,0.027-0.112,0.042-0.125
				C9.107,3.635,9.177,3.656,9.23,3.629c0.017-0.008,0.073-0.081,0.083-0.083c0.281-0.065,0.717,0,1.086,0c0.53,0,1.086,0,1.461,0
				c0.097-0.265,0.014-0.71,0.042-1.044C10.844,2.355,8.912,2.915,8.854,1.917z"/>
			<path fill="#F90623" d="M12.153,7.681c-0.003,0.041-0.039,0.195-0.083,0.25c-0.02,0.024-0.102,0.02-0.125,0.042
				c-0.008,0.008-0.035,0.081-0.042,0.084c-0.31,0.104-0.712-0.109-0.626-0.543c0.011-0.057,0.064-0.222,0.292-0.293
				C11.855,7.132,12.187,7.289,12.153,7.681z"/>
			<path fill="#F90623" d="M5.889,12.316c-0.596,0.092-1.202,0.351-1.712,0.668c-0.346-0.166-0.685-0.324-1.169-0.46
				c-0.307-0.086-1.117-0.248-1.42-0.041c-0.485,0.331-0.002,1.416,0.167,1.712c0.049,0.086,0.117,0.131,0.167,0.209
				c0.065,0.1,0.086,0.241,0.125,0.292c0.096,0.125,0.289,0.276,0.375,0.376c0.052,0.06,0.085,0.129,0.125,0.167
				c0.033,0.032,0.085,0.014,0.125,0.042c0.035,0.024,0.049,0.098,0.083,0.125c0.036,0.028,0.085,0.014,0.125,0.042
				c0.035,0.024,0.048,0.101,0.083,0.125C3,15.598,3.061,15.598,3.091,15.615c0.034,0.021,0.085,0.06,0.125,0.084
				c0.172,0.103,0.23,0.123,0.375,0.167c0.016,0.004,0.062,0.077,0.083,0.083c0.101,0.028,0.23,0.024,0.334,0.042
				c0.417,0.069,0.78,0.008,1.085-0.125c0.264-0.115,0.41-0.26,0.585-0.418c0.085-0.077,0.164-0.099,0.208-0.167
				c0.029-0.043,0.053-0.049,0.083-0.084c0.083-0.093,0.14-0.197,0.209-0.292c0.033-0.045,0.094-0.081,0.125-0.125
				c0.042-0.062,0.042-0.141,0.083-0.209c0.027-0.046,0.102-0.085,0.125-0.125c0.162-0.283,0.281-0.683,0.334-1.003
				c0.055-0.329,0.028-0.501-0.042-0.71c-0.058-0.173-0.07-0.206-0.167-0.25c-0.013-0.006-0.027-0.073-0.042-0.084
				C6.417,12.27,6.07,12.288,5.889,12.316z M7.058,7.889c0.156-0.266,0.259-0.654,0.25-1.002C6.932,6.665,6.58,6.418,6.098,6.302
				C6.071,6.429,6.151,6.662,6.056,6.72c-0.056,0-0.112,0-0.167,0C5.872,6.5,5.97,6.166,5.722,6.177c0,0.181,0,0.362,0,0.543
				C5.58,6.709,5.383,6.752,5.304,6.678c-0.056-0.18,0.128-0.602-0.125-0.584C5.074,5.978,5.245,6.491,4.97,6.344
				C4.877,6.256,4.995,5.957,4.761,6.01C4.618,6.139,4.847,6.703,4.636,6.72C4.489,6.729,4.563,6.526,4.552,6.386
				C4.542,6.238,4.619,6.005,4.469,6.01c-0.028,0-0.055,0-0.083,0C4.226,6.13,4.51,6.761,4.218,6.72
				C4.045,6.588,4.378,5.927,4.01,6.01c-0.123,0.072,0.039,0.43-0.083,0.501c-0.056,0-0.112,0-0.167,0
				C3.715,6.359,3.854,6.026,3.675,6.01c-0.028,0-0.055,0-0.083,0C3.525,6.175,3.674,6.296,3.508,6.344
				C3.245,6.44,3.508,6.01,3.3,6.052C3.017,6.019,3.343,6.596,3.049,6.553C2.954,6.495,3.034,6.262,3.007,6.135
				c-0.255-0.036-0.198,0.06-0.25,0.209c-0.055,0.154,0.11,0.42-0.125,0.376C2.536,6.635,2.616,6.373,2.59,6.219
				C2.315,6.279,2.083,6.38,1.796,6.511c-0.24,0.109-0.612,0.247-0.668,0.46c-0.02,0.075,0.021,0.143,0.042,0.25
				c0.053,0.265,0.074,0.355,0.167,0.543c0.05,0.102,0.144,0.269,0.167,0.293c0.142,0.148,0.284,0.312,0.459,0.459
				c0.459,0.386,1.108,0.665,1.754,0.752c0.916,0.122,1.657-0.1,2.255-0.418c0.344-0.183,0.772-0.469,0.919-0.793
				C6.897,8.043,6.964,8.03,6.975,8.015c0.013-0.02-0.009-0.063,0-0.084C6.981,7.916,7.048,7.906,7.058,7.889z M0.209,9.894
				c0.283-0.255,0.94-0.167,1.503-0.167c0.584,0,1.15,0.034,1.587-0.042c0.034-0.233-0.238-0.213-0.334-0.25
				c-0.358-0.141-0.62-0.221-0.96-0.418C1.919,8.967,1.833,8.9,1.712,8.808C1.645,8.756,1.597,8.687,1.545,8.641
				C1.513,8.612,1.45,8.629,1.42,8.599C1.392,8.571,1.406,8.502,1.378,8.474C1.233,8.326,1.112,8.245,1.002,8.057
				C0.78,7.671,0.49,7.2,0.543,6.469C0.538,6.35,0.257,6.505,0.251,6.386c0-0.292,0-0.585,0-0.877
				C0.249,5.438,0.282,5.4,0.334,5.384c2.617,0,5.234,0,7.852,0c0,0.32,0,0.64,0,0.96c0.043,0.141-0.13,0.065-0.209,0.084
				c0.114,0.918-0.315,1.646-0.835,2.13c-0.05,0.047-0.136,0.104-0.208,0.167C6.883,8.768,6.82,8.823,6.724,8.892
				c-0.144,0.103-0.247,0.145-0.459,0.25c-0.087,0.044-0.171,0.135-0.25,0.167C5.876,9.365,5.687,9.386,5.555,9.435
				c-0.1,0.037-0.302,0.043-0.334,0.209c0.007,0.15,0.214,0.08,0.292,0.083c0.3,0.013,0.666,0,1.044,0
				c0.493,0,1.078-0.077,1.378,0.042c0.202,0.079,0.429,0.382,0.376,0.752c-0.14,0.974-2.045,0.377-3.09,0.543
				c-0.032,0.182,0.052,0.387,0,0.459c1.7-0.496,2.582,0.381,2.589,1.587c0.004,0.63-0.255,1.26-0.501,1.712
				C7.237,14.954,7.19,15.113,7.1,15.239c-0.011,0.015-0.078,0.029-0.083,0.042c-0.01,0.021,0.013,0.064,0,0.083
				c-0.011,0.016-0.078,0.028-0.083,0.042c-0.01,0.021,0.013,0.064,0,0.084c-0.011,0.016-0.078,0.028-0.083,0.041
				c-0.036,0.08-0.016,0.082-0.083,0.126c-0.109,0.07-0.286,0.301-0.418,0.417c-0.173,0.154-0.358,0.303-0.543,0.418
				c-0.448,0.28-0.966,0.453-1.461,0.46c-0.679,0.009-1.33-0.283-1.796-0.585c-0.057-0.037-0.105-0.088-0.167-0.125
				C2.194,16.13,2.08,15.998,1.88,15.824c-0.037-0.031-0.077-0.069-0.125-0.125c-0.114-0.133-0.285-0.316-0.417-0.502
				c-0.033-0.046-0.095-0.08-0.125-0.125c-0.037-0.055-0.042-0.146-0.083-0.209c-0.037-0.056-0.096-0.076-0.125-0.125
				c-0.068-0.113-0.119-0.235-0.167-0.334c-0.025-0.052-0.061-0.116-0.083-0.167c-0.05-0.111-0.069-0.2-0.125-0.376
				c-0.146-0.457-0.236-1.089,0-1.587c0.099-0.211,0.136-0.275,0.375-0.46c0.489-0.374,1.421-0.434,2.255-0.167
				c0.096-0.112,0.015-0.402,0.042-0.584c-0.367,0-0.885,0-1.42,0c-0.573,0-1.264,0.078-1.545-0.084
				c-0.017-0.01-0.027-0.077-0.042-0.083C0.134,10.824,0.011,10.685,0,10.437C-0.004,10.333,0.033,10.053,0.209,9.894z"/>
			<path fill="#F90623" d="M0.585,2.251C0.518,2.155,0.458,1.924,0.459,1.834C0.461,1.691,0.53,1.616,0.627,1.499
				c0.081-0.098,0.187-0.208,0.375-0.25c0.212-0.047,0.548,0,0.835,0c0.61,0,1.153,0,1.67,0c0.103-0.37-0.015-0.653,0.209-0.877
				C3.734,0.355,3.786,0.347,3.801,0.33c0.045-0.052,0.036-0.132,0.083-0.167c0.035-0.026,0.131-0.067,0.167-0.084
				c0.613-0.266,1.364,0.19,1.211,1.17c0.354,0,0.866,0,1.378,0c0.803,0,1.55-0.129,1.67,0.459c0.056,0.272-0.04,0.485-0.208,0.627
				c-0.228,0.19-0.555,0.167-1.086,0.167c-0.62,0-1.185,0-1.712,0C5.208,2.767,5.29,3.211,5.262,3.546
				C6.086,3.721,8.137,3.13,8.311,4.005c0.042,0.213-0.062,0.597-0.25,0.71C7.776,4.887,6.892,4.799,6.307,4.799
				c-1.096,0-2.519,0-3.675,0c-1.026,0-2.273,0.256-2.13-0.752c0.086-0.605,0.763-0.501,1.587-0.501c0.5,0,0.989,0,1.42,0
				c0.097-0.265,0.014-0.71,0.042-1.044c-0.375,0-0.886,0-1.378,0c-0.488,0-1.039,0.085-1.336-0.042
				C0.842,2.46,0.615,2.294,0.585,2.251z"/>
			<path fill="#F90623" d="M5.889,8.015C5.721,8.268,5.117,8.218,5.095,7.764C5.09,7.648,5.142,7.436,5.346,7.347
				c0.363-0.159,0.791,0.189,0.626,0.584C5.965,7.947,5.906,7.989,5.889,8.015z"/>
			<path fill="#F90623" d="M2.924,8.182c-0.394,0-0.711-0.644-0.167-0.835C3.465,7.097,3.57,8.182,2.924,8.182z"/>
		</g>
		<g>
		</g>
	</g>
</g>
</svg>
