<?xml version="1.0" encoding="utf-8"?>
<!-- Generator: Adobe Illustrator 15.0.0, SVG Export Plug-In . SVG Version: 6.00 Build 0)  -->
<!DOCTYPE svg PUBLIC "-//W3C//DTD SVG 1.1//EN" "http://www.w3.org/Graphics/SVG/1.1/DTD/svg11.dtd">
<svg version="1.1" id="图层_1" xmlns="http://www.w3.org/2000/svg" xmlns:xlink="http://www.w3.org/1999/xlink" x="0px" y="0px"
	 width="14.65px" height="15px" viewBox="0 0 14.65 15" enable-background="new 0 0 14.65 15" xml:space="preserve">
<g>
	<path fill-rule="evenodd" clip-rule="evenodd" fill="#100D73" d="M12.727,6.175c-0.62,0.478-1.207,0.987-1.772,1.519
		C9.698,6.555,8.601,5.255,7.462,3.999C6.026,5.093,4.85,6.449,3.514,7.644c1.097,1.316,2.341,2.485,3.493,3.746
		c1.393-1.032,2.803-2.376,3.948-3.341c1.139,0.009,2.327-0.032,3.392,0.051c-0.092,1.631-0.611,3.169-1.468,4.049
		c-0.061,0.063-0.302,0.443-0.506,0.658c-1.105,1.159-2.76,2.044-4.708,2.177c-4.053,0.276-7.989-2.968-7.644-7.795
		c0.203-2.829,2.118-4.78,3.948-5.771c0.595-0.322,2.422-1.021,3.392-0.708c0.869,0.28,1.375,0.967,1.975,1.62"/>
	<path fill-rule="evenodd" clip-rule="evenodd" fill="#100D73" d="M9.285,0.961c-0.534-0.39-1.243-0.427-1.771-0.81
		C7.735,0.053,8.095,0.092,8.323,0c0.236,0,0.473,0,0.709,0c0.591,0.095,1.62,0.119,2.126,0.405
		c0.306,0.173,0.628,0.605,0.911,0.911c0.862,0.932,1.74,1.974,2.581,2.784c0,0.034,0,0.067,0,0.101
		c-0.439,0.354-0.847,1.009-1.266,1.215"/>
</g>
</svg>
