<?xml version="1.0" encoding="utf-8"?>
<!-- Generator: Adobe Illustrator 15.0.0, SVG Export Plug-In . SVG Version: 6.00 Build 0)  -->
<!DOCTYPE svg PUBLIC "-//W3C//DTD SVG 1.1//EN" "http://www.w3.org/Graphics/SVG/1.1/DTD/svg11.dtd">
<svg version="1.1" id="图层_1" xmlns="http://www.w3.org/2000/svg" xmlns:xlink="http://www.w3.org/1999/xlink" x="0px" y="0px"
	 width="14.961px" height="16px" viewBox="0 0 14.961 16" enable-background="new 0 0 14.961 16" xml:space="preserve">
<path fill="#091F5B" d="M6.844,13.949c-3.731-0.108-2.612-6.631,1.23-4.821c0.633,0.299,0.895,0.954,1.333,1.642
	c1.06,0,2.12,0,3.179,0c-0.656-3.105-2.868-5.208-6.461-4.82C1.121,6.488-0.403,13.693,3.972,16
	c-4.656-0.267-3.965-6.77-3.897-12.103C1.479,2.532,3.263,1.001,4.69,0c0,1.88,0,3.761,0,5.641c1.883-0.59,2.92-2.546,5.743-2.358
	c1.188,0.079,2.315,0.616,3.077,1.333c3.002,2.821,0.794,7.402-1.641,9.642c0.063-0.588,0.742-1.445,0.718-2.462
	c-0.794-0.23-2.01-0.041-2.974-0.103C8.928,12.949,8.43,13.995,6.844,13.949z"/>
</svg>
