<?xml version="1.0" encoding="utf-8"?>
<!-- Generator: Adobe Illustrator 15.0.0, SVG Export Plug-In . SVG Version: 6.00 Build 0)  -->
<!DOCTYPE svg PUBLIC "-//W3C//DTD SVG 1.1//EN" "http://www.w3.org/Graphics/SVG/1.1/DTD/svg11.dtd">
<svg version="1.1" id="图层_1" xmlns="http://www.w3.org/2000/svg" xmlns:xlink="http://www.w3.org/1999/xlink" x="0px" y="0px"
	 width="15.372px" height="17.546px" viewBox="0 123.607 15.372 17.546" enable-background="new 0 123.607 15.372 17.546"
	 xml:space="preserve">
<g>
	<path fill="#E71E2C" d="M15.372,137.908c0,0.299-0.153,0.549-0.459,0.749c-0.306,0.2-0.659,0.3-1.06,0.3
		c-0.335,0-0.636-0.083-0.901-0.251c-0.266-0.167-0.45-0.434-0.552-0.798v-0.393c0-0.16,0.007-0.337,0.022-0.53
		s0.021-0.369,0.021-0.53v-0.371c0-0.765-0.033-1.405-0.098-1.923s-0.178-0.83-0.339-0.939l-0.437-0.295v6.883h3.005v1.344H0v-1.344
		h2.262v-15.448l0.841-0.754h7.604l0.841,0.775v1.344c0.459,0.32,0.841,0.581,1.147,0.781c0.306,0.2,0.535,0.373,0.688,0.519
		c0.634,0.496,1.111,1.002,1.431,1.52c0.189,0.291,0.329,0.593,0.421,0.906c0.091,0.313,0.136,0.63,0.136,0.95V137.908
		L15.372,137.908z M10.761,129.528v-4.436H3.103v4.436H10.761z M10.029,134.641v-3.726H3.791v3.726H10.029z M5.343,132.337H4.567
		v-0.656h0.776V132.337z M5.343,133.921H4.567v-0.743h0.776V133.921z M7.626,133.866H6.118v-2.186h1.508V133.866z M9.243,132.337
		H8.445v-0.656h0.797V132.337z M9.243,133.866H8.445v-0.688h0.797V133.866z M14.727,132.588c0-0.335-0.335-0.678-1.005-1.027
		c-0.306-0.182-0.459-0.36-0.459-0.535v-1.497c0-0.291-0.022-0.563-0.065-0.813s-0.12-0.476-0.229-0.672
		c-0.255-0.561-0.721-1.034-1.398-1.421v5.562l1.016,0.721c0.102,0.052,0.188,0.17,0.257,0.355s0.131,0.413,0.186,0.683
		c0.055,0.27,0.093,0.575,0.115,0.918s0.033,0.703,0.033,1.081c0,0.438-0.003,0.756-0.011,0.956s-0.025,0.392-0.055,0.574
		c0.073,0.276,0.179,0.493,0.317,0.649c0.138,0.157,0.281,0.235,0.426,0.235c0.218,0,0.419-0.097,0.601-0.29
		c0.182-0.192,0.273-0.392,0.273-0.595L14.727,132.588L14.727,132.588z"/>
</g>
</svg>
