<?xml version="1.0" encoding="utf-8"?>
<!-- Generator: Adobe Illustrator 15.0.0, SVG Export Plug-In . SVG Version: 6.00 Build 0)  -->
<!DOCTYPE svg PUBLIC "-//W3C//DTD SVG 1.1//EN" "http://www.w3.org/Graphics/SVG/1.1/DTD/svg11.dtd">
<svg version="1.1" id="图层_1" xmlns="http://www.w3.org/2000/svg" xmlns:xlink="http://www.w3.org/1999/xlink" x="0px" y="0px"
	 width="16.685px" height="12.578px" viewBox="-4.996 119.205 16.685 12.578" enable-background="new -4.996 119.205 16.685 12.578"
	 xml:space="preserve">
<g>
	<path fill="#D8252C" d="M-2.839,123.363c0.484,0,1.116,0.35,1.898,1.047h0.052l0.943-0.84l0.954,0.954v0.053
		c-0.567,0.49-0.851,0.805-0.851,0.942c0,0.091,0.284,0.388,0.851,0.892c-0.228,0.312-0.546,0.647-0.954,1.007l-0.944-0.902h-0.052
		c-0.691,0.705-1.341,1.058-1.95,1.058h-0.052c-1.369-0.235-2.053-0.902-2.053-2.002v-0.154c0-0.934,0.56-1.601,1.68-2.002
		L-2.839,123.363z M-3.575,125.468v0.104c0.09,0.388,0.284,0.582,0.581,0.582h0.155c0.27,0,0.55-0.229,0.84-0.686
		c0-0.117-0.211-0.328-0.632-0.632h-0.415C-3.364,124.836-3.541,125.047-3.575,125.468z M1.268,119.205
		c0.643,0,1.327,0.404,2.053,1.213c0.858-0.809,1.577-1.213,2.157-1.213c0.843,0,1.493,0.474,1.949,1.421l0.156,0.684
		c0,0.781-0.719,1.78-2.157,2.997l-1.058,1.161c2.039,2.109,3.059,3.301,3.059,3.578l0.104,0.633c0,0.96-0.525,1.628-1.576,2.001
		l-0.478,0.104c-0.698,0-1.382-0.388-2.053-1.161H3.321c-0.781,0.773-1.466,1.161-2.053,1.161c-1.403-0.242-2.105-0.943-2.105-2.104
		v-0.053c0-0.663,0.422-1.365,1.265-2.104c1.265-1.292,1.897-1.978,1.897-2.054c-2.039-2.094-3.059-3.27-3.059-3.525l-0.104-0.58
		c0-0.83,0.439-1.479,1.317-1.95C0.577,119.343,0.839,119.274,1.268,119.205z M0.583,121.414c0.035,0.276,0.947,1.275,2.737,2.996
		h0.052c1.825-1.748,2.738-2.747,2.738-2.996v-0.104c-0.035-0.421-0.211-0.632-0.529-0.632H5.322c-0.235,0-0.498,0.229-0.788,0.685
		l0.632,0.735v0.052l-0.954,1.006H4.161l-0.788-0.684H3.269l-0.736,0.684l-1.006-1.006v-0.052c0.456-0.4,0.685-0.646,0.685-0.735
		s-0.229-0.318-0.685-0.685H1.008C0.725,120.815,0.583,121.061,0.583,121.414z M0.583,129.419v0.363c0,0.317,0.228,0.512,0.685,0.58
		c0.229,0,0.543-0.245,0.944-0.736l-0.736-0.787l1.005-1.006c0.367,0.358,0.647,0.587,0.84,0.684l0.789-0.684h0.052
		c0.567,0.525,0.885,0.86,0.954,1.006v0.052c-0.422,0.4-0.633,0.681-0.633,0.84c0.394,0.421,0.726,0.632,0.996,0.632
		c0.422-0.076,0.633-0.355,0.633-0.84c0-0.158-0.93-1.141-2.79-2.944C1.883,127.919,0.97,128.866,0.583,129.419z M9.532,123.415
		h0.155c0.878,0,1.511,0.491,1.897,1.473c0.069,0.139,0.104,0.332,0.104,0.58v0.052c0,0.948-0.525,1.614-1.576,2.002l-0.477,0.104
		c-0.622,0-1.289-0.369-2.001-1.109c-0.069,0-0.401,0.301-0.996,0.902c-0.636-0.574-0.954-0.909-0.954-1.007l0.902-0.892
		l-0.902-0.942v-0.115c0.063,0,0.363-0.297,0.902-0.892l0.996,0.892c0.754-0.629,1.227-0.943,1.42-0.943
		C9.003,123.457,9.18,123.422,9.532,123.415z M8.692,125.519l0.684,0.633h0.311c0.387-0.056,0.581-0.249,0.581-0.581v-0.155
		c0-0.234-0.142-0.429-0.425-0.581H9.584C9.197,124.836,8.899,125.063,8.692,125.519z"/>
</g>
</svg>
