<?xml version="1.0" encoding="utf-8"?>
<!-- Generator: Adobe Illustrator 15.0.0, SVG Export Plug-In . SVG Version: 6.00 Build 0)  -->
<!DOCTYPE svg PUBLIC "-//W3C//DTD SVG 1.1//EN" "http://www.w3.org/Graphics/SVG/1.1/DTD/svg11.dtd">
<svg version="1.1" id="图层_1" xmlns="http://www.w3.org/2000/svg" xmlns:xlink="http://www.w3.org/1999/xlink" x="0px" y="0px"
	 width="16.808px" height="9.344px" viewBox="0 0 16.808 9.344" enable-background="new 0 0 16.808 9.344" xml:space="preserve">
<g>
	<path fill="#868182" d="M0.399,0.603h0.452c0.245,0,0.368,0.102,0.368,0.305v0.305l0.01,0.431C1.32,1.833,1.483,1.957,1.718,2.016
		c0.234,0.06,0.534,0.18,0.898,0.362c0.7,0.595,1.051,1.124,1.051,1.586L3.782,4.07h0.095C3.897,3.748,4.08,3.341,4.423,2.851
		c0.315-0.441,0.872-0.76,1.67-0.956l6.429-0.031h2.857c0.112,0,0.189-0.06,0.231-0.179V1.307l-0.031-0.473
		c0-0.126,0.127-0.231,0.383-0.315c0.255-0.084,0.513,0.021,0.772,0.315l0.042,6.093v1.975l0.031,0.137
		c-0.035,0.098-0.105,0.175-0.21,0.231H16.43l-0.546,0.042c-0.126-0.042-0.217-0.123-0.273-0.242V7.158
		c-0.042-0.154-0.154-0.231-0.336-0.231V6.896L1.208,6.969l-0.01,0.368V9.07c0,0.182-0.095,0.273-0.284,0.273H0.305
		c-0.112,0-0.214-0.07-0.305-0.21V1.118V0.876C0.063,0.694,0.196,0.603,0.399,0.603z M1.324,2.504L1.198,2.851
		c0,0.939,0.031,1.457,0.094,1.555h1.565c0.112-0.028,0.168-0.06,0.168-0.095V4.039c0-0.469-0.375-0.935-1.124-1.397L1.324,2.504z
		 M3.646,0.015c0.546,0.077,0.893,0.28,1.04,0.609c0.098,0.162,0.147,0.368,0.147,0.62c0,0.441-0.141,0.756-0.42,0.945
		C4.23,2.378,3.95,2.473,3.572,2.473C2.689,2.354,2.248,1.934,2.248,1.212c0-0.371,0.158-0.7,0.473-0.987
		C3.099,0.036,3.407-0.034,3.646,0.015z M6.461,2.504c-0.624,0-1.188,0.33-1.691,0.988L4.528,4.144c0,0.154,0.137,0.231,0.41,0.231
		l0.032,0.032L5.2,4.375l9.119-0.031l0.588-0.032l0.441,0.032h0.095c0.07,0,0.126-0.477,0.168-1.429c0-0.273-0.102-0.41-0.305-0.41
		l-0.263-0.031L6.461,2.504z"/>
</g>
</svg>
