<?xml version="1.0" encoding="utf-8"?>
<!-- Generator: Adobe Illustrator 15.0.0, SVG Export Plug-In . SVG Version: 6.00 Build 0)  -->
<!DOCTYPE svg PUBLIC "-//W3C//DTD SVG 1.1//EN" "http://www.w3.org/Graphics/SVG/1.1/DTD/svg11.dtd">
<svg version="1.1" id="图层_1" xmlns="http://www.w3.org/2000/svg" xmlns:xlink="http://www.w3.org/1999/xlink" x="0px" y="0px"
	 width="17.402px" height="17.203px" viewBox="0 25.921 17.402 17.203" enable-background="new 0 25.921 17.402 17.203"
	 xml:space="preserve">
<g>
	<path fill="#604E46" d="M6.557,25.921c1.169,0,2.209,0.519,3.12,1.555c0.841-0.646,1.469-0.971,1.882-0.971
		c-0.312,0.632-0.768,1.045-1.368,1.239l-0.584,0.443c-0.856-0.95-1.831-1.426-2.921-1.426c-1.69,0-2.836,0.912-3.436,2.735
		l-0.128,0.899l0.128,1.11c-1.558,0.693-2.337,1.882-2.337,3.564c0,1.434,0.779,2.493,2.337,3.18
		c0.203,0.124,0.655,0.214,1.355,0.269c0,0.942,0.327,1.807,0.982,2.595c0.732,0.732,1.617,1.099,2.653,1.099h0.269
		c0.591,0,1.372-0.323,2.337-0.971h0.514l0.128,0.129c-0.904,1.169-1.987,1.753-3.249,1.753H8.052c-1.543,0-2.734-0.822-3.576-2.467
		c-0.172-0.389-0.3-0.953-0.386-1.694c-2.026,0-3.366-1.078-4.021-3.236L0,34.885c0-1.628,0.888-2.886,2.665-3.774v-0.129
		l-0.129-0.841v-0.327c0-1.512,0.841-2.723,2.524-3.635C5.583,26.007,6.081,25.921,6.557,25.921z M12.599,26.307
		c1.215,0,2.294,0.608,3.237,1.823c0.475,0.732,0.713,1.488,0.713,2.268c0,0.732-0.3,1.598-0.9,2.595
		c1.169,0.95,1.753,2.076,1.753,3.377c0,1.56-0.845,2.77-2.536,3.635c-0.624,0.219-1.123,0.327-1.496,0.327l-1.297-0.198
		c-0.141,0.568-0.378,0.853-0.713,0.853l-1.041,0.059h-0.257c-3.117,0-4.675-0.561-4.675-1.683c0-0.437,0.39-1.087,1.169-1.952
		l0.199-0.713c-0.437-0.437-0.655-0.76-0.655-0.97c0-0.305,0.28-0.457,0.841-0.457c-0.428-0.498-0.643-0.888-0.643-1.168
		c0-0.288,0.28-0.568,0.841-0.842c0.132-0.163,0.199-0.315,0.199-0.456c0-0.28-0.39-0.888-1.169-1.822L6.1,30.794
		c0-0.444,0.565-0.748,1.695-0.911c1.036,0,2.485-1.103,4.348-3.308L12.599,26.307z"/>
</g>
</svg>
