<?xml version="1.0" encoding="utf-8"?>
<!-- Generator: Adobe Illustrator 15.0.0, SVG Export Plug-In . SVG Version: 6.00 Build 0)  -->
<!DOCTYPE svg PUBLIC "-//W3C//DTD SVG 1.1//EN" "http://www.w3.org/Graphics/SVG/1.1/DTD/svg11.dtd">
<svg version="1.1" id="图层_1" xmlns="http://www.w3.org/2000/svg" xmlns:xlink="http://www.w3.org/1999/xlink" x="0px" y="0px"
	 width="60.982px" height="60.398px" viewBox="0 0 60.982 60.398" enable-background="new 0 0 60.982 60.398" xml:space="preserve">
<g>
	<path fill="#3871B8" d="M31.809,12.855h-8.028c1.074,0.488,3.164,1.406,6.271,2.754c-0.646,0.996-1.644,2.5-2.987,4.512H33.1v6.563
		h-11.37v3.809h10.313v6.563H21.731v14.121c0,1.813-0.387,3.252-1.157,4.307c-0.771,1.059-1.846,1.728-3.223,2.007
		c-1.378,0.283-3.922,0.429-7.633,0.429c-0.176-2.325-0.566-4.522-1.172-6.596l-1.229,2.607c-1.521-0.938-3.614-1.915-6.271-2.93
		C3,47.329,4.698,43.032,6.145,38.11l6.563,1.992c-1.058,3.535-2.308,6.954-3.75,10.254c0.957,0.078,1.914,0.117,2.868,0.117
		c1.484,0,2.246-0.879,2.285-2.637V37.054H3.098v-6.563h11.017v-3.809H2.159V20.12h6.302c-0.82-1.601-1.67-3.125-2.552-4.566
		l6.39-2.578c1.563,2.598,2.871,4.979,3.926,7.146h2.578c1.935-3.262,3.263-5.684,3.981-7.266H3.215V6.293h10.431
		c-0.527-1.429-1.036-2.718-1.521-3.867l8.086-1.465c0.563,1.521,1.149,3.301,1.758,5.332h9.844L31.809,12.855L31.809,12.855z
		 M59.934,27.797h-4.453v30.469h-7.736V27.797h-5.152v3.34c0,12.363-2.676,21.797-8.027,28.301
		c-2.656-2.305-5.117-4.258-7.383-5.859c2.228-1.973,3.965-4.424,5.215-7.354l-5.977,3.369c-1.367-3.086-2.854-5.979-4.453-8.672
		l5.625-2.813c1.388,1.875,2.998,4.563,4.834,8.061c1.621-3.813,2.432-8.431,2.432-13.857V5.941
		c8.906-0.896,16.152-2.324,21.738-4.273l3.34,7.676c-5.271,1.402-11.055,2.398-17.344,2.984v7.793h17.344
		C59.934,20.12,59.934,27.797,59.934,27.797z"/>
</g>
<rect x="0" y="0" opacity="0" fill="#3871B8" width="60.982" height="60.398"/>
</svg>
