<?xml version="1.0" encoding="utf-8"?>
<!-- Generator: Adobe Illustrator 15.0.0, SVG Export Plug-In . SVG Version: 6.00 Build 0)  -->
<!DOCTYPE svg PUBLIC "-//W3C//DTD SVG 1.1//EN" "http://www.w3.org/Graphics/SVG/1.1/DTD/svg11.dtd">
<svg version="1.1" id="图层_1" xmlns="http://www.w3.org/2000/svg" xmlns:xlink="http://www.w3.org/1999/xlink" x="0px" y="0px"
	 width="14.256px" height="14px" viewBox="0 0 14.256 14" enable-background="new 0 0 14.256 14" xml:space="preserve">
<g>
	<path fill-rule="evenodd" clip-rule="evenodd" fill="#2B8160" d="M14.256,6.658c0,0.147,0,0.294,0,0.442
		c-0.133,2.183-0.973,3.667-2.152,4.847C10.967,13.084,9.38,14,7.156,14c-2.217,0-3.797-0.913-4.976-2.024
		C0.968,10.832,0.153,9.303,0,7.143c0-0.157,0-0.313,0-0.47c0.102-1.848,0.772-3.27,1.71-4.363C2.641,1.226,3.855,0.357,5.403,0
		C5.4,1.13,5.389,2.254,5.389,3.408c0,0.337-0.052,0.889,0.1,1.041C5.732,4.692,6.57,4.384,6.857,4.619
		C7.043,4.772,6.971,5.398,6.971,5.76c0,0.435,0,0.788,0,1.126C6.763,6.603,6.269,6.729,5.816,6.729
		c-0.276,0-0.679,0.075-0.898-0.029C4.665,6.582,4.762,5.761,4.762,5.389c0-1.183,0-2.485,0-3.593
		C3.698,2.286,2.854,3.02,2.267,4.021C1.7,4.987,1.27,6.354,1.539,7.884c0.11,0.623,0.347,1.21,0.628,1.725
		c0.829,1.518,2.237,2.603,4.177,2.894c-0.01-1.056,0.02-2.223-0.015-3.208C5.924,9.138,5.019,9.47,4.804,9.139
		C4.728,9.02,4.751,8.812,4.762,8.597c0.025-0.548-0.021-1.19,0-1.683c0.192,0.3,0.728,0.189,1.24,0.171
		C6.303,7.075,6.798,6.997,6.929,7.2c0.146,0.229,0.042,0.667,0.042,0.984c0,0.383-0.012,0.734,0.015,1.055
		c0.098,0.047,0.181,0.03,0.313,0.028c0-0.377,0-0.739,0-1.155c0-0.335-0.097-0.868,0.143-0.998C7.64,7.007,8.036,7.057,8.34,7.071
		c0.486,0.023,1.065,0.095,1.169-0.185c0,0.318,0,0.632,0,0.955c0,0.459-0.07,0.899,0.015,1.255c-0.307,0.333-1.1,0.089-1.598,0.185
		c-0.026,0.993-0.021,2.197,0,3.236c1.306-0.214,2.333-0.765,3.137-1.568c0.792-0.792,1.41-1.776,1.64-3.079
		c0.265-1.5-0.136-2.872-0.713-3.835c-0.596-0.997-1.413-1.75-2.48-2.238c0.033,1.377-0.032,3.128-0.028,4.42
		c0,0.105,0.046,0.231,0.014,0.328C9.41,6.797,8.947,6.774,8.567,6.758C8.028,6.734,7.506,6.626,7.299,6.872
		c0-0.375,0-0.799,0-1.255c0-0.37-0.125-0.916,0.157-1.041c0.187-0.083,0.503-0.019,0.741-0.014
		c0.244,0.004,0.517,0.019,0.627-0.128C8.954,4.262,8.91,3.639,8.91,3.379C8.91,2.263,8.84,1.101,8.896,0
		c1.556,0.407,2.777,1.25,3.679,2.324C13.479,3.404,14.157,4.796,14.256,6.658z"/>
</g>
</svg>
