<?xml version="1.0" encoding="utf-8"?>
<!-- Generator: Adobe Illustrator 15.0.0, SVG Export Plug-In . SVG Version: 6.00 Build 0)  -->
<!DOCTYPE svg PUBLIC "-//W3C//DTD SVG 1.1//EN" "http://www.w3.org/Graphics/SVG/1.1/DTD/svg11.dtd">
<svg version="1.1" id="图层_1" xmlns="http://www.w3.org/2000/svg" xmlns:xlink="http://www.w3.org/1999/xlink" x="0px" y="0px"
	 width="20px" height="8.987px" viewBox="0 0 20 8.987" enable-background="new 0 0 20 8.987" xml:space="preserve">
<g id="XMLID_2_">
	<path fill="#D66F12" d="M20,4.118c0,0.366,0,0.733,0,1.099c-0.086,0.58-0.152,1.179-0.339,1.659
		c-0.325,0.034-0.702,0.018-1.04,0.04c0.119-0.497,0.213-1.056,0.28-1.639c0.068-0.595,0.138-1.267-0.22-1.579
		c-0.292-0.255-0.736-0.129-1.199-0.16c-0.368-0.024-0.805-0.169-1.04-0.339c-0.266-0.193-0.406-0.467-0.599-0.66
		c-0.216-0.215-0.433-0.397-0.7-0.58c-1.498-1.019-4.206-1.142-6.316-0.54c-0.6,0.171-1.173,0.504-1.738,0.799
		c-0.555,0.289-1.116,0.609-1.64,0.899C5.166,3.275,4.912,3.442,4.63,3.558c-0.635,0.26-1.252,0.408-1.979,0.58
		c-0.331,0.079-0.769,0.07-1.06,0.22c-0.801,0.412-0.465,1.91-0.24,2.618C1.008,6.92,0.614,6.914,0.293,6.836
		c-0.08-0.624-0.354-1.158-0.28-1.939c0.051-0.534,0.355-0.979,0.72-1.239C1.44,3.153,2.653,3.166,3.57,2.858
		c0.875-0.293,1.731-0.75,2.438-1.199C6.8,1.156,7.54,0.758,8.468,0.479C9.396,0.201,10.486,0.032,11.626,0c0.272,0,0.546,0,0.819,0
		c0.75,0.054,1.423,0.193,2.039,0.42c0.571,0.21,1.156,0.481,1.579,0.879c0.463,0.438,0.77,1.141,1.519,1.219
		c0.279,0.029,0.596-0.066,0.92-0.04C19.414,2.552,19.931,3.17,20,4.118z"/>
	<path fill="#FFFFFF" d="M20,0c0,1.373,0,2.745,0,4.118c-0.069-0.948-0.586-1.565-1.498-1.639c-0.324-0.026-0.641,0.069-0.92,0.04
		c-0.749-0.078-1.056-0.782-1.519-1.219c-0.423-0.398-1.008-0.669-1.579-0.879C13.868,0.193,13.195,0.054,12.445,0
		C14.964,0,17.482,0,20,0z"/>
	<path fill="#061D5B" d="M16.963,6.136c-0.893-0.017-1.741-0.1-1.919,0.58c-0.117,0.445,0.104,1.013,0.439,1.12
		c0.355,0.112,0.772-0.022,1.18,0.06c-0.224,0.37-0.396,0.748-0.8,0.9c-0.741,0.278-1.172-0.497-1.619-0.82
		c-2.629,0.016-5.261,0.029-7.875,0.06c-0.285,0.316-0.504,0.689-0.92,0.859C4.645,9.224,3.844,8.613,3.65,8.035
		c0.447-0.037,0.747-0.038,1.18-0.06c0.114-0.006,0.275,0.011,0.38-0.02c0.324-0.097,0.464-0.644,0.38-1.02
		c-0.055-0.244-0.233-0.583-0.44-0.64c-0.483-0.133-1.061,0.129-1.479-0.08c-0.02-0.085,0.066-0.188,0.119-0.26
		c0.174-0.234,0.455-0.508,0.76-0.62c0.764-0.279,1.454,0.266,1.799,0.759c2.632,0,5.264,0,7.896,0
		c0.405-0.385,0.721-1.007,1.459-1.019C16.343,5.066,16.755,5.599,16.963,6.136z"/>
</g>
</svg>
