<?xml version="1.0" encoding="utf-8"?>
<!-- Generator: Adobe Illustrator 15.0.0, SVG Export Plug-In . SVG Version: 6.00 Build 0)  -->
<!DOCTYPE svg PUBLIC "-//W3C//DTD SVG 1.1//EN" "http://www.w3.org/Graphics/SVG/1.1/DTD/svg11.dtd">
<svg version="1.1" id="图层_1" xmlns="http://www.w3.org/2000/svg" xmlns:xlink="http://www.w3.org/1999/xlink" x="0px" y="0px"
	 width="15.029px" height="15.029px" viewBox="0 48.604 15.029 15.029" enable-background="new 0 48.604 15.029 15.029"
	 xml:space="preserve">
<g>
	<path fill="#C2191F" d="M0.042,48.604h14.946l0.042,0.041v14.946l-0.042,0.042H0.042L0,63.591V48.645L0.042,48.604z M8.168,49.413
		c0.948,0.865,1.543,1.474,1.786,1.827c0.387,0.456,0.754,1.021,1.1,1.691c0.083,0.193,0.145,0.318,0.187,0.374l-0.021,0.021
		l0.073,0.104l-0.031,0.021c0.048,0,0.156,0.291,0.322,0.872c0.097,0.325,0.166,0.81,0.208,1.453l-0.042,0.747l0.021,0.063
		c-0.042,0-0.069,0.118-0.083,0.353c-0.145,0.665-0.287,1.128-0.426,1.392c0,0.048-0.035,0.11-0.104,0.187l0.021,0.021v0.021
		c-0.042,0.084-0.083,0.125-0.125,0.125l-0.25-0.166l0.021-0.021v-0.021l-0.685-0.622l-1.847-1.744l-1.869-1.765
		c0-0.069,0.27-0.457,0.81-1.162l0.27-0.395v-0.021l-0.042-0.042l-0.021,0.021c0-0.048-0.166-0.231-0.498-0.55
		c-1.018,0.104-1.55,0.177-1.599,0.218c-0.007,0.042-0.249,0.325-0.727,0.852l0.021,0.021v0.021
		c-0.125,0.098-0.571,0.616-1.339,1.558c-0.055,0.034-0.18,0.18-0.374,0.436l-0.021,0.021H2.886
		c0.063,0.091,0.398,0.367,1.007,0.831c0.042,0.069,0.187,0.193,0.436,0.374H4.35l0.83-0.831h0.042l1.682,1.578
		c0.021,0,0.138,0.117,0.353,0.353c0.027,0,0.284,0.235,0.768,0.706c0.027,0,0.125,0.097,0.291,0.29
		c0.187,0.152,0.685,0.619,1.494,1.401v0.021c-0.774,0.637-1.557,0.955-2.346,0.955c-0.851,0-1.771-0.29-2.761-0.871
		C4.591,60.076,4.536,60.034,4.536,60H4.516l-0.021,0.021H4.474c0-0.034-0.201-0.19-0.602-0.467
		c-0.25-0.159-0.578-0.401-0.986-0.727l-0.229-0.208c-0.021,0-0.221,0.201-0.602,0.603c-0.221,0.207-0.429,0.422-0.623,0.644
		l0.436,0.57v0.021l-0.478,0.312c-0.332,0.263-0.498,0.546-0.498,0.851c0,0.34,0.222,0.63,0.665,0.872l0.436,0.063
		c0.27,0,0.512-0.125,0.727-0.374c0.166-0.187,0.283-0.429,0.353-0.727c0.021-0.069,0.042-0.104,0.063-0.104
		c1.439,0.913,2.674,1.397,3.705,1.453h0.042l0.021,0.021l0.021-0.021l0.208,0.041l0.021-0.021l0.146,0.021H7.4l0.229-0.021
		l0.021,0.021l0.374-0.063l0.021,0.021h0.021l0.291-0.042v0.021c1.169-0.249,2.204-0.726,3.104-1.432h0.021
		c0.069,0,0.305,0.215,0.706,0.644c0.083,0.056,0.145,0.118,0.187,0.187l0.312,0.291c0,0.021,0.063,0.083,0.187,0.187
		c0.221-0.187,0.636-0.608,1.245-1.266c-0.803-0.782-1.287-1.239-1.453-1.37v-0.063c0-0.049,0.104-0.287,0.312-0.717
		c0.443-1.052,0.665-2.075,0.665-3.072l-0.042-0.581h0.021c0-0.27-0.125-0.844-0.374-1.723l-0.187-0.437l-0.208-0.415
		c-0.27-0.436-0.505-0.785-0.706-1.048c-0.512-0.554-0.931-0.941-1.256-1.163c-0.63-0.449-1.086-0.72-1.37-0.81
		c0-0.041-0.305-0.18-0.914-0.415l-0.415-0.166H8.168z"/>
</g>
</svg>
