<?xml version="1.0" encoding="utf-8"?>
<!-- Generator: Adobe Illustrator 15.0.0, SVG Export Plug-In . SVG Version: 6.00 Build 0)  -->
<!DOCTYPE svg PUBLIC "-//W3C//DTD SVG 1.1//EN" "http://www.w3.org/Graphics/SVG/1.1/DTD/svg11.dtd">
<svg version="1.1" id="图层_1" xmlns="http://www.w3.org/2000/svg" xmlns:xlink="http://www.w3.org/1999/xlink" x="0px" y="0px"
	 width="14.27px" height="12px" viewBox="0 0 14.27 12" enable-background="new 0 0 14.27 12" xml:space="preserve">
<line fill-rule="evenodd" clip-rule="evenodd" fill="#2EC60E" x1="13.959" y1="0" x2="13.921" y2="0.349"/>
<path fill-rule="evenodd" clip-rule="evenodd" fill="#2EC60E" d="M13.921,0.349c0.026-0.026,0.052-0.052,0.078-0.078"/>
<line fill-rule="evenodd" clip-rule="evenodd" fill="#2EC60E" x1="13.921" y1="0.349" x2="14.27" y2="0.387"/>
<g>
	<path fill-rule="evenodd" clip-rule="evenodd" fill="#2EC60E" d="M14.27,0.387C14.238,7.71,10.334,11.162,3.818,12
		C3.85,4.651,7.5,0.921,13.959,0"/>
	<path fill-rule="evenodd" clip-rule="evenodd" fill="#2EC60E" d="M1.495,2.013c1.689,1.096,2.819,3.851,1.781,6.503
		c-0.183,0.468-0.51,1.43-0.697,1.472c-0.306,0.068-1.674-1.613-1.781-1.781C-0.237,6.58-0.346,3.651,0.953,2.168"/>
</g>
<line fill-rule="evenodd" clip-rule="evenodd" fill="#2EC60E" x1="0.953" y1="2.168" x2="1.284" y2="2.301"/>
<path fill-rule="evenodd" clip-rule="evenodd" fill="#2EC60E" d="M1.284,2.301C1.275,2.274,1.261,2.246,1.246,2.218"/>
<line fill-rule="evenodd" clip-rule="evenodd" fill="#2EC60E" x1="1.284" y1="2.301" x2="1.495" y2="2.013"/>
</svg>
