<?xml version="1.0" encoding="utf-8"?>
<!-- Generator: Adobe Illustrator 15.0.0, SVG Export Plug-In . SVG Version: 6.00 Build 0)  -->
<!DOCTYPE svg PUBLIC "-//W3C//DTD SVG 1.1//EN" "http://www.w3.org/Graphics/SVG/1.1/DTD/svg11.dtd">
<svg version="1.1" id="图层_1" xmlns="http://www.w3.org/2000/svg" xmlns:xlink="http://www.w3.org/1999/xlink" x="0px" y="0px"
	 width="15.994px" height="18.839px" viewBox="0 24.019 15.994 18.839" enable-background="new 0 24.019 15.994 18.839"
	 xml:space="preserve">
<g>
	<path fill="#C11920" d="M2.846,24.019H2.91c1.717,0,3.107,1.03,4.172,3.091l0.502,0.631c0.369,0.069,0.601,0.159,0.695,0.271
		c0.086,0,0.652-0.678,1.7-2.035c1.201-1.176,2.425-1.764,3.67-1.764c0.781,0,1.481,0.442,2.099,1.326
		c0.163,0.36,0.245,0.761,0.245,1.198c-0.515,1.339-1.335,2.353-2.459,3.039v0.129c0.12,0.12,0.833,0.438,2.137,0.953l0.322,0.425
		l-0.064,0.644v6.259c0,0.429-0.377,0.769-1.133,1.017c-0.214,0.198-0.678,0.469-1.391,0.812l-0.257-0.192v-6.568l0.063-0.889
		c0-0.266-0.27-0.433-0.811-0.502l-2.035-0.837c-0.43-0.155-0.644-0.278-0.644-0.374v-0.129c0-0.163,0.829-0.497,2.485-1.004
		l0.193,0.064c0.618-0.361,1.206-0.996,1.764-1.906c0.12-0.317,0.18-0.609,0.18-0.876v-0.063c-0.223-0.678-0.515-1.018-0.875-1.018
		l-0.257-0.052H13.02c-0.91,0-2.048,0.781-3.413,2.344l-0.129,0.245v0.051c0,0.078,0.236,0.207,0.708,0.387l0.051,0.064v0.192
		c0,0.104-0.566,0.399-1.7,0.889H8.281l-0.193-0.193c0.601-0.678,0.902-1.081,0.902-1.21l-0.207-0.129H8.654l-0.747,0.966v0.245
		l0.128,0.193c-0.043,0.128-0.171,0.192-0.386,0.192H7.585c-1.391-0.489-2.086-0.807-2.086-0.953v-0.129
		c0.068-0.154,0.472-0.343,1.21-0.566l0.051-0.077v-0.115C5.37,26.295,4.254,25.41,3.413,25.41c-0.42,0-0.717,0.318-0.888,0.953
		v0.503c0,0.918,0.399,1.721,1.198,2.408c0.189,0,1.077,0.313,2.666,0.939l0.18,0.374c-1.271,0.679-2.365,1.146-3.284,1.403
		L2.91,32.365v7.403l-0.257,0.245c-1.726-0.893-2.589-1.441-2.589-1.647L0,38.314l0.064-2.215v-4.997
		c0-0.155,0.403-0.369,1.21-0.645l1.571-0.618l0.064-0.192c-1.262-1.142-1.893-2.258-1.893-3.348L0.94,26.105
		c0-0.961,0.468-1.635,1.404-2.021L2.846,24.019z M3.542,29.712v0.128c0.155,0.232,0.704,0.46,1.648,0.683h0.245v-0.115
		l-1.712-0.761L3.542,29.712z M8.216,31.102h0.128c1.7,0.601,2.864,1.064,3.49,1.391l0.052,0.438v0.322l-0.052,0.875l0.052,0.193
		l-0.052,0.064v0.063l0.052,0.193l-0.052,1.262v4.61c0,0.36-0.717,0.85-2.151,1.468l-1.532,0.876H7.971l-1.829-0.94
		c-1.15-0.523-1.726-0.906-1.726-1.146v-7.713c0-0.368,0.592-0.726,1.777-1.069l1.958-0.837L8.216,31.102z M7.341,28.385
		c0.068,0.24,0.193,0.429,0.374,0.566h0.129v-0.064c0-0.317-0.107-0.528-0.322-0.631H7.47L7.341,28.385z M11.062,30.458v0.064
		c0,0.086,0.064,0.129,0.193,0.129c1.013-0.24,1.52-0.446,1.52-0.618c0-0.077-0.085-0.142-0.258-0.193
		C11.728,30.253,11.242,30.458,11.062,30.458z"/>
</g>
</svg>
