<?xml version="1.0" encoding="utf-8"?>
<!-- Generator: Adobe Illustrator 15.0.0, SVG Export Plug-In . SVG Version: 6.00 Build 0)  -->
<!DOCTYPE svg PUBLIC "-//W3C//DTD SVG 1.1//EN" "http://www.w3.org/Graphics/SVG/1.1/DTD/svg11.dtd">
<svg version="1.1" id="图层_1" xmlns="http://www.w3.org/2000/svg" xmlns:xlink="http://www.w3.org/1999/xlink" x="0px" y="0px"
	 width="14.078px" height="17.107px" viewBox="6.04 50.906 14.078 17.107" enable-background="new 6.04 50.906 14.078 17.107"
	 xml:space="preserve">
<g>
	<path fill="#006934" d="M12.962,50.906h0.233l6.922,5.955v0.058H6.04v-0.058L12.962,50.906z M6.156,66.697h13.845l0.116,0.116
		v1.025l-0.175,0.175H6.156L6.04,67.896v-1.084L6.156,66.697z M7.811,57.828h1.142l0.117,0.116v7.61l-0.117,0.116H7.811
		l-0.117-0.116v-7.61L7.811,57.828z M10.154,57.828h1.095l0.175,0.175v7.552l-0.116,0.116h-1.154l-0.105-0.116v-7.61L10.154,57.828z
		 M12.508,57.828h1.084l0.175,0.175v7.552l-0.116,0.116h-1.143l-0.116-0.116v-7.61L12.508,57.828z M14.85,57.828h1.026l0.233,0.116
		v7.61l-0.116,0.116H14.85l-0.117-0.116v-7.61L14.85,57.828z M17.193,57.828h1.095l0.163,0.175v7.552l-0.105,0.116h-1.154
		l-0.105-0.116v-7.61L17.193,57.828z"/>
</g>
</svg>
