<?xml version="1.0" encoding="utf-8"?>
<!-- Generator: Adobe Illustrator 15.0.0, SVG Export Plug-In . SVG Version: 6.00 Build 0)  -->
<!DOCTYPE svg PUBLIC "-//W3C//DTD SVG 1.1//EN" "http://www.w3.org/Graphics/SVG/1.1/DTD/svg11.dtd">
<svg version="1.1" id="图层_1" xmlns="http://www.w3.org/2000/svg" xmlns:xlink="http://www.w3.org/1999/xlink" x="0px" y="0px"
	 width="16.272px" height="11.119px" viewBox="0 37.047 16.272 11.119" enable-background="new 0 37.047 16.272 11.119"
	 xml:space="preserve">
<path fill="#763E34" d="M12.346,38.934l0.183,0.021h0.111l0.172-0.021v0.021l0.031-0.021l0.071,0.021l0.244-0.021h0.021l0.02,0.021
	l0.031-0.021h1.38c0.034,0,0.061,0.092,0.081,0.274l-0.03,0.04v0.021c0.94,2.374,1.444,3.608,1.511,3.703
	c0.067,0,0.102,0.021,0.102,0.062c0,0.304-0.206,0.703-0.619,1.196c-0.542,0.515-1.116,0.771-1.725,0.771h-0.203
	c-0.785,0-1.424-0.39-1.917-1.167c-0.163-0.298-0.244-0.622-0.244-0.974v-0.173c0-0.033,0.061-0.051,0.183-0.051l2.364-3.287h-3.896
	l-0.964,0.041l-0.233,6.746c0.595,0,1.15,0.325,1.664,0.974c0.189,0.298,0.284,0.603,0.284,0.913v0.092l-0.03,0.021v0.03
	l-4.697-0.051l-0.03-0.041c0-0.817,0.497-1.423,1.491-1.815c0.176-0.081,0.338-0.122,0.487-0.122v-0.02l0.132-6.676l0.02-0.03
	l-0.02-0.021H4.961l-0.152,0.021l-0.03-0.021l-0.386,0.021h-1.4l2.679,4.017c0.101,0,0.152,0.021,0.152,0.062v0.173
	c0,0.696-0.44,1.284-1.319,1.765c-0.453,0.155-0.835,0.233-1.146,0.233c-1.394,0-2.462-0.646-3.206-1.938L0,43.113l0.021-0.021
	h0.213l2.161-3.743l-0.111-0.365l0.031-0.03h9.8L12.346,38.934z M0.548,43.113h0.03l2.283,0.152l0.021-0.03l-0.284-3.541H2.576
	L0.548,43.113z M2.861,39.726c0.176,2.373,0.281,3.561,0.314,3.561h0.021l2.161,0.122l-2.476-3.683H2.861z M8.816,37.047
	c0.257,0,0.487,0.169,0.689,0.507c0.054,0.095,0.082,0.22,0.082,0.376v0.03c0,0.345-0.233,0.564-0.7,0.659
	c-0.554-0.135-0.832-0.412-0.832-0.832v-0.061C8.055,37.335,8.308,37.107,8.816,37.047z M11.981,42.657l1.897,0.142l0.416-3.276
	L11.981,42.657z M14.507,39.583l-0.416,3.216l0.02,0.03h0.03l1.735,0.122v-0.03C15.004,40.736,14.548,39.624,14.507,39.583z"/>
</svg>
