<?xml version="1.0" encoding="utf-8"?>
<!-- Generator: Adobe Illustrator 15.0.0, SVG Export Plug-In . SVG Version: 6.00 Build 0)  -->
<!DOCTYPE svg PUBLIC "-//W3C//DTD SVG 1.1//EN" "http://www.w3.org/Graphics/SVG/1.1/DTD/svg11.dtd">
<svg version="1.1" id="图层_1" xmlns="http://www.w3.org/2000/svg" xmlns:xlink="http://www.w3.org/1999/xlink" x="0px" y="0px"
	 width="9.029px" height="16.932px" viewBox="0 0 9.029 16.932" enable-background="new 0 0 9.029 16.932" xml:space="preserve">
<g>
	<g>
		<path fill="#5B595A" d="M7.619,0H1.411C0.635,0,0,0.635,0,1.41v14.111c0,0.776,0.635,1.41,1.411,1.41h6.208
			c0.776,0,1.411-0.634,1.411-1.41V1.41C9.029,0.635,8.395,0,7.619,0z M3.668,1.129h1.693c0.156,0,0.283,0.126,0.283,0.281
			c0,0.156-0.127,0.283-0.283,0.283H3.668c-0.155,0-0.282-0.127-0.282-0.283C3.387,1.255,3.513,1.129,3.668,1.129z M4.515,16.367
			c-0.468,0-0.847-0.378-0.847-0.846s0.379-0.848,0.847-0.848c0.468,0,0.847,0.38,0.847,0.848S4.983,16.367,4.515,16.367z
			 M8.466,14.11H0.565V2.821h7.901V14.11z"/>
	</g>
</g>
</svg>
