<?xml version="1.0" encoding="utf-8"?>
<!-- Generator: Adobe Illustrator 15.0.0, SVG Export Plug-In . SVG Version: 6.00 Build 0)  -->
<!DOCTYPE svg PUBLIC "-//W3C//DTD SVG 1.1//EN" "http://www.w3.org/Graphics/SVG/1.1/DTD/svg11.dtd">
<svg version="1.1" id="图层_1" xmlns="http://www.w3.org/2000/svg" xmlns:xlink="http://www.w3.org/1999/xlink" x="0px" y="0px"
	 width="16.184px" height="17.782px" viewBox="0 123.018 16.184 17.782" enable-background="new 0 123.018 16.184 17.782"
	 xml:space="preserve">
<g>
	<path fill="#7C8E67" d="M14.797,123.018c0.207,0.022,0.311,0.115,0.311,0.277v1.81c0,0.199,0.266,0.325,0.799,0.377
		c0.185,0.022,0.277,0.104,0.277,0.244c-0.348,1.969-0.684,3.638-1.01,5.007l-0.133,1.109v4.341c0,0.577-0.126,0.865-0.377,0.865
		l-0.044-0.033c-0.511,0-0.766,0.163-0.766,0.488l-0.655,3.152c-0.096,0.097-0.237,0.145-0.422,0.145l-3.33-0.622l-2.253-0.421
		c-0.259,0-2.32-0.393-6.183-1.177c-0.214,0-0.366-0.223-0.455-0.666l0.344-2.054v-0.022c0-0.052-0.182-0.181-0.544-0.389
		C0.118,135.184,0,134.906,0,134.617v-0.277c0.348-4.329,0.603-7.097,0.766-8.303c0.267-0.467,0.577-0.699,0.933-0.699l0.033-0.022
		l0.566,0.1c0.208,0,0.311-0.151,0.311-0.455c0-0.444,0.1-0.666,0.3-0.666c0.614-0.126,1.554-0.214,2.819-0.267l7.748-0.865
		L14.797,123.018z M0.522,134.551v0.1c0,0.37,0.392,0.555,1.177,0.555c0.592,0.142,1.854,0.304,3.785,0.489
		c0,0.029,0.37,0.085,1.11,0.166c0.119-0.015,0.178-0.056,0.178-0.122l-0.033-0.499l0.167-0.423v-0.133l-0.167-0.066l-0.034,0.033
		H6.671c-0.111-0.045-1.154-0.185-3.13-0.422l-2.498-0.233C0.814,133.995,0.64,134.181,0.522,134.551z M3.097,125.315
		c0,0.207,0.403,0.311,1.21,0.311l3.097,0.378c0.688,0.044,1.032,0.125,1.032,0.244v0.388c0,1.34-0.033,2.01-0.1,2.01l0.033,0.033
		l-0.033,0.133l-0.033,1.299H8.27l0.033,0.022l-0.033,0.145l-0.211,4.273c0,0.133-0.174,0.259-0.522,0.377
		c-0.163,0.141-0.244,0.293-0.244,0.455c0,0.281,0.211,0.504,0.633,0.666l0.066,0.211c0,0.178-0.092,0.267-0.277,0.267l-6.183-0.688
		c-0.082,0-0.2,0.426-0.355,1.276c0,0.06,0.059,0.13,0.178,0.211l7.082-0.455l0.178,0.045l0.133-0.045l0.044,0.045l0.167-0.045
		l3.652-0.166l0.033,0.033h0.034l1.743-0.178l0.1-0.111l0.033-5.372v-3.053l0.034-3.341l0.033-0.033v-0.033l-0.033-0.134v-0.188
		l0.033-0.544c-0.037-0.118-0.093-0.178-0.167-0.178l-5.284,0.589c-3.959,0.355-5.938,0.573-5.938,0.655
		C3.141,124.92,3.097,125.086,3.097,125.315z M9.624,137.37v-0.045l-0.045,0.045H9.557l-7.715,0.478v-0.033l-0.044,0.033H1.321
		l-0.111,0.11v0.101c0.214,0.089,1.513,0.354,3.896,0.799c2.805,0.622,4.403,0.933,4.795,0.933c0.392,0.118,1.154,0.259,2.287,0.422
		l0.322,0.1h0.133c0.147,0,0.311-0.555,0.488-1.665c0.185-0.792,0.277-1.28,0.277-1.465h-0.044l-0.122-0.067
		C11.281,137.211,10.075,137.296,9.624,137.37z M15.108,126.004l-0.034,1.909l0.067,0.455h0.033l0.488-2.254
		c-0.044-0.17-0.089-0.255-0.133-0.255h-0.277L15.108,126.004z"/>
</g>
</svg>
