<?xml version="1.0" encoding="utf-8"?>
<!-- Generator: Adobe Illustrator 15.0.0, SVG Export Plug-In . SVG Version: 6.00 Build 0)  -->
<!DOCTYPE svg PUBLIC "-//W3C//DTD SVG 1.1//EN" "http://www.w3.org/Graphics/SVG/1.1/DTD/svg11.dtd">
<svg version="1.1" id="图层_1" xmlns="http://www.w3.org/2000/svg" xmlns:xlink="http://www.w3.org/1999/xlink" x="0px" y="0px"
	 width="17.113px" height="16.299px" viewBox="0 110.272 17.113 16.299" enable-background="new 0 110.272 17.113 16.299"
	 xml:space="preserve">
<g id="XMLID_1_">
	<g>
		<path fill="#145D31" d="M14.555,125.517l-1.517,1.054c-0.256,0-1.071-2.328-2.445-6.983l1.63-1.165
			C13.777,122.677,14.555,125.043,14.555,125.517z"/>
		<path fill="#BCA44A" d="M10.129,122.145v0.352l-5.705,4.074H4.312c-0.883-0.544-1.389-0.933-1.517-1.167l5.704-4.188h0.227
			L10.129,122.145z"/>
		<path fill="#E60012" d="M17.113,117.256v0.113h-7.097c-0.174,0-0.446-0.657-0.815-1.969l0.114-0.125h7.096
			C16.645,115.275,16.878,115.935,17.113,117.256z"/>
		<path d="M9.54,110.385h0.125c-1.427,4.498-2.242,6.825-2.445,6.983H5.466l-0.227-0.227c1.366-4.188,2.181-6.478,2.445-6.87h1.742
			L9.54,110.385z"/>
		<path fill="#0B318F" d="M0.815,115.4l5.817,4.301c-0.286,1.056-0.558,1.678-0.815,1.867L0,117.256l0.577-1.855H0.815z"/>
	</g>
</g>
</svg>
