<?xml version="1.0" encoding="utf-8"?>
<!-- Generator: Adobe Illustrator 15.0.0, SVG Export Plug-In . SVG Version: 6.00 Build 0)  -->
<!DOCTYPE svg PUBLIC "-//W3C//DTD SVG 1.1//EN" "http://www.w3.org/Graphics/SVG/1.1/DTD/svg11.dtd">
<svg version="1.1" id="图层_1" xmlns="http://www.w3.org/2000/svg" xmlns:xlink="http://www.w3.org/1999/xlink" x="0px" y="0px"
	 width="15.271px" height="12.217px" viewBox="0 100.196 15.271 12.217" enable-background="new 0 100.196 15.271 12.217"
	 xml:space="preserve">
<g>
	<path fill="#52474C" d="M7.698,100.196c5.049,1.592,7.573,2.521,7.573,2.789v0.926l-7.708-2.388l-7.431,2.521L0,103.911v-0.926
		C0,102.692,2.566,101.763,7.698,100.196z M10.353,103.911c1.834,0,3.162,0.975,3.983,2.924l0.268,1.328
		c0,1.979-1.148,3.396-3.447,4.25H5.043c-1.904,0-3.276-1.063-4.117-3.19l-0.134-1.06c0-1.994,1.197-3.41,3.591-4.25L10.353,103.911
		L10.353,103.911z M1.328,107.895v0.535c0,2.023,1.417,3.219,4.25,3.58h3.982c2.076,0,3.493-0.84,4.25-2.52l0.269-1.328
		c0-2.076-1.328-3.313-3.983-3.716H4.909C2.521,104.987,1.328,106.137,1.328,107.895z M5.444,104.581h4.519
		c2.565,0.362,3.849,1.467,3.849,3.313v0.669c0,1.592-1.107,2.65-3.324,3.18H4.909c-1.841,0-2.986-1.193-3.438-3.58
		C1.464,106.111,2.789,104.918,5.444,104.581z M1.996,108.163c0,1.592,1.06,2.609,3.181,3.055h5.043
		c2.126-0.406,3.19-1.426,3.19-3.055c0-1.803-1.372-2.822-4.117-3.058H6.113c-2.661,0.229-4.03,1.159-4.106,2.789l-0.01,0.151
		V108.163z M9.16,105.239c2.565,0.235,3.849,1.035,3.849,2.396l0.133,0.525c0,1.682-1.238,2.655-3.715,2.924H6.113
		c-1.865,0-3.119-0.758-3.763-2.273l-0.104-0.869c0.006-1.533,1.337-2.436,3.991-2.703H9.16L9.16,105.239z M2.789,108.163
		c0,1.293,0.93,2.088,2.789,2.387h3.982c2.038,0,3.057-0.84,3.057-2.521c0-1.063-0.886-1.771-2.655-2.12H5.845
		C4.139,105.909,3.12,106.659,2.789,108.163z"/>
</g>
</svg>
