<?xml version="1.0" standalone="no"?><!DOCTYPE svg PUBLIC "-//W3C//DTD SVG 1.1//EN" "http://www.w3.org/Graphics/SVG/1.1/DTD/svg11.dtd"><svg t="1684373583458" class="icon" viewBox="0 0 1024 1024" version="1.1" xmlns="http://www.w3.org/2000/svg" p-id="2392" xmlns:xlink="http://www.w3.org/1999/xlink" width="200" height="200"><path d="M512 1024c-56.096-89.344-97.184-137.728-123.296-145.184C201.216 825.248 64 652.672 64 448 64 200.576 264.576 0 512 0s448 200.576 448 448c0 203.168-135.232 374.72-320.608 429.632-26.88 7.968-69.376 56.768-127.392 146.368z m64-416h192a64 64 0 0 0 64-64V256a64 64 0 0 0-64-64H256a64 64 0 0 0-64 64v288a64 64 0 0 0 64 64h192v128h-54.304a32 32 0 0 0-17.76 5.376L336 768a17.472 17.472 0 0 0 9.696 32h332.608a17.472 17.472 0 0 0 9.696-32l-39.936-26.624a32 32 0 0 0-17.76-5.376H576v-128zM288 224h448a64 64 0 0 1 64 64v160a64 64 0 0 1-64 64H288a64 64 0 0 1-64-64V288a64 64 0 0 1 64-64z m224 384a32 32 0 1 1 0-64 32 32 0 0 1 0 64z" fill="#1296db" p-id="2393"></path></svg>