<?xml version="1.0" encoding="utf-8"?>
<!-- Generator: Adobe Illustrator 15.0.0, SVG Export Plug-In . SVG Version: 6.00 Build 0)  -->
<!DOCTYPE svg PUBLIC "-//W3C//DTD SVG 1.1//EN" "http://www.w3.org/Graphics/SVG/1.1/DTD/svg11.dtd">
<svg version="1.1" id="图层_1" xmlns="http://www.w3.org/2000/svg" xmlns:xlink="http://www.w3.org/1999/xlink" x="0px" y="0px"
	 width="16.132px" height="20.007px" viewBox="0 0 16.132 20.007" enable-background="new 0 0 16.132 20.007" xml:space="preserve">
<g id="XMLID_2_">
	<g>
		<path fill="#007B38" d="M16.08,11.593c0.196,1.275-0.194,2.474-0.53,3.412c-1.255,0-2.511,0-3.766,0
			c0.351-0.747,0.741-1.455,0.706-2.589C13.691,12.146,14.931,11.915,16.08,11.593z"/>
		<path fill="#007B38" d="M15.021,7.827c0.478,0.914,0.886,1.899,1.059,3.118c-1.214,0.296-2.396,0.625-3.589,0.941
			c-0.096-1.002-0.479-1.717-0.882-2.412C12.758,8.938,13.804,8.298,15.021,7.827z"/>
		<path fill="#007B38" d="M15.079,15.771c0.221,0.05-0.098,0.339-0.176,0.471c-1.253,2.079-3.691,3.735-6.767,3.766
			c-4.353,0.041-7.85-3.189-8.119-7.531c-0.343-5.524,4.522-9.624,10.237-8.237l-0.088,0.068l0.029,0.108
			c-3.571-0.36-6.26,2.177-5.531,5.647c-1.119,0.596-2.063,1.348-2.118,2.884c-0.066,1.822,1.404,3.504,3.589,3.235
			c0.357-0.043,0.708-0.291,1.118-0.353c0.563-0.084,1.272-0.036,1.941-0.059C11.012,15.707,13.331,15.817,15.079,15.771z"/>
		<path fill="#007B38" d="M12.02,5.003c1.125,0.464,1.828,1.35,2.589,2.177c-1.017,0.709-2.243,1.209-3.295,1.883
			C10.604,8.517,10.001,7.864,8.96,7.65C9.932,6.721,11.004,5.89,12.02,5.003z"/>
		<path fill="#007B38" d="M11.726,12.593c0.201,0.135,0.092,0.531,0.059,0.706c-0.121,0.63-0.548,1.311-0.882,1.766
			c-0.883,0-1.765,0-2.648,0c-0.224-0.057,0.078-0.226,0.118-0.295c0.213-0.365,0.423-0.919,0.471-1.529
			C9.805,13.026,10.773,12.817,11.726,12.593z"/>
		<path fill="#007B38" d="M10.96,9.769c0.466,0.594,0.801,1.317,0.883,2.295c-1.021,0.234-1.969,0.542-3.001,0.765
			c-0.049-0.716-0.382-1.147-0.588-1.706C9.189,10.704,10.091,10.252,10.96,9.769z"/>
		<path fill="#4EB133" d="M10.549,4.062c-0.046,0.146-0.357-0.085-0.53-0.177c-0.2-0.106-0.395-0.279-0.588-0.353
			C7.915,2.956,5.994,3.293,4.547,3.297C2.009,3.303,0.944,2.208,0.429,0.002c0.05-0.011,0.055,0.022,0.059,0.059
			c1.385,1.052,3.868,0.891,6.06,1C8.776,1.172,9.997,2.153,10.549,4.062z"/>
		<path fill="#007B38" d="M9.666,8.651c0.389,0.214,0.719,0.455,1,0.706c-0.849,0.523-1.771,0.975-2.648,1.471
			c-0.592-0.271-0.941-0.784-1.765-0.824c0.549-0.589,1.403-1.34,2.06-1.823C8.521,8.027,9.396,8.501,9.666,8.651z"/>
		<path fill="#007B38" d="M8.078,13.063c0.01,1.424-1.367,2.623-2.883,2.354c-0.946-0.168-1.91-1.19-1.883-2.412
			c0.018-0.836,0.353-1.276,0.647-1.589c0.308-0.326,0.738-0.548,1.353-0.646C6.81,10.529,8.067,11.624,8.078,13.063z"/>
	</g>
</g>
</svg>
