<?xml version="1.0" encoding="utf-8"?>
<!-- Generator: Adobe Illustrator 15.0.0, SVG Export Plug-In . SVG Version: 6.00 Build 0)  -->
<!DOCTYPE svg PUBLIC "-//W3C//DTD SVG 1.1//EN" "http://www.w3.org/Graphics/SVG/1.1/DTD/svg11.dtd">
<svg version="1.1" id="图层_1" xmlns="http://www.w3.org/2000/svg" xmlns:xlink="http://www.w3.org/1999/xlink" x="0px" y="0px"
	 width="19.878px" height="15px" viewBox="0 0 19.878 15" enable-background="new 0 0 19.878 15" xml:space="preserve">
<g id="XMLID_1_">
	<g>
		<path fill="#FFFFFF" d="M15.996,10.605c-1.774,0.16-2.35-1.249-3.691-1.816c0.921-1.169,1.347-2.97,3.105-3.164
			C19.032,5.225,18.902,10.344,15.996,10.605z"/>
		<path fill="#FFFFFF" d="M4.16,10.605c-3.089,0.039-3.313-4.61-0.41-4.98c1.944-0.248,2.503,1.277,3.809,1.816
			C6.54,8.712,6.192,10.58,4.16,10.605z"/>
		<path fill="#FFFFFF" d="M0.234,8.789C0.026,8.388,0.168,7.832,0.176,7.324C0.306,7.468,0.2,8.354,0.234,8.789z"/>
		<path fill="#5C7EE6" d="M15.41,5.625c-1.759,0.194-2.185,1.995-3.105,3.164c1.342,0.567,1.917,1.977,3.691,1.816
			C18.902,10.344,19.032,5.225,15.41,5.625z M0.176,7.324C0.168,7.832,0.026,8.388,0.234,8.789C0.2,8.354,0.306,7.468,0.176,7.324z
			 M3.75,5.625c-2.903,0.37-2.679,5.02,0.41,4.98C6.192,10.58,6.54,8.712,7.559,7.441C6.253,6.902,5.694,5.377,3.75,5.625z
			 M4.16,12.246c-2.552,0.02-4.173-1.953-4.16-4.16c0.012-2.27,1.704-3.909,3.691-4.102c2.16-0.209,3.296,1.213,4.805,2.109
			c0.513-0.559,0.985-1.332,1.523-2.109C10.82,2.828,12.225,1.66,11.191,0c1.123,0.596,2.319,1.625,3.516,2.344
			c-1.88-0.183-2.489,1.291-3.34,2.52C10.835,5.63,10.39,6.397,9.902,7.031c0.271,0.314,0.694,0.478,0.996,0.762
			c1.37-1.632,2.051-4.017,5.156-3.809c1.979,0.133,3.644,1.752,3.809,3.75c0.179,2.16-1.268,4.325-3.809,4.512
			c-2.333,0.172-3.21-1.352-4.688-2.168c-0.945,1.302-1.882,2.61-2.754,3.984C7.984,14.313,7.524,14.731,6.914,15
			c0.069-0.654,0.261-1.185,0.293-1.875c0.947-1.279,1.822-2.631,2.754-3.926C9.716,8.858,9.294,8.693,8.965,8.438
			C7.646,10.039,6.94,12.226,4.16,12.246z"/>
	</g>
	<g>
	</g>
</g>
</svg>
