<?xml version="1.0" encoding="utf-8"?>
<!-- Generator: Adobe Illustrator 15.0.0, SVG Export Plug-In . SVG Version: 6.00 Build 0)  -->
<!DOCTYPE svg PUBLIC "-//W3C//DTD SVG 1.1//EN" "http://www.w3.org/Graphics/SVG/1.1/DTD/svg11.dtd">
<svg version="1.1" id="图层_1" xmlns="http://www.w3.org/2000/svg" xmlns:xlink="http://www.w3.org/1999/xlink" x="0px" y="0px"
	 width="16.335px" height="12.829px" viewBox="0 75.94 16.335 12.829" enable-background="new 0 75.94 16.335 12.829"
	 xml:space="preserve">
<g>
	<path fill="#D8252C" d="M3.163,75.94v0.051h0.14l0.254,3.938l-1.118-0.165l-0.051,0.051l2.159,5.69l0.724-0.609h0.063
		c1.677,2.058,2.515,3.172,2.515,3.341c-0.61,0.355-1.448,0.533-2.515,0.533h-0.14c-0.322,0-0.627-0.055-0.915-0.165
		c-0.22,0-1.427-1.474-3.62-4.421C0.22,84.184,0,81.931,0,77.426C0,76.816,1.054,76.321,3.163,75.94z M4.141,75.99l0.216,0.114
		l0.254,3.607c-0.059,0.145-0.216,0.216-0.47,0.216H4.026l-0.33-3.874V75.99H4.141z M5.881,84.577h0.368
		c0.212,0.102,1.029,1.066,2.452,2.896v0.255l-0.242,0.229H8.32c-1.549-1.744-2.409-2.837-2.579-3.277L5.881,84.577z M8.637,75.94
		v6.122H7.71v-5.957l-0.064-0.051H7.71V75.94H8.637z M11.546,75.94v6.122h-0.927V75.94H11.546z M16.335,75.94v6.122H12.6v-0.609
		l-0.076-0.051H12.6v-0.114h2.756l0.127-0.089v-1.156c0-0.22-0.136-0.33-0.407-0.33H12.6v-3.607l-0.076-0.051H12.6V75.94H16.335z
		 M13.439,77.147v1.639l0.216,0.165h1.423c0.271,0,0.407-0.11,0.407-0.33v-1.588c0-0.221-0.174-0.331-0.521-0.331h-1.309
		C13.51,76.727,13.439,76.875,13.439,77.147z"/>
</g>
</svg>
