<?xml version="1.0" encoding="utf-8"?>
<!-- Generator: Adobe Illustrator 15.0.0, SVG Export Plug-In . SVG Version: 6.00 Build 0)  -->
<!DOCTYPE svg PUBLIC "-//W3C//DTD SVG 1.1//EN" "http://www.w3.org/Graphics/SVG/1.1/DTD/svg11.dtd">
<svg version="1.1" id="图层_1" xmlns="http://www.w3.org/2000/svg" xmlns:xlink="http://www.w3.org/1999/xlink" x="0px" y="0px"
	 width="17.362px" height="15px" viewBox="0 0 17.362 15" enable-background="new 0 0 17.362 15" xml:space="preserve">
<g id="XMLID_2_">
	<path fill="#368E52" d="M16.641,5.855c0.38,0.439,0.975,0.964,0.605,1.743c-0.17,0.36-0.541,0.689-0.814,1.023
		c-0.557,0.681-1.069,1.329-1.629,2.027c-0.393,0.489-1.141,1.138-0.721,1.952c0.234,0.454,0.677,0.834,1.043,1.231
		c0.394,0.427,0.812,0.796,1.116,1.155c-0.044,0-0.088,0-0.132,0c-0.877-0.034-1.873-0.019-2.804-0.019
		c-0.117,0-0.248,0.01-0.378,0.019c-0.16,0-0.32,0-0.481,0c-0.031-0.004-0.061-0.011-0.088-0.019
		c-0.078-0.023-0.281-0.281-0.398-0.417c-0.666-0.773-1.279-1.523-1.895-2.254c-0.412-0.489-0.976-0.989-1.024-1.781
		c-0.065-1.095,0.832-1.56,1.365-2.142c0.846-0.924,1.796-1.779,2.634-2.69c0.188-0.205,0.407-0.357,0.531-0.55
		c0.575-0.894-0.192-1.59-0.645-2.103c-0.624-0.706-1.128-1.305-1.762-2.027c-0.104-0.118-0.363-0.359-0.359-0.398
		c0.004-0.048,0.315-0.254,0.378-0.303C11.343,0.18,11.454,0.118,11.563,0c0.006,0,0.012,0,0.019,0c0,0.006,0,0.012,0,0.019
		C13.239,1.916,14.94,3.893,16.641,5.855z"/>
	<path fill="#FFFFFF" d="M16.109,14.988c-1.061,0-2.122,0-3.183,0c0.131-0.009,0.262-0.019,0.378-0.019
		C14.236,14.969,15.232,14.954,16.109,14.988z"/>
	<path fill="#FFFFFF" d="M12.446,14.988c0.161,0,0.321,0,0.481,0C12.754,15,12.583,15.008,12.446,14.988z"/>
	<path fill="#AC292F" d="M10.69,4.112c0.258,0,0.51,0,0.777,0c-0.117,0.77-0.415,1.297-0.891,1.724
		c-0.446,0.401-1.091,0.72-1.895,0.72c-1.519,0-2.685-1.177-2.786-2.558C5.821,2.966,6.216,2.246,6.75,1.724
		c0.438-0.429,1.092-0.777,1.895-0.795c0.771-0.017,1.461,0.306,1.913,0.701c0.488,0.427,0.797,0.988,0.91,1.744
		c-0.602-0.081-0.991,0.112-1.459,0C9.904,3.348,9.74,3.161,9.667,3.089C9.444,2.865,9.278,2.7,9.042,2.463
		c-0.077-0.078-0.26-0.321-0.303-0.322C8.67,2.138,8.37,2.491,8.322,2.539C7.911,2.95,7.503,3.371,7.109,3.771
		c0.499,0.531,1.032,1.026,1.535,1.554c0.21-0.169,0.412-0.375,0.644-0.606c0.15-0.15,0.425-0.552,0.625-0.606
		C10.129,4.052,10.438,4.112,10.69,4.112z"/>
	<path fill="#368E52" d="M7.375,8.773c0.46,0.46,1.015,0.904,0.947,1.781c-0.041,0.539-0.351,0.928-0.644,1.289
		c-0.865,1.067-1.795,2.118-2.653,3.126c-1.251,0.012-2.552-0.026-3.771,0.019c-0.038,0-0.076,0-0.113,0
		c0.319-0.352,0.675-0.751,1.061-1.137c0.53-0.53,1.607-1.325,1.042-2.33c-0.189-0.336-0.5-0.666-0.777-1.004
		c-0.543-0.665-1.06-1.315-1.592-1.971c-0.269-0.332-0.63-0.665-0.777-1.004c-0.338-0.782,0.272-1.289,0.644-1.725
		c1.681-1.969,3.355-3.835,5.021-5.76C5.763,0.031,5.773,0.015,5.783,0c0.012,0,0.025,0,0.038,0c0.104,0.114,0.208,0.204,0.36,0.322
		C6.256,0.381,6.552,0.535,6.56,0.606c0.005,0.048-0.257,0.282-0.361,0.398c-0.623,0.7-1.155,1.317-1.762,2.027
		C3.994,3.552,3.23,4.225,3.774,5.097c0.134,0.214,0.375,0.413,0.588,0.625C5.387,6.748,6.346,7.744,7.375,8.773z"/>
</g>
</svg>
