<?xml version="1.0" encoding="utf-8"?>
<!-- Generator: Adobe Illustrator 15.0.0, SVG Export Plug-In . SVG Version: 6.00 Build 0)  -->
<!DOCTYPE svg PUBLIC "-//W3C//DTD SVG 1.1//EN" "http://www.w3.org/Graphics/SVG/1.1/DTD/svg11.dtd">
<svg version="1.1" id="图层_1" xmlns="http://www.w3.org/2000/svg" xmlns:xlink="http://www.w3.org/1999/xlink" x="0px" y="0px"
	 width="16.602px" height="15.867px" viewBox="0 111.312 16.602 15.867" enable-background="new 0 111.312 16.602 15.867"
	 xml:space="preserve">
<g>
	<path fill="#5E4949" d="M12.522,111.312h0.044l0.57,0.658l-1.645,2.226H11.14c-0.161,0-0.61,0.421-1.349,1.261
		c-2.456,2.42-3.684,3.663-3.684,3.729c-0.066,0.717-0.153,1.074-0.263,1.074l-2.928,2.929c-0.695,0.768-1.141,1.151-1.338,1.151
		l-0.274,0.109c-0.139,0-0.38-0.077-0.724-0.23c-0.059,0-0.15-0.076-0.274-0.23c-0.088,0-0.139-0.102-0.153-0.307L0,123.527v-0.494
		c0-0.241,0.245-0.563,0.735-0.965l3.684-3.607h0.768c3.304-3.26,4.957-4.927,4.957-5c0-0.308,0.179-0.563,0.538-0.768
		L12.522,111.312z M13.75,113.658h0.965c0.058,0.051,0.146,0.077,0.263,0.077v0.032l-1.338,1.919l0.384,1.009l1.107,0.077
		l1.239-1.502h0.077l0.153,0.416v0.845l-0.197,0.581c0,0.168-0.128,0.398-0.384,0.69c-0.081,0.184-0.326,0.388-0.735,0.614
		l-0.768,0.308h-0.34H13.64h-0.427c-0.037,0.095-2.021,2.043-5.955,5.845c-1.688,1.695-2.573,2.551-2.654,2.565l-0.153,0.044H4.035
		c-0.366-0.241-0.596-0.497-0.691-0.768l-0.077-0.197c0-0.314,0.563-0.99,1.688-2.028l6.799-6.92l-0.154-0.493v-0.855
		c0.132-0.351,0.198-0.592,0.198-0.724c0.46-0.701,0.895-1.137,1.305-1.305c0.146-0.103,0.336-0.153,0.57-0.153L13.75,113.658z"/>
</g>
</svg>
