<?xml version="1.0" encoding="utf-8"?>
<!-- Generator: Adobe Illustrator 15.0.0, SVG Export Plug-In . SVG Version: 6.00 Build 0)  -->
<!DOCTYPE svg PUBLIC "-//W3C//DTD SVG 1.1//EN" "http://www.w3.org/Graphics/SVG/1.1/DTD/svg11.dtd">
<svg version="1.1" id="图层_1" xmlns="http://www.w3.org/2000/svg" xmlns:xlink="http://www.w3.org/1999/xlink" x="0px" y="0px"
	 width="17.167px" height="11.752px" viewBox="0 84.752 17.167 11.752" enable-background="new 0 84.752 17.167 11.752"
	 xml:space="preserve">
<g>
	<path fill="#635452" d="M10.981,87.374c0.935,0,1.552,1.085,1.852,3.254l0.311,0.311c0.721-0.143,1.081-0.3,1.081-0.471l0.782,0.16
		h0.31c0.307-1.034,0.821-1.552,1.542-1.552h0.16l0.15,0.781v6.187l-0.46,0.46H0.77L0,96.354v-6.968l0.311-0.311
		c0.292,0,0.756,0.518,1.392,1.552l0.621-0.16c0.399,0.207,0.967,0.31,1.702,0.31l0.92-0.31l0.931,0.31
		c0.828,0,1.242-0.103,1.242-0.31l1.231,0.31H9.13l0.61-0.31v-0.771H9.59l-2.162,0.471H5.565c-0.435,0-0.795-0.207-1.081-0.621
		c0.2-0.471,0.407-0.731,0.621-0.781h2.322C8.619,88.623,9.803,88.159,10.981,87.374z M1.702,91.559
		c0.1,2.162,0.46,3.243,1.081,3.243l9.74-0.149c1.548-1.299,2.323-2.383,2.323-3.254l-0.46-0.149l-1.241,0.31v1.231
		c-0.143,1.034-0.606,1.552-1.392,1.552l-3.864-0.931l-3.243,0.771h-0.31l-0.471-0.461v-0.46c0-0.385,1.392-0.902,4.174-1.552
		c0.506,0.307,1.177,0.46,2.012,0.46V92.02c0-0.514-0.104-0.771-0.311-0.771L7.738,91.56l-0.311-0.311L5.876,91.56l-1.081-0.311
		l-1.241,0.31l-1.392-0.31L1.702,91.559z M10.05,84.752c0.392,0,0.806,0.307,1.241,0.921v0.471c0,0.82-0.464,1.23-1.391,1.23
		c-0.393,0-0.807-0.307-1.242-0.92v-0.781C9.044,85.059,9.508,84.752,10.05,84.752z"/>
</g>
</svg>
