<?xml version="1.0" encoding="utf-8"?>
<!-- Generator: Adobe Illustrator 15.0.0, SVG Export Plug-In . SVG Version: 6.00 Build 0)  -->
<!DOCTYPE svg PUBLIC "-//W3C//DTD SVG 1.1//EN" "http://www.w3.org/Graphics/SVG/1.1/DTD/svg11.dtd">
<svg version="1.1" id="图层_1" xmlns="http://www.w3.org/2000/svg" xmlns:xlink="http://www.w3.org/1999/xlink" x="0px" y="0px"
	 width="15.987px" height="15.987px" viewBox="0 53.183 15.987 15.987" enable-background="new 0 53.183 15.987 15.987"
	 xml:space="preserve">
<g>
	<path fill="#186635" d="M7.74,53.183h0.508c2.6,0,4.787,1.256,6.561,3.769c0.786,1.313,1.179,2.729,1.179,4.245
		c0,2.838-1.293,5.119-3.88,6.847c-1.267,0.751-2.59,1.127-3.972,1.127H7.811c-2.688,0-4.899-1.256-6.633-3.769
		C0.393,64.129,0,62.876,0,61.644v-0.976c0-2.126,1.012-4.069,3.037-5.83C4.486,53.734,6.054,53.183,7.74,53.183z M1.341,61.196
		c0,1.835,0.657,3.399,1.97,4.693v-0.031c-0.075-0.25-0.288-0.616-0.64-1.097v-0.081h0.041c0.345,0,1.168-0.23,2.468-0.69
		c0.697-0.346,1.263-0.711,1.696-1.097c-0.847-0.759-1.453-1.958-1.818-3.597l-0.162-0.843l-0.274,0.03H2.834l-0.082-0.081v-0.975
		l0.041-0.031v-0.04l3.119,0.04h1.615c-0.189-0.623-0.447-1.286-0.772-1.99l1.178-0.478c0.305,0.474,0.616,1.147,0.935,2.021
		c-0.725,0.25-1.09,0.399-1.097,0.446h2.103l3.24-0.04l0.041,0.04v1.006l-0.082,0.082h-2.427c-0.258,1.551-0.904,3.033-1.94,4.448
		c0.731,0.596,1.903,1.054,3.514,1.371l0.976,0.092l0.081,0.081c-0.386,0.394-0.64,0.863-0.762,1.412
		c-1.794-0.352-3.375-1.066-4.743-2.143c-1.361,1.09-2.817,1.835-4.368,2.234c1.178,1.057,2.377,1.648,3.596,1.777l0.65,0.071
		l0.284-0.03h0.488c1.57,0,3.094-0.742,4.57-2.225c1.083-1.287,1.625-2.705,1.625-4.256v-0.284c0-2.566-1.3-4.551-3.9-5.952
		c-0.853-0.353-1.604-0.528-2.255-0.528H7.933l-0.244-0.03c-1.774,0-3.419,0.833-4.936,2.498
		C1.812,58.214,1.341,59.605,1.341,61.196z M6.115,58.454c0.074,1.11,0.545,2.238,1.412,3.383L7.77,62.08h0.041
		c0.995-1.577,1.493-2.786,1.493-3.626H6.115L6.115,58.454z"/>
</g>
</svg>
