<?xml version="1.0" encoding="utf-8"?>
<!-- Generator: Adobe Illustrator 15.0.0, SVG Export Plug-In . SVG Version: 6.00 Build 0)  -->
<!DOCTYPE svg PUBLIC "-//W3C//DTD SVG 1.1//EN" "http://www.w3.org/Graphics/SVG/1.1/DTD/svg11.dtd">
<svg version="1.1" id="图层_1" xmlns="http://www.w3.org/2000/svg" xmlns:xlink="http://www.w3.org/1999/xlink" x="0px" y="0px"
	 width="17.593px" height="17.593px" viewBox="0 110.288 17.593 17.593" enable-background="new 0 110.288 17.593 17.593"
	 xml:space="preserve">
<g>
	<path fill="#5E4949" d="M8.512,110.288h0.568c2.854,0,5.259,1.383,7.219,4.147c0.862,1.442,1.293,2.998,1.293,4.667
		c0,3.128-1.427,5.639-4.28,7.533c-1.387,0.83-2.841,1.245-4.365,1.245H8.597c-2.966,0-5.4-1.382-7.303-4.147
		C0.431,122.339,0,120.961,0,119.599v-1.076c0-2.33,1.112-4.466,3.337-6.408C4.941,110.896,6.667,110.288,8.512,110.288z
		 M1.475,119.103c0,1.652,0.516,3.168,1.548,4.547c0.371-0.637,0.713-1.588,1.028-2.854c0.104-0.677,0.193-1.016,0.266-1.016
		c0.572,0.267,0.959,0.488,1.161,0.665l-1.294,4.184H4.147l-0.278-0.181H3.833v0.048c1.523,1.218,2.89,1.826,4.099,1.826
		l0.484,0.048v0.037l0.314-0.037h0.532c1.402,0,2.785-0.552,4.147-1.656h-0.943l-0.085-0.085v-0.762H7.569v0.896l-0.085,0.097H6.505
		l-0.097-0.097l0.048-4.498l-0.048-4.003l0.048-0.048h2.055v-1.209H6.59l-0.448,0.048l-0.036-0.048v-0.979l0.085-0.085l4.099,0.049
		l3.652-0.049v-0.048c-1.492-1.395-3.035-2.092-4.631-2.092H8.682l-0.169-0.037c-2.29,0-4.28,1.142-5.973,3.422
		C1.83,116.362,1.475,117.668,1.475,119.103z M3.7,116.395l1.958,1.281c-0.089,0.298-0.311,0.686-0.665,1.161l-1.971-1.427
		C3.297,116.862,3.522,116.523,3.7,116.395z M4.232,113.456c0.612,0.339,1.205,0.754,1.777,1.245v0.036l-0.665,0.896H5.296
		l-1.693-1.246C3.78,114.032,3.99,113.722,4.232,113.456z M7.569,117.276v3.652h4.812v-0.932h-0.979
		c-0.621,0-0.931-0.266-0.931-0.798v-1.923H9.625v0.049c0,1.241-0.343,2.298-1.028,3.168c-0.508-0.314-0.818-0.54-0.931-0.677
		c0.564-0.629,0.846-1.476,0.846-2.54H7.569z M7.569,121.956v0.895h4.812v-0.895H7.569z M9.661,115.004v1.209h0.81v-1.209H9.661z
		 M14.123,114.072v0.896l-0.048,0.036v0.048l-0.218-0.048h-2.273v1.209h1.91l0.049,0.049h0.036l-0.036,0.217l-0.049,3.869
		l0.049,4.232h0.036c1.668-1.491,2.503-3.272,2.503-5.345v-0.302c0-1.806-0.641-3.41-1.923-4.813v-0.049H14.123z M11.583,117.276
		v1.21c0,0.322,0.072,0.483,0.217,0.483h0.581v-1.693H11.583z"/>
</g>
</svg>
