<?xml version="1.0" encoding="utf-8"?>
<!-- Generator: Adobe Illustrator 15.0.0, SVG Export Plug-In . SVG Version: 6.00 Build 0)  -->
<!DOCTYPE svg PUBLIC "-//W3C//DTD SVG 1.1//EN" "http://www.w3.org/Graphics/SVG/1.1/DTD/svg11.dtd">
<svg version="1.1" id="图层_1" xmlns="http://www.w3.org/2000/svg" xmlns:xlink="http://www.w3.org/1999/xlink" x="0px" y="0px"
	 width="87.325px" height="90.062px" viewBox="0 0 87.325 90.062" enable-background="new 0 0 87.325 90.062" xml:space="preserve">
<g>
	<g>
		
			<linearGradient id="SVGID_1_" gradientUnits="userSpaceOnUse" x1="-1188.9063" y1="-639.5078" x2="-865.0796" y2="-639.5078" gradientTransform="matrix(0.2188 -0.2338 -0.2338 -0.2188 117.3361 -333.5616)">
			<stop  offset="0.3107" style="stop-color:#D7D6E7"/>
			<stop  offset="1" style="stop-color:#FFFFFF"/>
		</linearGradient>
		<path fill="url(#SVGID_1_)" d="M77.569,8.604c-8.047-7.527-20.131-7.683-26.991-0.351L4.58,57.401
			c-6.862,7.332-5.903,19.378,2.136,26.908c8.047,7.531,20.132,7.686,26.994,0.354l45.997-49.148
			C86.573,28.183,85.613,16.132,77.569,8.604z"/>
		
			<linearGradient id="SVGID_2_" gradientUnits="userSpaceOnUse" x1="-1188.9102" y1="-669.6553" x2="-865.084" y2="-669.6553" gradientTransform="matrix(0.2188 -0.2338 -0.2338 -0.2188 116.841 -334.9034)">
			<stop  offset="0.0057" style="stop-color:#D7D6E7"/>
			<stop  offset="1" style="stop-color:#FFFFFF"/>
		</linearGradient>
		<path fill="url(#SVGID_2_)" d="M78.275,33.296L32.279,82.444c-6.727,7.188-18.472,7.175-26.512,0.077
			c0.15,0.148,0.297,0.3,0.452,0.446c8.046,7.53,20.132,7.683,26.995,0.352l45.995-49.148c6.865-7.332,5.908-19.381-2.138-26.91
			c-0.156-0.146-0.316-0.284-0.474-0.425C84.209,14.387,85.005,26.108,78.275,33.296z"/>
		
			<linearGradient id="SVGID_3_" gradientUnits="userSpaceOnUse" x1="-943.0303" y1="-694.4575" x2="-943.0303" y2="-578.2644" gradientTransform="matrix(0.2188 -0.2338 -0.2338 -0.2188 117.3361 -333.5616)">
			<stop  offset="0.3107" style="stop-color:#E7211A"/>
			<stop  offset="1" style="stop-color:#9C1F24"/>
		</linearGradient>
		<path fill="url(#SVGID_3_)" d="M82.548,34.848c6.862-7.332,5.429-19.826-3.202-27.904c-8.635-8.08-21.197-8.68-28.057-1.347
			l-24.996,26.71L57.548,61.56L82.548,34.848z"/>
		
			<linearGradient id="SVGID_4_" gradientUnits="userSpaceOnUse" x1="-941.0293" y1="-579.7705" x2="-941.0293" y2="-704.2636" gradientTransform="matrix(0.2188 -0.2338 -0.2338 -0.2188 117.3361 -333.5616)">
			<stop  offset="0.2938" style="stop-color:#E7211A"/>
			<stop  offset="1" style="stop-color:#9C1F24"/>
		</linearGradient>
		<path fill="url(#SVGID_4_)" d="M82.986,34.38c6.862-7.332,5.429-19.825-3.203-27.903c-8.633-8.08-21.196-8.68-28.057-1.347
			L26.732,31.839l31.254,29.252L82.986,34.38z"/>
		
			<linearGradient id="SVGID_5_" gradientUnits="userSpaceOnUse" x1="-1439.5615" y1="402.6738" x2="-1366.894" y2="400.6739" gradientTransform="matrix(0.2338 0.2188 0.2188 -0.2338 306.7379 432.947)">
			<stop  offset="0" style="stop-color:#E11A14"/>
			<stop  offset="0.2129" style="stop-color:#D71918"/>
			<stop  offset="0.4938" style="stop-color:#BD1A21"/>
			<stop  offset="0.5989" style="stop-color:#B31E23"/>
			<stop  offset="0.7189" style="stop-color:#B51D23"/>
			<stop  offset="0.8289" style="stop-color:#BF1A20"/>
			<stop  offset="0.9346" style="stop-color:#CC1C1C"/>
			<stop  offset="0.9887" style="stop-color:#D71D18"/>
		</linearGradient>
		<path fill="url(#SVGID_5_)" d="M80.663,32.645l-25,26.713l0.936,0.875l25-26.713c6.864-7.332,5.43-19.826-3.2-27.902
			C78.24,5.47,78.08,5.331,77.92,5.189C86.136,13.274,87.4,25.445,80.663,32.645z"/>
		
			<linearGradient id="SVGID_6_" gradientUnits="userSpaceOnUse" x1="-1103.7832" y1="-641.6709" x2="-1103.7832" y2="-579.1748" gradientTransform="matrix(0.2188 -0.2338 -0.2338 -0.2188 117.3361 -333.5616)">
			<stop  offset="0.3107" style="stop-color:#E1E2EF"/>
			<stop  offset="1" style="stop-color:#FFFFFF"/>
		</linearGradient>
		<path fill="url(#SVGID_6_)" d="M28.199,34.066L6.924,56.798C0.48,63.684,1.38,74.994,8.929,82.067l32.944-35.202L28.199,34.066z"
			/>
		
			<linearGradient id="SVGID_7_" gradientUnits="userSpaceOnUse" x1="-950.8091" y1="-641.6709" x2="-950.8091" y2="-579.1748" gradientTransform="matrix(0.2188 -0.2338 -0.2338 -0.2188 117.3361 -333.5616)">
			<stop  offset="0.3107" style="stop-color:#DC2016"/>
			<stop  offset="0.4238" style="stop-color:#DE3C29"/>
			<stop  offset="0.5556" style="stop-color:#E56249"/>
			<stop  offset="0.6828" style="stop-color:#EA8467"/>
			<stop  offset="0.8024" style="stop-color:#EF9C80"/>
			<stop  offset="0.9113" style="stop-color:#F2AD91"/>
			<stop  offset="1" style="stop-color:#F3B297"/>
		</linearGradient>
		<path fill="url(#SVGID_7_)" d="M50.115,10.649L28.609,33.627l13.676,12.798l33.174-35.448
			C67.903,3.909,56.556,3.764,50.115,10.649z"/>
		
			<linearGradient id="SVGID_8_" gradientUnits="userSpaceOnUse" x1="-1128.708" y1="-1194.9517" x2="-1128.708" y2="-1132.4561" gradientTransform="matrix(0.207 -0.2212 -0.1068 -0.1 128.2218 -309.101)">
			<stop  offset="0.0057" style="stop-color:#E1E2EF"/>
			<stop  offset="0.0363" style="stop-color:#E3E5F1"/>
			<stop  offset="0.2685" style="stop-color:#F3F3F9"/>
			<stop  offset="0.5478" style="stop-color:#FDFDFE"/>
			<stop  offset="1" style="stop-color:#FFFFFF"/>
		</linearGradient>
		<path fill="url(#SVGID_8_)" d="M31.292,37.213L11.171,58.711c-6.094,6.512-8.237,14.408-4.79,17.641l31.159-33.294L31.292,37.213
			L31.292,37.213z"/>
		
			<linearGradient id="SVGID_9_" gradientUnits="userSpaceOnUse" x1="-975.7686" y1="-1194.9546" x2="-975.7686" y2="-1132.4559" gradientTransform="matrix(0.207 -0.2212 -0.1068 -0.1 128.4415 -309.3353)">
			<stop  offset="0" style="stop-color:#DC2016"/>
			<stop  offset="0.0577" style="stop-color:#DE3021"/>
			<stop  offset="0.1435" style="stop-color:#E14E38"/>
			<stop  offset="0.2367" style="stop-color:#E66C50"/>
			<stop  offset="0.3373" style="stop-color:#EA8467"/>
			<stop  offset="0.4482" style="stop-color:#EE987B"/>
			<stop  offset="0.5746" style="stop-color:#F1A78A"/>
			<stop  offset="0.7301" style="stop-color:#F2B093"/>
			<stop  offset="1" style="stop-color:#F3B297"/>
		</linearGradient>
		<path fill="url(#SVGID_9_)" d="M52.24,14.83l-20.34,21.733l6.249,5.847L69.523,8.884C66.071,5.656,58.333,8.319,52.24,14.83z"/>
		
			<linearGradient id="SVGID_10_" gradientUnits="userSpaceOnUse" x1="-118.2842" y1="226.7354" x2="-118.2842" y2="247.3333" gradientTransform="matrix(-0.2129 0.2274 0.2869 0.2685 -58.9642 32.4206)">
			<stop  offset="0.3107" style="stop-color:#D7D6E7"/>
			<stop  offset="1" style="stop-color:#FFFFFF"/>
		</linearGradient>
		<path fill="url(#SVGID_10_)" d="M19.913,84.774c1.315,1.231,3.173,1.385,4.148,0.342l27.168-29.03l-4.762-4.458L19.298,80.659
			C18.323,81.7,18.599,83.544,19.913,84.774z"/>
		
			<linearGradient id="SVGID_11_" gradientUnits="userSpaceOnUse" x1="-257.1084" y1="226.7354" x2="-257.1084" y2="247.3345" gradientTransform="matrix(-0.2129 0.2274 0.2869 0.2685 -57.8695 31.2512)">
			<stop  offset="0.3107" style="stop-color:#C2191F"/>
			<stop  offset="0.3182" style="stop-color:#C2191F"/>
			<stop  offset="0.5745" style="stop-color:#D91F17"/>
			<stop  offset="0.809" style="stop-color:#E72113"/>
			<stop  offset="1" style="stop-color:#E72518"/>
		</linearGradient>
		<path fill="url(#SVGID_11_)" d="M80.723,24.573c0.976-1.042,0.701-2.885-0.616-4.117c-1.314-1.23-3.172-1.383-4.147-0.341
			L47.561,50.46l4.763,4.458L80.723,24.573z"/>
	</g>
	
		<linearGradient id="SVGID_12_" gradientUnits="userSpaceOnUse" x1="-906.8867" y1="-602.8042" x2="-906.8867" y2="-727.299" gradientTransform="matrix(0.2085 -0.2228 -0.2228 -0.2085 113.405 -326.3826)">
		<stop  offset="0.2938" style="stop-color:#ED7251"/>
		<stop  offset="1" style="stop-color:#E7251A"/>
	</linearGradient>
	<path fill="url(#SVGID_12_)" d="M79.268,8.957c3.668,3.433,6.053,7.649,7.084,11.939c-0.468-4.93-2.878-9.987-7.097-13.935
		c-8.229-7.7-20.2-8.271-26.739-1.284l-1.783,1.906C57.711,0.128,70.487,0.739,79.268,8.957z"/>
</g>
</svg>
