<?xml version="1.0" encoding="utf-8"?>
<!-- Generator: Adobe Illustrator 15.0.0, SVG Export Plug-In . SVG Version: 6.00 Build 0)  -->
<!DOCTYPE svg PUBLIC "-//W3C//DTD SVG 1.1//EN" "http://www.w3.org/Graphics/SVG/1.1/DTD/svg11.dtd">
<svg version="1.1" id="图层_1" xmlns="http://www.w3.org/2000/svg" xmlns:xlink="http://www.w3.org/1999/xlink" x="0px" y="0px"
	 width="16.992px" height="16.992px" viewBox="0 25.665 16.992 16.992" enable-background="new 0 25.665 16.992 16.992"
	 xml:space="preserve">
<g>
	<path fill="#1C4B9E" d="M8.285,25.665h0.444c1.719,0,3.412,0.614,5.076,1.844c0.638,0.568,1.136,1.082,1.494,1.541
		c1.127,1.587,1.692,3.287,1.692,5.1c0,2.187-0.81,4.159-2.427,5.917c-1.751,1.728-3.786,2.591-6.104,2.591
		c-2.318,0-4.373-0.903-6.162-2.708C0.766,38.199,0,36.25,0,34.103c0-2.295,0.875-4.333,2.626-6.115
		c0.996-0.902,2.058-1.54,3.186-1.914C6.73,25.801,7.554,25.665,8.285,25.665z M1.914,32.049c3.011,2.481,4.571,3.723,4.68,3.723
		c0.202,0.07,0.392,0.105,0.572,0.105c0.334,0,0.747-0.241,1.237-0.724c1.174-1.043,1.816-1.564,1.926-1.564l0.233-0.046
		c0.194,0,0.392,0.101,0.595,0.304c-1.346,1.151-2.509,2.127-3.489,2.929c-0.241,0.133-0.455,0.199-0.642,0.199
		c-0.327,0-0.732-0.218-1.214-0.654c-2.52-1.952-3.8-2.93-3.839-2.93v0.023l-0.023,0.735v0.047c0.334,0.304,1.945,1.584,4.832,3.84
		c0.319,0.179,0.614,0.269,0.887,0.269h0.035c0.39,0,0.903-0.315,1.541-0.945l3.151-2.591l0.759,0.677
		c-0.638,0.576-2.062,1.793-4.271,3.653c-0.358,0.249-0.728,0.373-1.108,0.373c-0.6,0-1.237-0.327-1.915-0.98l-3.816-3.022H1.995
		v1.085c0,0.086,0.183,0.257,0.549,0.514c3.237,2.599,4.89,3.898,4.959,3.898c0.233,0.132,0.506,0.198,0.817,0.198h0.058
		c0.623,0,1.268-0.343,1.937-1.027c1.649-1.346,3.225-2.661,4.727-3.944c-2.817-2.295-4.346-3.517-4.587-3.664
		c-0.163-0.094-0.357-0.141-0.583-0.141H9.744c-0.357,0-0.778,0.241-1.26,0.724c-1.151,0.996-1.773,1.494-1.867,1.494l-0.269,0.047
		H6.336c-0.241,0-0.424-0.078-0.548-0.234v-0.023c0.412-0.381,1.455-1.287,3.127-2.719c0.311-0.241,0.661-0.361,1.051-0.361
		c0.467,0,1.027,0.303,1.681,0.909l3.303,2.627h0.046v-0.782c-2.855-2.35-4.431-3.626-4.727-3.828
		c-0.319-0.155-0.646-0.233-0.98-0.233H9.184c-0.49,0-0.926,0.202-1.307,0.606l-3.303,2.801H4.563
		c-0.187-0.124-0.455-0.342-0.805-0.653c1.859-1.649,3.341-2.938,4.446-3.862c0.404-0.21,0.742-0.315,1.015-0.315
		c0.506,0,1.109,0.335,1.809,1.004l3.921,3.197h0.047v-1.108c-0.95-0.817-2.572-2.155-4.867-4.016
		c-0.537-0.303-1.07-0.455-1.599-0.455c-0.84,0-1.638,0.378-2.392,1.133l-3.711,3.186c-0.343,0.296-0.514,0.459-0.514,0.49V32.049z"
		/>
</g>
</svg>
