<?xml version="1.0" encoding="utf-8"?>
<!-- Generator: Adobe Illustrator 15.0.0, SVG Export Plug-In . SVG Version: 6.00 Build 0)  -->
<!DOCTYPE svg PUBLIC "-//W3C//DTD SVG 1.1//EN" "http://www.w3.org/Graphics/SVG/1.1/DTD/svg11.dtd">
<svg version="1.1" id="图层_1" xmlns="http://www.w3.org/2000/svg" xmlns:xlink="http://www.w3.org/1999/xlink" x="0px" y="0px"
	 width="15.272px" height="14.277px" viewBox="0 117.148 15.272 14.277" enable-background="new 0 117.148 15.272 14.277"
	 xml:space="preserve">
<g>
	<path fill="#655D5C" d="M0.73,128.921h3.667c0.395,0,0.589,0.738,0.583,2.215l-0.143,0.277H0.587
		c-0.395,0.089-0.59-0.29-0.587-1.136C0.003,129.431,0.247,128.979,0.73,128.921z M1.322,117.148h3.666
		c0.197,0,0.296,0.137,0.296,0.41c-0.777,2.343-1.706,4.145-2.788,5.404c0.483,1.178,0.726,2.193,0.726,3.046l-0.143,0.144H0.587
		l-0.296-0.287v-8.573L1.322,117.148z M1.895,126.926l0.258-0.153l0.344-0.066c0.535,0,0.91,0.204,1.126,0.611l0.067,0.506
		c-0.115,0.637-0.528,0.93-1.241,0.878c-0.369-0.076-0.649-0.279-0.84-0.61l-0.038-0.315v-0.296l0.096-0.286L1.895,126.926z
		 M6.01,128.921h3.246c0.579,0.058,0.869,0.194,0.869,0.411v1.804l-0.287,0.277H5.724l-0.296-0.277v-1.661L6.01,128.921z
		 M7.929,126.706h0.143l0.735,0.688v0.286c-0.095,0.732-0.439,1.098-1.031,1.098c-0.585,0-0.926-0.365-1.021-1.098v-0.286
		C7.003,126.936,7.395,126.706,7.929,126.706z M14.985,117.292l0.287,0.267v8.183l-0.287,0.268h-2.358l-0.296-0.268l0.735-2.778
		c-0.611-0.28-1.541-2.126-2.788-5.538l0.153-0.133H14.985z M11.013,128.921h3.667l0.592,0.554v1.661l-0.287,0.277H10.87
		l-0.306-0.277v-1.384C10.635,129.198,10.784,128.921,11.013,128.921z M13.066,126.706h0.153l0.726,0.688v0.697
		c-0.07,0.273-0.411,0.502-1.021,0.687c-0.586,0-0.929-0.365-1.031-1.098v-0.286C12.146,126.936,12.538,126.706,13.066,126.706z"/>
</g>
</svg>
