<?xml version="1.0" encoding="utf-8"?>
<!-- Generator: Adobe Illustrator 15.0.0, SVG Export Plug-In . SVG Version: 6.00 Build 0)  -->
<!DOCTYPE svg PUBLIC "-//W3C//DTD SVG 1.1//EN" "http://www.w3.org/Graphics/SVG/1.1/DTD/svg11.dtd">
<svg version="1.1" id="图层_1" xmlns="http://www.w3.org/2000/svg" xmlns:xlink="http://www.w3.org/1999/xlink" x="0px" y="0px"
	 width="16.833px" height="16.83px" viewBox="0.702 126.52 16.833 16.83" enable-background="new 0.702 126.52 16.833 16.83"
	 xml:space="preserve">
<path fill="#FFFFFF" d="M17.664,136.011c0.126-0.376,0.033-0.709-0.083-0.993c0.41-0.955-0.217-1.485-0.745-2.014
	c-0.252-0.252-0.474-0.501-0.718-0.744c-0.763-0.765-1.392-1.771-2.703-1.518c0.175-0.464,0.064-1.09-0.166-1.435
	c-0.288-0.432-0.871-0.898-1.352-1.38c-0.496-0.496-0.936-1.061-1.379-1.352c-0.389-0.255-0.955-0.292-1.324-0.083
	c-0.97-0.44-1.48,0.25-1.986,0.745c-0.234,0.229-0.492,0.443-0.717,0.662c-0.475,0.461-1.088,0.968-1.379,1.407
	c-0.228,0.344-0.307,0.921-0.193,1.352c-1.013-0.376-1.59,0.321-2.097,0.828c-0.462,0.462-0.967,0.939-1.407,1.379
	c-0.407,0.406-0.894,0.768-0.883,1.462c0.003,0.185,0.14,0.384,0.138,0.552c-0.002,0.191-0.138,0.358-0.138,0.607
	c0,0.597,0.463,0.987,0.828,1.352c0.239,0.239,0.484,0.483,0.745,0.745c0.508,0.508,1.044,1.181,1.518,1.434
	c0.356,0.191,0.876,0.188,1.214,0.139c-0.34,1.047,0.336,1.577,0.855,2.097c0.559,0.559,0.971,0.971,1.518,1.517
	c0.469,0.469,1.018,1.029,1.848,0.607c0.37,0.183,0.831,0.187,1.241-0.027c0.549-0.288,0.966-0.911,1.49-1.435
	c0.772-0.772,1.769-1.319,1.545-2.676c1.412,0.347,2.042-0.774,2.841-1.573C16.694,137.146,17.469,136.59,17.664,136.011z"/>
<path fill="#FF3333" d="M17.581,135.018c0.116,0.284,0.209,0.617,0.083,0.993c-0.195,0.579-0.97,1.135-1.49,1.655
	c-0.798,0.799-1.43,1.92-2.841,1.573c0.224,1.356-0.773,1.903-1.545,2.676c-0.524,0.523-0.941,1.146-1.49,1.435
	c-0.411,0.215-0.871,0.21-1.242,0.027c-0.831,0.422-1.379-0.139-1.848-0.607c-0.546-0.546-0.958-0.958-1.517-1.517
	c-0.52-0.52-1.195-1.05-0.855-2.097c-0.338,0.049-0.857,0.053-1.214-0.139c-0.473-0.253-1.009-0.926-1.517-1.434
	c-0.261-0.262-0.506-0.506-0.745-0.745c-0.364-0.364-0.828-0.755-0.828-1.352c0-0.249,0.136-0.416,0.138-0.607
	c0.001-0.168-0.135-0.367-0.138-0.552c-0.011-0.694,0.477-1.056,0.883-1.462c0.439-0.439,0.944-0.917,1.407-1.379
	c0.506-0.507,1.084-1.204,2.096-0.828c-0.114-0.431-0.035-1.008,0.193-1.352c0.292-0.439,0.904-0.946,1.379-1.407
	c0.225-0.219,0.483-0.433,0.717-0.662c0.505-0.495,1.016-1.186,1.986-0.745c0.369-0.209,0.935-0.172,1.324,0.083
	c0.444,0.291,0.883,0.855,1.379,1.352c0.481,0.481,1.064,0.948,1.352,1.38c0.229,0.345,0.341,0.971,0.166,1.435
	c1.312-0.254,1.94,0.753,2.703,1.518c0.244,0.243,0.466,0.492,0.717,0.744C17.364,133.532,17.991,134.063,17.581,135.018z
	 M17.36,135.018c0.223-0.286,0.234-0.813,0.027-1.186c-0.266-0.479-0.868-0.896-1.379-1.407c-0.507-0.507-0.929-1.098-1.407-1.379
	c-0.449-0.265-1.124-0.221-1.517,0c0.25-0.34,0.347-1.07,0.083-1.545c-0.266-0.479-0.972-1.055-1.435-1.518
	c-0.481-0.481-1.028-1.216-1.572-1.407c-0.376-0.132-0.723-0.009-0.965,0.11c-0.82-0.459-1.357,0.144-1.821,0.607
	c-0.522,0.521-0.986,0.986-1.49,1.489c-0.266,0.267-0.58,0.504-0.717,0.772c-0.234,0.46-0.121,1.081,0.083,1.435
	c-0.028,0-0.033-0.022-0.055-0.027c-0.314-0.199-0.954-0.336-1.435-0.11c-0.449,0.211-1.023,0.94-1.49,1.407
	c-0.26,0.26-0.503,0.486-0.745,0.717c-0.467,0.444-1.157,1.168-0.635,1.903c-0.51,0.777,0.126,1.34,0.58,1.793
	c0.261,0.262,0.495,0.496,0.745,0.745c0.491,0.49,1.012,1.211,1.518,1.462c0.489,0.244,1.112,0.104,1.434-0.027
	c-0.254,0.339-0.345,1.045-0.083,1.518c0.261,0.47,0.961,0.976,1.407,1.435c0.229,0.235,0.46,0.488,0.69,0.717
	c0.478,0.476,1.06,1.141,1.876,0.662c0.846,0.484,1.417-0.203,1.876-0.662c0.244-0.244,0.484-0.484,0.717-0.717
	c0.454-0.453,1.154-0.982,1.407-1.462c0.244-0.464,0.145-1.07-0.028-1.435c0.407,0.243,1.025,0.342,1.518,0.082
	c0.518-0.272,0.938-0.883,1.49-1.435C16.641,136.951,17.974,136.131,17.36,135.018z"/>
<path fill="#FFFFFF" d="M17.387,133.832c0.207,0.372,0.195,0.899-0.027,1.186c0.614,1.113-0.719,1.934-1.324,2.538
	c-0.551,0.552-0.972,1.162-1.489,1.435c-0.493,0.26-1.111,0.161-1.518-0.082c0.172,0.364,0.272,0.971,0.028,1.435
	c-0.253,0.479-0.954,1.008-1.407,1.462c-0.232,0.232-0.473,0.473-0.717,0.717c-0.458,0.459-1.03,1.146-1.876,0.662
	c-0.816,0.479-1.398-0.187-1.875-0.662c-0.23-0.229-0.461-0.481-0.69-0.717c-0.446-0.459-1.146-0.965-1.407-1.435
	c-0.263-0.473-0.171-1.179,0.083-1.518c-0.322,0.131-0.945,0.271-1.435,0.027c-0.505-0.251-1.027-0.972-1.517-1.462
	c-0.25-0.249-0.484-0.483-0.745-0.745c-0.453-0.453-1.089-1.016-0.579-1.793c-0.522-0.735,0.168-1.459,0.634-1.903
	c0.242-0.23,0.485-0.457,0.745-0.717c0.466-0.467,1.041-1.196,1.49-1.407c0.481-0.226,1.12-0.089,1.435,0.11
	c0.022,0.005,0.027,0.027,0.055,0.027c-0.204-0.354-0.317-0.975-0.083-1.435c0.137-0.269,0.451-0.506,0.717-0.772
	c0.503-0.503,0.968-0.968,1.49-1.489c0.464-0.464,1.001-1.066,1.821-0.607c0.243-0.119,0.589-0.242,0.965-0.11
	c0.544,0.191,1.091,0.926,1.573,1.407c0.462,0.463,1.168,1.039,1.435,1.518c0.264,0.475,0.167,1.205-0.083,1.545
	c0.393-0.221,1.069-0.264,1.518,0c0.478,0.281,0.9,0.872,1.407,1.379C16.519,132.936,17.122,133.354,17.387,133.832z M15.484,137.06
	c0.272-0.271,1.263-1.038,1.242-1.518c-0.012-0.271-0.217-0.411-0.441-0.524c0.294-0.092,0.495-0.341,0.414-0.744
	c-0.052-0.261-0.451-0.534-0.634-0.718c-0.537-0.537-0.845-0.845-1.352-1.352c-0.215-0.215-0.45-0.556-0.717-0.662
	c-0.538-0.215-0.957,0.212-1.269,0.524c-0.414,0.413-0.861,0.86-1.241,1.241c-0.061,0.061-0.2,0.108-0.166,0.221
	c0.892,0.019,1.858-0.037,2.704,0.027c-0.018,1.003,0.037,2.078-0.027,3.034c-0.855,0-1.71,0-2.565,0
	c0.237,0.307,0.552,0.607,0.883,0.938c0.29,0.29,0.616,0.758,0.993,0.91c0.725,0.293,1.172-0.372,1.49-0.689
	C15.03,137.514,15.24,137.304,15.484,137.06z M12.587,130.853c0.393-0.735-0.335-1.253-0.69-1.601
	c-0.216-0.211-0.428-0.431-0.662-0.661c-0.279-0.276-1.005-1.204-1.435-1.242c-0.264-0.022-0.48,0.17-0.607,0.414
	c-0.064-0.311-0.473-0.502-0.828-0.358c-0.187,0.075-0.487,0.432-0.689,0.635c-0.47,0.47-0.872,0.871-1.324,1.324
	c-0.199,0.198-0.514,0.457-0.607,0.717c-0.307,0.85,0.581,1.325,0.993,1.738c0.263,0.263,0.507,0.535,0.745,0.772
	c0.063,0.063,0.151,0.183,0.249,0.165c0-0.901,0-1.802,0-2.703c1.011,0,2.023,0,3.034,0c0,0.864,0,1.729,0,2.593
	c0.303-0.243,0.592-0.537,0.911-0.855C11.933,131.534,12.429,131.149,12.587,130.853z M12.449,139.956
	c0.501-0.815-0.492-1.458-0.882-1.849c-0.366-0.365-0.774-0.741-1.049-1.048c0.04,0.658,0.049,2.111,0,2.759
	c-1.002-0.019-2.078,0.037-3.034-0.027c0-0.855,0-1.711,0-2.565c-0.306,0.246-0.613,0.557-0.938,0.883
	c-0.258,0.258-0.764,0.647-0.91,0.965c-0.332,0.717,0.337,1.177,0.662,1.49c0.244,0.234,0.46,0.456,0.69,0.689
	c0.464,0.472,1.483,1.934,2.069,0.854c0.127,0.314,0.407,0.491,0.772,0.387c0.208-0.06,0.47-0.415,0.662-0.606
	c0.464-0.465,0.859-0.859,1.297-1.297C11.994,140.384,12.305,140.192,12.449,139.956z M6.767,136.591
	c0.082-0.082,0.227-0.193,0.166-0.249c-0.883-0.018-1.839,0.037-2.676-0.027c0.001-0.986-0.001-2.111,0-3.007
	c0.864,0,1.729,0,2.593,0c-0.258-0.349-0.583-0.61-0.91-0.938c-0.265-0.265-0.576-0.769-0.993-0.938
	c-0.677-0.276-1.216,0.411-1.517,0.718c-0.447,0.455-0.79,0.857-1.269,1.323c-0.231,0.226-0.56,0.471-0.607,0.718
	c-0.067,0.347,0.172,0.506,0.386,0.689c-0.29,0.079-0.459,0.34-0.386,0.718c0.043,0.225,0.409,0.52,0.607,0.717
	c0.475,0.476,0.887,0.888,1.324,1.324c0.202,0.202,0.406,0.515,0.689,0.662c0.83,0.433,1.48-0.625,1.821-0.966
	C6.264,137.067,6.528,136.829,6.767,136.591z"/>
<path fill="#FF3333" d="M16.726,135.542c0.021,0.479-0.97,1.246-1.242,1.518c-0.244,0.244-0.454,0.454-0.689,0.689
	c-0.317,0.317-0.766,0.982-1.49,0.689c-0.376-0.151-0.703-0.62-0.993-0.91c-0.331-0.33-0.646-0.632-0.883-0.938
	c0.855,0,1.71,0,2.565,0c0.064-0.957,0.009-2.032,0.028-3.035c-0.846-0.064-1.812-0.009-2.704-0.027
	c-0.034-0.111,0.105-0.16,0.166-0.221c0.38-0.38,0.828-0.828,1.241-1.241c0.313-0.313,0.731-0.739,1.269-0.524
	c0.268,0.107,0.503,0.448,0.717,0.662c0.507,0.507,0.814,0.814,1.352,1.352c0.184,0.184,0.583,0.457,0.635,0.718
	c0.081,0.403-0.12,0.652-0.414,0.745C16.508,135.131,16.713,135.272,16.726,135.542z"/>
<path fill="#FF0000" d="M11.897,129.252c0.355,0.348,1.083,0.865,0.69,1.601c-0.158,0.296-0.655,0.682-0.91,0.938
	c-0.318,0.318-0.607,0.612-0.911,0.855c0-0.864,0-1.729,0-2.593c-1.011,0-2.023,0-3.034,0c0,0.9,0,1.802,0,2.703
	c-0.097,0.018-0.185-0.103-0.249-0.165c-0.237-0.237-0.481-0.51-0.745-0.772c-0.412-0.413-1.3-0.889-0.993-1.738
	c0.094-0.26,0.408-0.519,0.607-0.717c0.453-0.453,0.854-0.854,1.324-1.324c0.203-0.203,0.503-0.56,0.689-0.635
	c0.355-0.144,0.764,0.048,0.828,0.358c0.127-0.244,0.343-0.437,0.607-0.414c0.43,0.038,1.155,0.966,1.435,1.242
	C11.47,128.822,11.682,129.041,11.897,129.252z"/>
<path fill="#FF3333" d="M11.567,138.108c0.391,0.392,1.384,1.033,0.882,1.849c-0.145,0.235-0.455,0.428-0.662,0.635
	c-0.438,0.438-0.833,0.832-1.297,1.297c-0.192,0.191-0.454,0.547-0.662,0.606c-0.366,0.104-0.646-0.072-0.772-0.387
	c-0.586,1.079-1.605-0.383-2.069-0.854c-0.23-0.234-0.446-0.455-0.69-0.69c-0.324-0.313-0.994-0.772-0.662-1.489
	c0.147-0.317,0.652-0.708,0.91-0.966c0.325-0.325,0.632-0.636,0.938-0.883c0,0.855,0,1.711,0,2.565
	c0.957,0.064,2.032,0.01,3.034,0.028c0.049-0.647,0.04-2.101,0-2.759C10.793,137.366,11.201,137.742,11.567,138.108z"/>
<path fill="#FF3333" d="M6.932,136.342c0.061,0.056-0.084,0.167-0.166,0.249c-0.238,0.238-0.503,0.476-0.772,0.744
	c-0.34,0.341-0.991,1.398-1.821,0.966c-0.283-0.147-0.487-0.46-0.689-0.662c-0.437-0.437-0.849-0.849-1.324-1.324
	c-0.197-0.197-0.563-0.492-0.607-0.717c-0.073-0.378,0.096-0.639,0.386-0.718c-0.214-0.184-0.453-0.343-0.386-0.689
	c0.047-0.247,0.375-0.492,0.607-0.717c0.479-0.467,0.822-0.869,1.269-1.324c0.301-0.307,0.84-0.993,1.517-0.718
	c0.417,0.17,0.729,0.674,0.993,0.938c0.328,0.327,0.652,0.589,0.911,0.938c-0.865,0-1.729,0-2.593,0
	c-0.001,0.896,0.001,2.021,0,3.007C5.093,136.379,6.049,136.324,6.932,136.342z"/>
</svg>
