<?xml version="1.0" encoding="utf-8"?>
<!-- Generator: Adobe Illustrator 15.0.0, SVG Export Plug-In . SVG Version: 6.00 Build 0)  -->
<!DOCTYPE svg PUBLIC "-//W3C//DTD SVG 1.1//EN" "http://www.w3.org/Graphics/SVG/1.1/DTD/svg11.dtd">
<svg version="1.1" id="图层_1" xmlns="http://www.w3.org/2000/svg" xmlns:xlink="http://www.w3.org/1999/xlink" x="0px" y="0px"
	 width="15.424px" height="14.989px" viewBox="0 0 15.424 14.989" enable-background="new 0 0 15.424 14.989" xml:space="preserve">
<g>
	<g id="XMLID_1_">
		<g>
			<path fill="#E532F0" d="M12.991,6.167c-0.106-0.245,0.181-0.602,0.371-0.771c0.334-0.296,0.805-0.537,1.371-0.6
				c0.314-0.035,0.632-0.036,0.685,0.229C15.474,5.3,15.13,5.651,14.99,5.768c-0.211,0.176-0.576,0.372-0.914,0.485
				C13.738,6.366,13.119,6.462,12.991,6.167z"/>
			<path fill="#EFE135" d="M11.271,2.633c-0.25,0.239-0.536,0.354-0.699,0.245c-0.442-0.292,0.032-2.023,0.91-2.394
				c0.077-0.032,0.202-0.042,0.283-0.009C12.433,0.745,11.724,2.198,11.271,2.633z"/>
			<path d="M11.906,13.591c-0.071-0.013,0.047-0.062,0.086-0.058C11.971,13.56,11.94,13.576,11.906,13.591z"/>
			<path d="M11.678,13.276c0.009-0.039,0.071-0.023,0.114-0.028l-0.014,0.042l0.014,0.043c-0.028,0-0.057,0-0.085,0l0.014-0.043
				L11.678,13.276z"/>
			<path d="M11.735,13.619c-0.73,0.189-1.358,0.599-2.256,0.456c-0.003-0.088,0.09-0.081,0.057-0.199
				c0.644-0.271,1.439-0.389,2.142-0.6l-0.015,0.043l0.043,0.014c0,0.01,0,0.02,0,0.029l-0.014,0.042l0,0l0.043,0.015
				c-0.072,0.06,0.072,0.111,0,0.172l-0.043,0.014L11.735,13.619z"/>
			<path d="M11.421,12.848c-0.009,0.039-0.071,0.024-0.114,0.029C11.316,12.838,11.378,12.853,11.421,12.848z"/>
			<path d="M11.278,12.733c0.071,0.012,0.021,0.131-0.057,0.086C11.24,12.79,11.287,12.79,11.278,12.733z"/>
			<path fill="#00AA51" d="M8.081,13.962c-0.122-0.024-0.25-0.08-0.342-0.144c0.104-0.194,0.394-0.121,0.542-0.143
				c0.242-0.119,0.47-0.253,0.771-0.313c-0.039,0.035-0.055,0.15,0.057,0.114c0.084-0.024-0.037-0.072,0-0.144
				c0.383-0.109,0.796-0.12,1.142-0.313c0.173,0.024,0.507,0.004,0.628-0.114l0.043,0.014l-0.014-0.042
				c0.135-0.1,0.208,0.065,0.286,0.114c0.357,0.002,0.596-0.006,0.999-0.058l-0.014,0.043l0.014,0.043
				c-0.124,0.247-0.641,0.102-0.828,0.285c-0.895,0.067-1.5,0.424-2.313,0.571c-0.055,0.012-0.022,0.11-0.114,0.086
				c0.005-0.029-0.006-0.057-0.028-0.058C8.703,13.895,8.377,14.021,8.081,13.962z"/>
			<path d="M11.164,12.934c-0.041-0.007-0.01-0.085-0.057-0.086c0.009-0.061,0.135-0.006,0.114,0.058
				C11.188,12.9,11.17,12.911,11.164,12.934z"/>
			<path d="M10.993,12.819C11.062,12.726,11.129,12.898,10.993,12.819L10.993,12.819z"/>
			<path d="M10.878,12.763c0.02,0.02-0.112,0.078-0.085,0.028C10.797,12.783,10.854,12.738,10.878,12.763z"/>
			<path d="M10.765,12.763c-0.007,0.037-0.161,0.112-0.143,0c0.023,0.015,0.046,0.029,0.086,0.028
				c0.005-0.024-0.011-0.027-0.029-0.028C10.691,12.72,10.715,12.773,10.765,12.763z"/>
			<path d="M10.45,12.791c-0.084-0.082,0.111,0.06,0.114-0.028C10.672,12.82,10.466,12.844,10.45,12.791z"/>
			<path fill="#E532F0" d="M9.166,12.22c-0.092,0.181-0.11,0.437-0.314,0.429c-0.112-0.033,0.026-0.153,0.057-0.229
				c0.132-0.32,0.387-1.228-0.286-1.085l0.014-0.053l-0.042-0.033c0.575-0.233,1.125-0.492,1.627-0.799l-0.015,0.042l0,0
				l0.043,0.015c-0.321,0.238-0.439,0.699-0.4,1.37c0.012,0.204,0.126,0.442-0.057,0.543c-0.062-0.238-0.027-0.527-0.228-0.571
				C9.375,11.808,9.265,12.024,9.166,12.22z"/>
			<path fill="#00AA51" d="M10.193,12.877c-0.095,0.015-0.19,0.126-0.286,0.057c0.068-0.066,0.17-0.114,0.267-0.096
				C10.188,12.85,10.189,12.863,10.193,12.877z"/>
			<path fill="#DA251C" d="M8.252,5.254C8.213,5.169,8.055,5.203,7.938,5.196l0.014-0.043l0,0L7.909,5.14
				c0.525-0.342,1.754-0.62,2.113,0.028c0.203,0.366,0.144,0.794-0.057,1.085c-0.547,0.794-2.034,0.432-1.855-0.6
				C8.138,5.485,8.202,5.488,8.252,5.254z"/>
			<path fill="#E532F0" d="M9.451,10.307c0.325,0.341-0.326,0.631-0.4,0.257C9.012,10.366,9.187,10.203,9.451,10.307z"/>
			<path fill="#DA251C" d="M9.051,8.537C8.9,9.247,7.859,9.853,7.082,9.45l0.014-0.043L7.082,9.365
				c0.903,0.201,1.576-0.278,1.884-0.856l0.033,0.042L9.051,8.537z"/>
			<path fill="#00ADEF" d="M6.51,11.563l0.043-0.033l-0.014-0.053c0.546-0.063,1.017-0.201,1.484-0.343l-0.014,0.053l0.043,0.033
				c-0.35,0.249-0.616,0.583-0.714,1.085l-0.052-0.015l-0.033,0.043c-0.144-0.226-0.465-0.005-0.6,0.114l-0.02-0.049l-0.037-0.037
				C6.733,12.108,6.876,11.666,6.51,11.563z"/>
			<path fill="#00ADEF" d="M7.224,11.221c-0.214,0.013-0.346-0.28-0.114-0.399C7.451,10.646,7.525,11.203,7.224,11.221z"/>
			<path fill="#00ADEF" d="M7.167,12.791c-0.064-0.048,0.052-0.155,0.057-0.229l0.043,0.015l0.043-0.015
				c0.081-0.005-0.024,0.176,0.057,0.171c-0.004,0.063-0.072,0.062-0.143,0.058l-0.028-0.028L7.167,12.791z"/>
			<path fill="#3B37ED" d="M6.853,2.599C6.33,2.687,5.494,1.098,5.882,0.229c0.034-0.075,0.119-0.168,0.2-0.199
				c0.672-0.261,1.147,1.285,1.114,1.912C7.177,2.287,7.046,2.565,6.853,2.599z"/>
			<path fill="#00AA51" d="M6.21,12.862L6.21,12.862L6.21,12.862z"/>
			<path fill="#00AA51" d="M1.885,14.59c-0.23,0.002-0.37-0.087-0.628-0.058c-0.042-0.122,0.092-0.118,0.171-0.171
				c0.142-0.096,0.286-0.16,0.485-0.257c0.183-0.09,0.381-0.249,0.628-0.314c0.194-0.052,0.405-0.016,0.571-0.143
				c0.023-0.054,0.048-0.104,0.057-0.171c0.129-0.045,0.197-0.005,0.314,0.028c0.039-0.009,0.024-0.071,0.029-0.114
				c0.592-0.217,1.232-0.386,1.941-0.485L5.44,12.948l0.042-0.015c0.023-0.015,0.046-0.029,0.086-0.028
				c0.005,0.032,0.028,0.016,0.028,0l0.042,0.014c0,0,0,0,0,0l-0.014-0.042c0.046,0.008,0.049-0.027,0.085-0.029l0.043-0.014
				L5.74,12.791c0.019,0,0.038,0,0.057,0c-0.053,0.122,0.181,0.101,0.171,0.086h0.029v-0.029c0.08,0.077,0.117-0.05,0.229-0.028
				L6.21,12.862l0,0l0.043,0.015c0.025-0.022,0.064-0.031,0.114-0.029L6.354,12.89c0,0.001,0,0.001,0,0.001l0.042-0.014
				c0.007,0.036,0.085,0.037,0.086,0l0.042,0.014L6.51,12.848c0.167,0.015,0.394-0.031,0.514,0.029
				c-0.009-0.135,0.078-0.052,0.143,0.028c0-0.01,0-0.02,0-0.028l0.043,0.014l-0.014-0.043c0.682-0.016,1.863,0.033,2.684-0.028
				l-0.014,0.043l0.042-0.015c0,0.01,0,0.02,0,0.029v0.057v0.058c-0.14,0.04-0.341,0.02-0.399,0.143
				c-0.403,0.002-0.72-0.012-1,0.229c-0.104,0-0.109-0.101-0.171-0.143c-0.106-0.003-0.139,0.07-0.2,0.113
				c-0.277-0.121-0.43,0.188-0.685,0.086c-0.09-0.014-0.075,0.077-0.143,0.086c-0.09,0.014-0.117-0.036-0.143-0.086
				c-0.03,0.029-0.204,0.06-0.114,0.114c-0.327,0.07-0.599,0.193-0.942,0.171c-0.217,0.312-0.91,0.189-1.171,0.543
				c-0.155,0.015-0.278-0.075-0.314,0.086c-0.222-0.189-0.202,0.143-0.343,0.199c-0.119,0.011-0.02-0.093-0.028-0.143
				c-0.218-0.033-0.439,0.189-0.542,0.086c-0.057,0.02-0.065,0.087-0.114,0.114c-0.375-0.018-0.786,0.161-1.17,0.229
				c-0.08-0.101-0.341-0.109-0.485-0.058C1.917,14.66,1.948,14.667,1.885,14.59z"/>
			<path fill="#DA251C" d="M4.826,10.621C3.872,9.908,3.104,8.948,3.227,7.224c0.089-1.242,0.751-2.202,1.485-2.855
				c0.942-0.839,2.062-1.49,3.854-1.37c2.072,0.139,3.808,1.766,3.683,4.025c-0.062,1.119-0.485,1.796-1.085,2.569l-0.02-0.048
				l-0.037-0.037c0.397-0.678,0.769-1.354,0.685-2.455c-0.071-0.934-0.491-1.61-0.971-2.085C10.145,4.299,9.15,3.871,7.909,3.94
				C5.706,4.063,3.893,5.764,3.741,7.737c-0.107,1.395,0.479,2.15,1.17,2.855l-0.043,0.014L4.826,10.621z"/>
			<path fill="#DA251C" d="M4.626,6.767c-0.105-0.05-0.233-0.051-0.343-0.028l0.015-0.043h0L4.255,6.682
				C4.924,6.223,6.342,6.019,6.51,6.967c0.119,0.666-0.405,1.236-0.999,1.256c-0.445,0.015-0.956-0.3-1.028-0.742
				C4.429,7.146,4.58,7.052,4.626,6.767z"/>
			<path fill="#DA251C" d="M3.142,4.568C2.635,4.487,1.473,4.012,1.514,3.455c0.015-0.209,0.151-0.266,0.371-0.314
				C2.406,3.025,2.913,3.215,3.37,3.483c0.303,0.179,0.718,0.451,0.685,0.771C4.023,4.57,3.544,4.633,3.142,4.568z"/>
			<path d="M3.855,14.989c0.016-0.094,0.108-0.041,0.171-0.028c0,0.009,0,0.019,0,0.028C3.969,14.989,3.912,14.989,3.855,14.989z"/>
			<path fill="#00ADEF" d="M0.515,7.509c-0.22-0.077-0.49-0.216-0.514-0.456c-0.007-0.069,0.036-0.037,0.028-0.029
				c0.032-0.036-0.019-0.019,0-0.057c0.226-0.445,1.355-0.648,2.113-0.399c0.285,0.093,0.526,0.245,0.514,0.57
				C2.632,7.144,2.629,7.127,2.627,7.109C2.573,7.051,2.651,7.2,2.599,7.252C2.211,7.646,1.214,7.756,0.515,7.509z"/>
			<path fill="#E67819" d="M2.371,10.621c-0.382,0.192-0.775,0.326-1.199,0.314c-0.282-0.009-0.603-0.118-0.628-0.343
				c-0.035-0.313,0.404-0.586,0.628-0.714c0.236-0.135,0.508-0.283,0.971-0.343C2.498,9.49,3.059,9.464,3.113,9.821
				C3.172,10.209,2.63,10.49,2.371,10.621z"/>
		</g>
		<g>
		</g>
	</g>
</g>
</svg>
