<?xml version="1.0" encoding="utf-8"?>
<!-- Generator: Adobe Illustrator 15.0.0, SVG Export Plug-In . SVG Version: 6.00 Build 0)  -->
<!DOCTYPE svg PUBLIC "-//W3C//DTD SVG 1.1//EN" "http://www.w3.org/Graphics/SVG/1.1/DTD/svg11.dtd">
<svg version="1.1" id="图层_1" xmlns="http://www.w3.org/2000/svg" xmlns:xlink="http://www.w3.org/1999/xlink" x="0px" y="0px"
	 width="15.926px" height="14.916px" viewBox="0 117.535 15.926 14.916" enable-background="new 0 117.535 15.926 14.916"
	 xml:space="preserve">
<g>
	<path fill="#5F9154" d="M15.926,117.535v0.02c-0.178,0.938-0.287,1.429-0.327,1.476H9.987l-0.653,2.128H5.929l-0.218,0.881h4.177
		c0.026-0.033,0.195-0.601,0.505-1.703c0.099-0.369,0.162-0.554,0.188-0.554h4.85l0.03,0.039c-0.191,0.924-0.3,1.386-0.327,1.386
		h-3.89l-0.613,2.307H5.434l-0.198,0.792h3.425v0.02l-0.782,3.701l-0.02,0.021H4.533c-0.026,0-0.092,0.214-0.198,0.644h4.256
		c0.026,0,0.132-0.462,0.316-1.386l0.664-2.999H14.5l0.02,0.02h0.02l-0.307,1.386h-3.989l-1.039,4.493H3.989l-0.168,0.753h5.949
		c0.627-2.851,0.963-4.329,1.01-4.435h3.227l0.02,0.02h0.01c-0.178,1.003-0.28,1.505-0.307,1.505h-2.286
		c-0.033,0-0.132,0.415-0.297,1.247l-0.752,3.157h-7.74l-0.04-0.03l0.931-4.424H0v-0.02l0.782-3.672h3.455l1.049-4.533H8.74
		c0.026,0,0.099-0.277,0.218-0.832l0.366-1.405H15.926z M1.405,125.73l-0.178,0.782h2.564l0.218-0.782H1.405z M4.929,125.73
		l-0.158,0.782h2.583l0.159-0.763l-0.01-0.02H4.929L4.929,125.73z"/>
</g>
</svg>
