<?xml version="1.0" encoding="utf-8"?>
<!-- Generator: Adobe Illustrator 15.0.0, SVG Export Plug-In . SVG Version: 6.00 Build 0)  -->
<!DOCTYPE svg PUBLIC "-//W3C//DTD SVG 1.1//EN" "http://www.w3.org/Graphics/SVG/1.1/DTD/svg11.dtd">
<svg version="1.1" id="图层_1" xmlns="http://www.w3.org/2000/svg" xmlns:xlink="http://www.w3.org/1999/xlink" x="0px" y="0px"
	 width="17.97px" height="12.303px" viewBox="0 84.816 17.97 12.303" enable-background="new 0 84.816 17.97 12.303"
	 xml:space="preserve">
<g>
	<path fill="#7A685E" d="M6.635,84.816h4.275l1.303,1.737h2.093v-0.646l0.178-0.178h2.004l0.178,0.178v0.646h1.136l0.167,0.178
		v10.21l-0.167,0.178H0.178L0,96.941v-10.21l0.178-0.178H1.57v-0.457l0.178-0.189H2.36l0.167,0.189v0.457H5.5
		C5.99,85.596,6.368,85.017,6.635,84.816z M4.097,91.831c0,2.07,1.021,3.592,3.062,4.564c0.601,0.237,1.18,0.356,1.737,0.356
		c1.982,0,3.437-1.091,4.364-3.273c0.178-0.497,0.267-0.954,0.267-1.37v-0.456c0-2.183-1.166-3.7-3.496-4.554
		c-0.252-0.126-0.716-0.189-1.392-0.189c-1.93,0-3.385,1.188-4.364,3.563L4.097,91.831z M8.985,88.19
		c1.537,0,2.643,0.972,3.318,2.917l0.056,0.912c-0.037,1.507-0.869,2.599-2.494,3.273c-0.26,0.127-0.668,0.189-1.225,0.189
		c-0.742,0-1.5-0.367-2.271-1.103c-0.698-0.801-1.046-1.651-1.046-2.549c0-1.774,0.987-2.988,2.961-3.641H8.985z"/>
</g>
</svg>
