<?xml version="1.0" encoding="utf-8"?>
<!-- Generator: Adobe Illustrator 15.0.0, SVG Export Plug-In . SVG Version: 6.00 Build 0)  -->
<!DOCTYPE svg PUBLIC "-//W3C//DTD SVG 1.1//EN" "http://www.w3.org/Graphics/SVG/1.1/DTD/svg11.dtd">
<svg version="1.1" id="图层_1" xmlns="http://www.w3.org/2000/svg" xmlns:xlink="http://www.w3.org/1999/xlink" x="0px" y="0px"
	 width="15.388px" height="13.383px" viewBox="0 0 15.388 13.383" enable-background="new 0 0 15.388 13.383" xml:space="preserve">
<g>
	<path fill-rule="evenodd" clip-rule="evenodd" fill="#059905" d="M9.897,2.157c-0.309-0.143-0.493-0.528-0.81-0.652
		C8.337,1.21,7.697,1.93,7.212,2.374C5.785,3.683,3.979,5.219,2.632,6.5c0.944,0.067,2.087-0.259,2.29,0.514
		c0.108,0.411,0.02,1.063,0.02,1.599c0,1.52,0.015,3.428-0.02,4.759c-0.714,0.038-1.25,0.013-1.421-0.475
		c-0.085-0.241-0.04-0.768-0.04-1.204V8.573c0-0.197,0.026-0.58,0-0.612c-0.043-0.051-0.54-0.02-0.77-0.02h-0.79
		c-0.536,0-1.158,0.069-1.481-0.079C0.175,7.75-0.113,7.402,0.046,6.954c0.06-0.168,0.276-0.317,0.474-0.493
		C2.397,4.78,4.217,3.079,6.087,1.426c0.69-0.61,1.346-1.347,2.508-1.421c0.778-0.05,1.383,0.303,1.816,0.671
		c0.193,0.164,0.444,0.383,0.514,0.593C11.124,1.869,10.502,2.436,9.897,2.157z"/>
	<path fill-rule="evenodd" clip-rule="evenodd" fill="#F2062E" d="M13.135,4.585c-0.069,0.195-0.357,0.365-0.533,0.533
		c-0.2,0.192-0.343,0.375-0.533,0.514l-0.052-0.069l-0.086,0.01V3.874h-1.638c-0.114,0-0.491-0.035-0.533,0
		c-0.045,0.038-0.02,0.355-0.02,0.435c0,0.423,0,0.952,0,1.283l-0.078-0.01l-0.061,0.05c-0.229-0.199-0.38-0.373-0.612-0.593
		c-0.184-0.175-0.503-0.358-0.474-0.71c0.013-0.157,0.219-0.365,0.355-0.494c0.289-0.274,0.568-0.55,0.869-0.829
		c0.18-0.167,0.395-0.486,0.691-0.415c0.128,0.031,0.276,0.332,0.396,0.336c0.149,0.006,0.267-0.379,0.592-0.336
		c0.254,0.034,0.721,0.634,0.908,0.81c0.15,0.142,0.279,0.271,0.435,0.414C12.943,3.985,13.283,4.167,13.135,4.585z"/>
	<path fill-rule="evenodd" clip-rule="evenodd" fill="none" d="M12.017,5.563"/>
	<path fill-rule="evenodd" clip-rule="evenodd" fill="none" d="M11.967,5.681"/>
	<path fill-rule="evenodd" clip-rule="evenodd" fill="none" d="M9.662,5.582"/>
	<path fill-rule="evenodd" clip-rule="evenodd" fill="none" d="M9.295,5.802"/>
	<path fill-rule="evenodd" clip-rule="evenodd" fill="#F2062E" d="M9.384,8.08C9.239,8.249,9.065,8.41,8.89,8.573
		C8.664,8.785,8.336,9.259,7.864,9.106C7.711,9.057,7.544,8.84,7.41,8.712c-0.317-0.303-0.524-0.504-0.868-0.83
		C6.396,7.745,6.164,7.579,6.166,7.408c0.002-0.126,0.112-0.189,0.178-0.257c0.039-0.04,0.198-0.195,0.198-0.217
		C6.54,6.79,6.124,6.696,6.186,6.362c0.039-0.211,0.618-0.647,0.79-0.81c0.322-0.306,0.52-0.597,0.829-0.771
		c0.425-0.238,0.789,0.206,1.026,0.435C9.011,5.39,9.168,5.545,9.364,5.75L9.295,5.803l0.01,0.086H7.528v1.54
		c0,0.1-0.032,0.474,0,0.513c0.04,0.048,0.354,0.02,0.435,0.02h1.362L9.315,8.04L9.384,8.08z"/>
	<path fill-rule="evenodd" clip-rule="evenodd" fill="#F2062E" d="M15.248,7.23c0.292,0.307,0.061,0.507-0.217,0.771
		c-0.333,0.315-0.544,0.515-0.869,0.829c-0.206,0.199-0.446,0.5-0.829,0.375C13.1,9.129,12.936,8.899,12.76,8.731
		c-0.183-0.176-0.368-0.32-0.533-0.514l0.049-0.071l-0.01-0.087h1.323c0.116,0,0.401,0.027,0.435,0
		c0.067-0.056,0.02-0.405,0.02-0.513V6.52c0-0.136,0.035-0.471,0-0.513c-0.064-0.076-0.759-0.021-0.888-0.021h-0.908l0.003-0.075
		l-0.063-0.042c0.353-0.272,0.629-0.729,0.987-0.948c0.426-0.26,0.735,0.068,1.007,0.315c0.321,0.293,0.509,0.528,0.849,0.85
		c0.256,0.24,0.532,0.41,0.217,0.73c-0.026,0.025-0.216,0.157-0.217,0.197C15.03,7.054,15.213,7.194,15.248,7.23z"/>
	<path fill-rule="evenodd" clip-rule="evenodd" fill="#F2062E" d="M13.037,9.719c-0.063,0.188-0.268,0.312-0.415,0.454
		c-0.296,0.285-0.534,0.539-0.868,0.849c-0.263,0.243-0.473,0.493-0.79,0.217c-0.053-0.046-0.155-0.218-0.217-0.217
		c-0.167,0.002-0.24,0.385-0.592,0.335c-0.169-0.023-0.324-0.256-0.474-0.395c-0.345-0.319-0.562-0.511-0.908-0.829
		C8.586,9.962,8.348,9.747,8.437,9.422C8.5,9.187,8.786,8.991,8.95,8.83c0.194-0.191,0.375-0.344,0.573-0.514L9.544,8.41
		l0.096,0.005v1.658h2.191V8.376l0.083,0.002l0.016-0.081c0.2,0.163,0.374,0.32,0.553,0.493C12.683,8.983,13.171,9.312,13.037,9.719
		z"/>
	<path fill-rule="evenodd" clip-rule="evenodd" fill="none" d="M9.544,8.41"/>
</g>
</svg>
