<?xml version="1.0" encoding="utf-8"?>
<!-- Generator: Adobe Illustrator 15.0.0, SVG Export Plug-In . SVG Version: 6.00 Build 0)  -->
<!DOCTYPE svg PUBLIC "-//W3C//DTD SVG 1.1//EN" "http://www.w3.org/Graphics/SVG/1.1/DTD/svg11.dtd">
<svg version="1.1" id="图层_1" xmlns="http://www.w3.org/2000/svg" xmlns:xlink="http://www.w3.org/1999/xlink" x="0px" y="0px"
	 width="15px" height="14.861px" viewBox="0 0 15 14.861" enable-background="new 0 0 15 14.861" xml:space="preserve">
<g>
	<path fill-rule="evenodd" clip-rule="evenodd" fill="#A00000" d="M6.894,0.03c2.492-0.229,4.714,0.885,5.957,2.142
		c1.118,1.13,2.251,3.1,2.143,5.623c-0.3,6.941-8.68,9.08-12.784,5.02C0.943,11.562-0.008,9.763,0,7.459
		c0.009-2.396,1.02-4.178,2.209-5.354C3.229,1.096,4.661,0.236,6.894,0.03z M6.626,1.369C6.611,1.421,6.57,1.447,6.492,1.436
		C3.379,2.152,1.008,4.414,1.406,8.263c0.304,2.943,2.522,4.682,5.288,5.288c0-1.093,0-2.187,0-3.279
		c-1.536-0.024-3.088,0.275-3.414-0.937c-0.295-1.101,0.216-2.425,0-3.815c0.368-1.06,1.966-0.89,3.414-0.87
		C6.648,3.578,6.782,2.329,6.626,1.369z M8.3,4.648c1.536,0.025,3.088-0.275,3.413,0.937c0.296,1.101-0.216,2.425,0,3.815
		c-0.376,1.052-1.96,0.896-3.413,0.87c0.044,1.071-0.089,2.32,0.066,3.279c3.143-0.73,5.626-2.97,5.221-6.894
		c-0.297-2.881-2.431-4.688-5.221-5.221C8.362,1.395,8.356,1.356,8.3,1.369C8.3,2.462,8.3,3.555,8.3,4.648z M4.686,5.987
		c0,0.981,0,1.963,0,2.945c1.874,0,3.748,0,5.622,0c0-0.981,0-1.963,0-2.945C8.434,5.987,6.56,5.987,4.686,5.987z"/>
</g>
</svg>
